<mxfile host="app.diagrams.net" agent="Mozilla/5.0 (Windows NT 10.0; Win64; x64) AppleWebKit/537.36 (KHTML, like Gecko) Chrome/129.0.0.0 Safari/537.36" version="24.7.14">
  <diagram name="第 1 页" id="LD867iMQUuZb55md46fo">
    <mxGraphModel dx="1434" dy="772" grid="1" gridSize="10" guides="1" tooltips="1" connect="1" arrows="1" fold="1" page="1" pageScale="1" pageWidth="827" pageHeight="1169" math="0" shadow="0">
      <root>
        <mxCell id="0" />
        <mxCell id="1" parent="0" />
        <mxCell id="urtE2N_7HO7W4vvlgQMw-27" value="" style="shape=image;verticalLabelPosition=bottom;labelBackgroundColor=default;verticalAlign=top;aspect=fixed;imageAspect=0;image=data:image/png,iVBORw0KGgoAAAANSUhEUgAABH4AAAIfCAIAAACJr4yLAAAgAElEQVR4Aey9eXQdx33niz/DRZ4/4z/nnMwfM3+8l8nBy7MnGcfxBHlJXt7EGTmLfeZkMo6T2CJB2fGiK4qiQIlSTJsAQZqyQnAHSYgECFIgJUoEQWLlioXgApLgCgLEDmLHxV2Ai/tOrV3dXb3cBdvFt08f3OrqWn71qeq+9b2/6kbW6o0XF2ZftfGiy+7bhkur33LdN15abd/fvLTKul9c9SbbyanVb6q5qldv1O5KGmtp9vLVGFmXY0Bjs70VGqsUkzTpkz+75s1L3vvGi2sWaK9a/aafXWWuCZt72RkOGw/ufwMXV3vu7iXQs96Q/XTEm5fWbKz23EnzvfeLq9/02KnN1WvedNn54FlLrSJjm15fa96qXvtWzdpNZF/zVs2at6p97Cyl+18/5fhJY6mFZ5F3A0JYY7Mll/ehhMBQOP1ds6nGc1/7dm169s11a5Pfa9e87WtfvanG7/52zSrXffXb3nAEvdo1m9jOsxAb3jJ2kcy1QDJc3XdyAcqhklLA68uFfllUr37La0+XPT7KodeFOx8/Z9PH0IfNKfXRopXv/LVlTADkOHRITO7GMs2yDlgbuGrjJfedXzvpab61dn+zOEuuanJj8brVe1/snncD3wn82ONp8Bpyj/W6QflL4Kcuf2kurdm0hPYsf5NaPxPf+U+zsWq111yfSDjv+eWlVYGLfLcnFrNY8+0p2ak8/x51FF1UAWoKV7Uin7kKw9gkm5hnNz5dMYFLazz2i2verFqwfXXggtdetZpoaQ+SngkIUo+GkwTeuosIM0+G6UvgU6EtbLK1b1avJQpNSD4iXZQZmNf3H5U6Sno1rxr2Ksd8IeunGms2Uln4Vg3RRaRwRymrlubXQtXa9IWphKtduynl/e3aFHSXWbO9U7fWsm+uW0P2WmVnMR5/V79TZ903163eXCv3NZtr13rtNk3oW/uZVaJp3Dr0oPdUw+9AtUzOtIf6YawOzgULp/MqMH/HsW+65P4uWPMXtiJxL5U3VUuACDAxNhy+Del0QqSRiZMKJNc1yeUy2iVNdWigy7f8an8/U/qxkP+kaOFvOTT0sPYqJpG+fraQTZ7nAGm4w/0t4fh0mJo+e6rXvHVpSe1ZCzZ7XsCKvDw2tqmzxvlgEzb26zmNt7DVrjcRcn1urF6r7BaD/SkB7qix5NUc2vhoy1/ADq3y0l0XVgd8Sq/qVW/WuOyr36zWNjYDIomWTl16+RwbtrrYxWK6ffu4Nfv7CkzDNIJJr1feqmG7eq2pYbtnw2ohcYv5kIvO0o4X6K8cJhTd/hIfo5c28ye9Xnmn3nvPa3hli3nPa1ibV2/eG17J89jXbmnQ7Go5fox5p94uKW1irNaPI27VW9Vp2TXTRx9XwWLnYrNGx6ssXdMjMoyV77hUwvbrdLEZOtLzbxi7M7hjIQ0Xs3/7jEXGyDQpBizTEnfbUjmrtkvaLJvjP8CkVyqW+M/L+suzf/kN3/VHB89C0pjAjz1+0qTLJD91+UpDpNfFpbNnpT6nXPPmxbTsqVvCSpDGkOl4svsasuzK249H6nJ3xHkt3xLruzzrMkG2tGvVGxfoXpUuhkuvHHtX+ljyp1kTyHxW8/03OdtSyWXnY43xI720/W7KyFx5b1xc42cPXFwTIClXv0GbRn9xlF9dyetAy7eUP5WiU0TGfMjXvdtSr8OhbKBLwE91VkGlnZVaZZ7bkkjdykaqyuiqRbsmUWPWbq7z1l3v1L+S1/Al224VWhZtpj20FfIlm1qzV2SJEQbXvfKOsdvFmJ8YFYVT2I+E0w1CJ6HuvvrO8Uf0hFY9+ZuzalYTkOmv6Rd941JymnL5GfM+7wly8u0YMNlmMdXPoWyOd2Jf7XK4V5jyqr+LifT0HlKzdqP/nfxE61isWkWyYZW5z/7yTOZyq5SnSKOStdnIqL2LJhVplOlslfka8R5LqaT3Y49pYFjGSYqHzhB8GbYUsvu7aawhjhCP3U8/pkF6pWVhle9FXN7TU+mNofrEc6Faagm8Ft0R/ea9WC41GwJMd1WueoM6fzR6g0JjM+A0/nWqaIHixWo9dtH688ZopYUl0mulpajXbT2hEBtpQeHdZX7GGJHl7k1zuQbVjGsDl9Z66a7VP6ta87MqLs9+VrX6Z1Wr36Ay7M1LZBXiRr4QMembMlvKyIsSqwStWsUr3mVVodNXlJwHLEDglY01cneqzjyV5/NFYrzmmTTujiOU6ON29K9wiHk9rLV2c61QMm6+L4v40R5a3WI66aXNmESkH5v9pElBntWseZuvcvT3QIJ48IOIaueHJbSzBGXphEkaKfE2reW+El6cDVz8DfPuZ528WhfxNmh3y11Um8Yc6b5CRK3UJazqB02YTkOJhhQeJJfAGrqs2rgjJXVIH501IeIFJqUKTLcLsz2sokStNZln6bJED829KUYF+UZYRrsJiL5FpDddhk3aTwmSplFki5wXyD5p2IxxN3URzvrpFM/rfc2bvu4baZFe3nLIMrud10MpvdYQ2eNnVpqq8klFXFFvVeWqN6x7smU69MUbF1e9UcV2X/4Kr7m14cpIi7pIoRDuk0mj9PLRdj8MuasnhaaRy0TpONmD9oC/0eIwNhK00NR2Jqt0fy3Si+QKXFyTJuklb+KmSUZS0xRZlJ8AmRx41fIK+YnaO1la0lgkInM4uD88QKWXUFxsLWIaFxz6WAdoXnxoWYvID/3IoYVM40d6uaRxcpRp4/14z8hzZZqVisaTrmQOIRO4SS8ji4tQWfWmTXrJh6V9B7TqyzIT4Ddz57ksm846m0of4fbx0K/WGD93gGWfhn5RJtyKNH69unZuwoYt/9Isl0DSh36unYXE6+e70vtLkD4rvpBmL1hdWaaJlG3SufqNqiW1u1vLz7JlTvxv1Zo3PPZUGuhZuFMCpdILq3+m273IO5RsXQlmVCTmx2ROnPJO/Rhcy9mVAIuhVVvtsfegYaFzk2UVLjcme8n2GD91pQ6HleCnLl9pRMcR5k67MzpfVSSSXeVjsuenF1aruxhjLA3J9cbFtcozYC5daT81fzdEWVe6qnD5OpFVmNIk8u1i+T5Tn2lRPF30ZSGGa0t1c5FHv15527KbX5Xh8KpDf1LHqyjLSzhcDh3McFE4llN0naGbj85fi2QJxqpFdQWjn7DZMI+3g9j0GPGbmXb2ChAXn5j51KqN1U6vffOzMIakIeJNeMDsgYDzKSOx/jdsefWxgH36aElADi3OBOWXI/n2LE0uJRmvyzZr95PLnkZe1C4Bey57jMxuP5X+GM+VFDZc6bXB0tHpLXxllmZBSn6kmOdOtJSvMcByqc7joXhtnsMvQfS5Hm8npLwGFyDgJb2cpnqLFG+fTKchJoW2JF97CpWaVnPZ1LLFJNPkOLVKLUWt+lmV5071oYf6shSrPeQVEYVA1/Lp/qqSwCW8+qdVbntaEWnbMl+R7u2a97Nm3UU1GOsF2V4uvcQCFXLj1vWjJtJrqSS56Se7y++PpEuwZrRN6Yz7ODOSJpCra4yzLhmNU4Y/jbm8VrM1+vSBN/tiwlc0Qqv2lbfrLLtZG+jlkx+h4qechUzjx+aFTENe/5iIpCQvh3RaC8rfmM9fnb96U61tV1/nWL16E9mVl4VcWqVflapbrcodaJqHVZgDijrZNGcNaWcMYJMGIxnVCaKSjJ4ynV1FU5LLjSVLzRVjvWz9347Mdy3izPe6+ZjaqLZXCfN2pdYoPxX5XUnBHtBVLPRVuO/0KrT0lrwyS+Pj503jq5BwMI9VX4d+etBeLM0l+5T9PuLsnfbpbPedzLwc2rI6+jeYHvPh/E/Lw1MSgktgdeBSlpwYIZAEAYvOcTz0nND/9MIq5jHwTGlLwPwJmqptKZNooEuWVdRm978u2dN+as1PL6z5Sar76p8QCeHeKJezxO0jsadQjksV9lOk0pQbnjo6awk/vbD2p1VrieSjqow6wdZSxxd5WixwSTNivX5HULOwQtYuwEzFz1dRgml8yS0fzz3zFYbijcD2xYRUelmFlkV3vfJ2YnogIfGwuIkXUlb5qcvPYks1zZp36jQ7EW/1pv3t+jVkrzPvmn+2ZlnN6P32S+P1mJbXgWhXPHpEWtbHUp+t40/RxM9m/g37NwJVv0GeIKDSK+ULX72ZkPXz8r6daCBNEsWYOqdDWM6f/PB175ISOuVumr+GLJGSrf0u0SUXMAOXy4X8B4g8c/860z0EocnlQ+r402bW+4DltrDKS3cxJWbPZY/xaDiTlz5mKX7KyTKtEVLXC/kPJ3qrckrvv8Y0prQZIx0mfu7FMrF7wFqUzX45nza6w2aYtRAlgbZ2kt5WEYshKiW1neiTn1xY9ZNK113jCXEyKfV469Q/WTVC1FfSOwW+hv6VfTrfgdXp0Jxu9H58Yc2PK43dB9jVP6kkBYoxxkcdW3P4xkUiwHzcv8jcSKxatMyTiANN7PZTCcUktCDT/gVmv8nKNPZTLMbfd63O+eDoppBLCs0PcW2q9Sm9Xtlc57kvrohKrnY/coisGPTR/LSkWfuO/tk2VW6p4TV59RrpRVxnDa/Qfe3mBr6/Xb/WshOFZl3cqPrQ1lrXnVqWobLDui+9zXeq2OmIUvQYUfuJ7/T1MGKEKz8x0J8ShPfMvsqRKjEuveiv+06XmK946y/3yrMVdEGHyxeuekpe7y4BX/a4z3eXzFlIr/T2pr+vA+HpddZjdqtcBuT8n/LSb77HMxFI4j0FjgHzbzR2TeUnhgD0OS1JOdnqNy6mQ3qlbS1TembqZKZLVIHXzmUJXX4mZ3gkIBbIEeniufux2V4I9avYLTQpJXMuaiFVU+Z4Nwv1trlNsn3Mqln21d66i6kyn72gN9Wux5w6l7l91v7kgsf+4wtrXfcU4Zg0m6k39Q10ao736FUGj9+2e8JxSLDGLL1MbRQa1cJt9Y8r1zD1RUcUd8r9lD7ulYhkklOchNRUQollFX4C1hW2uhWw8uvB9l3o8fVpeY6L/mdn7mowrySUQksNWEUXc2j4lV62JYiZ4RnzI738iDo7jWRiNtcR6ZXUvuadevqfqdn/oa5nuusVqbs0Ac3/NLO0lInJL22u89rrv7RZ3UV6Mma0as07kg5OdfTSMP9PCVySmWQYe6Mj/R3dZeov3tHqcaGxEkRi3RzRUGWKHnN4IFZe7y4BXwu9jEqTWie2MNn5I/TGqjaiHFx3NqPNHAIJcfYhMNzp+TzLv2vMtpEB6eOpkHlKk64e926F7ls4udoTmjmkmDjLMmda7od0Xli5+sc+dmVqSH+eJ4uj+P6zqrU/u0giXaWIr7p+UqldDLb6JzoLHRITM4gDocrTJHeD03iWtN0PZM80Lk22wXcH7qd1fmz2U442jbVPbfZbcrk3x4+pMo2l5KQP5SWgLcHaQLVz1avpJ9xLtpbrLjLUSYE/vbCWXlmv/Owiub4Ut60f2aOmId6wFH95SqF2kyU2M8hNn37jkm9N5UdK/nCX7uWH8iXyr7xV86W3ar/0Vu0rb9WapJef/4xs+CJMMoyor5T3tU5PHJnjLZN77SGZ8bsrvUSehtJWkf7It1NgSPQJbzJdJSj8VBq9RE698o5HAsPT5VACTVAvHVx2GlKRmjWVqq/8hUW7ZAN9B0xDVLPu0foP6+RyR/M/rVI8ZvKVM77+z6+PV5mTi9dVVLCztl9YbFpOt0DLrtPUu8p8h/3cPF1s8JMdacgqVh/SKw1p6AAzA3d+I5fXF5+fRTrmsaF/QMOcJnl70lWOmY/wr9i+vhcsmYf0orPDFNZfiR/FF7AcnaT5ceUq887nrIp5QttUrRECbI1y1sF+fV1yQixqIerLuqvTVsU2Mru1J6YxUnc5JVjYeH9tNzfTSoaddW6yrUWaSmXPuqAT5Wiy203Sqg5LpCjQ3K2Wxnq3y5c9dgs1Md51efyOwBtoU/imlloaqByS5YhSav64cs2/kAWKa4m7TEh0qs2ItKPqa63Jz+z8yk3yc4PzWaLf6J7oDVT39WMsbvRpG00m1z0aqyjF161Jd+kUF3vPIdFdbxn7lzbVfokqpXRJL8281kGkuadcY36vg+aQ/mvmtW/Xue++Zuc+VgC610LP1q7lJnkG3G320gmuPKnjkasv65pAyxJBemj4snRn/ZRA09TJDhIQjDbKxZPU3+VPZZkcXySLLMRvwKTTPJHafGLijZ1u/+6MvtqR/b8+00tEna8+72SuIo3JM8/Zs11o2WPSNcX0U473T1e6O6Qs2Tt7ojfkDE1P32hycRWRRqnsTq+SlmWSBKZXmrl2n+xHbcCX9PJ6pp08BOH2xe3ynW475bawiywBS6QiMWGQMwd7wH0o+p8beJRzMSvsukWxLTaBODYQSAeBxR7IqB8EQAAEQAAEQAAElhCB5ubmhbcG0mvhmSdWYzpm3SgDBOKJDTukBgEQAAEQAAEQAIGMJgDpldHdm2zjIBpAIC0Ekh2AyAcCIAACIAACIAACGUgA0isDOzX1JqVl2o1CQCD1oYgSQAAEQAAEQAAEQCBjCEB6ZUxXprMh0AwgkBYC6RyUKAsEQAAEQAAEQAAEljkBSK9l3oHzY35apt0oBATmZ3iiVBAAARAAARAAARBYlgQgvZZlt8230dAMIJAWAvM9UFE+CIAACIAACIAACCwjApBey6izFs7UtEy7UQgILNyQRU0gAAIgAAIgAAIgsOQJQHot+S5aDAOhGUAgLQQWY/CiThAAARAAARAAARBYogQWR3qFXLf0oJrou/+gdyo9Za24UtIy7UYhILDirhw0GARAAARAAARAAAScCWSm9AoN3689ffjwp3enws5NxxlnApmuGV5WbMjO3lDxMtPbuejtcx5iOAMCIAACIAACIAACS5hAcOhpa+3np0tLjhYf3Ldv374DB48cO37y00utnSNBYXZwqOnskSNnm4ZkjDjj9JmB0mus48pnJQeLioqKz91bGtKr71TuhlM9ui5oKsjOPdWnO7O4cWmasr+s2PB6xYBbYbd3ZWdne6R5eeZ1zzTaOmjhhbc15xKRXq2F2dnZha2aUqxRAxWv+0xpzZmxx4s7jFE7CIAACIAACIAACCROIDRyv+b0MaImyLZv//4DdN/HIw4eLa9sHQpFo9GJe+eOFBUdOXdvwm8lmSW9wlNDdy6dPMy5LBXp1XNqQ3Z2drZNffH47IImS2/1ncolGZLZ0iTk0iMFqBTJztaKH16DD+lFZVJ2dvYurqGoEvNgw5RSWqQXra7wNm+LrV5hFWmPIb2EzbbkIqLwNlV04lB+Kqz0CWRKTeD1M0vOjWcZ2TgEARAAARAAARAAgSVNIDz25PInR/cVFe07cLSs4ouaq7cfPH78hO/3G2vPlR89sLeoaO+hjyvbhkbunSum3p50S6+poaExiyctPDU0MEb0XuJb1rTrlniBNEdo5H7d6SNCjy4lr1c0ylRWYYvStJYCMnkuUKOUsw5BTTkOKVOLTo/0EmrEZWmft/Qieub1ioHbhdnZWmnBpZHO4sSll91NR0WUoa9c3WWG9DKsIeaRlY0ko9Z+mdTaECK9FH8g5yCSW+ty5CMyLM5nasMQuUEABEAABEAABEBgIQlMddSUHdhXVHTkk5q7Qw6r50Jj7XWfHCkq2nvw6CfnK4rnw+sVGqotO1TR2KO+tWKqr+bk0c9v9jhY5UZpHqTXRHfTueOElLItntcrBbeVqxjrO00eUdKvXXQDnvC5dM7TmffG4cEqT+lFErC8VrHBbHTTQglKL1qU4l4jFVgrtSscxQBrYlLAEpRes5Ho7Jy1h2fDofCsNTL144RHHjKAAAiAAAiAAAiAwCIRGHtU+fHeoqLiM43dqujRWDPV3UhE176DBw7Oj/SqLysqKjpYeunugHB0TfXVlZO4E9X3rA4xjYGmqDRLr9BQW/WpYkVz8eDiSS9Ta00HTcTXZVthaErictBSmL0wz4alPudWS7i9S/HeqCficQ/pZREzFkeQkEZO3qREpBfXXZZnunSeKMtzX/MqvTSrCl2inDioyMOjz9tab955/DIcM6KjYy8e3LrZeq97Kt3qy2Uw4xQIgAAIgAAIgAAILCECwd66sv1F+46fvz8i5I6bdWP3vzi6l4qO9D/rFRqi0ouUfviTyx10nSGXXiTuyJnGznE32yzn0ii9QmPPGs4eO8DFlvljCUqvhLQT9XG5zLTNp0yrGS3AEz40ZuXzHHKXXuTshoqXrYWmB702VFSQl3M4blI++ZZeTHfZ9SHxcanPqlElptQrVhJq/HKuT2ppNZJO5tlNUpSeqWvs7jjTaXYQC/a1325pJtvNu0+4+oqOvWi/c5NGttxqH4raHGKagnxHJTzykAEEQAAEQAAEQAAEFoPA1JPKo0VFxZ+2Ogqv4FBTxZH9yraPLbibV+lF3vNR8vnNrqkJ5vXiaudg6cXb/X4UIkGZJukVnuprvVB6yKy3lKNFl14paiffywvpY2OZJ72Iy4toj5ethZY3BzpqKip4zNJLUUosaNFLcaqvtOshuXySr74gskeqJi4L6UNcDtKLGm991stUiCphrNJLPWeEnaSXkcItFAsNP7t3i4mv5ta7T18GDd3V3NJ6r2s86pY98XOLcedEnSAAAiAAAiAAAiCQIIHw1NMLR8nawbYxx5zBocZPihXlxYPFFTeN1807ZuYn/L3hUPF6MWmz72D5paZKsghR2Q590vDE14s3soKum5fN9Hxw5H7NqSPMzafYoAaXhvTy8yIN+myYTTtppZfOb7YkpRddKyh1D5VDVDbIKLfA6xUDNLF4v4XQOXzur0ovk2LRSC8pnFTdIAQMNVKqKTVFnGkqYqQogRQu3VDSPFGUWP3IhZ9ITMwTYo9WRNJra1QbQhvoBsjxnFZDqg2LhUc7pPq62XKT+buaW27d65pI93LDeNzXtYxEIAACIAACIAACILC4BEIjV04VFR3+tHnYryspOXuTlF5M4diFz76Sz5u7PF+8kTXlunm3ZKz7+mcfkxc7um6QXt4kHVKoc/VUw2Y5ZCmNagypZ5STRBQJzROPx4WSYSnSI71UWaXUzIO0xsJdxN/G3mpPKhVSkL1+Q0qppLxebDWjRUMpTbabRGIUpadP4CM2Fh59LtUXWWnYcute92T6dVcc0svh+kI0CIAACIAACIDA0iLAnqQ6cu6us9MrLQanJL30wudgWXW7u9stZek10dX82RF97UospFfSQ8TH/N13kuSkl2vx6ZFebg4i/uiU4Ymi/jG5lFGRgooWUtMIrSgEm3R2yQCVXlLLsXchCpnHW08LtIgzp0OtJ82RYvTlI7HukCivxy+Vl244ZkriRNIjEBlBAARAAARAAARAYOEITPXVlNF3FSYkvUJjXa3Xbz5zfDrMbv88SK+iokNltU/cXsmYsvSKRqOhscc15e6Or6UhvZymyrb4DFtwKOfpyUovKntslKg4mXfpNXC7cFfFS0MOUX216zZVXOQNh4oB7tKLS7g4e5cjEVqO0ksCMwJUenlrKp/JRLmzk32P7rTS92rIP613Hver7zwUaVP9tN9xEAMCIAACIAACIAACS45AaORKecILDkPDzWcPFu0/fc2/9kq79DpYeqG1z013kddsuK439MhsdFU4NHTr/DHz//JSnF5FS0N6pfdZL+1TYUvyWS85aU9WeskCZIAIHuqqUpQP/cdZ0llkrktNJguhAUUvmU9YjrjXi2gbvhTQEITcYaUURSWQ6VmvM8rjYdQ2JiWpmrJ6vSxVk0NaoF19amO8FRqtYHbK0F0tN1uaW262irdu3HmSfvVlXK0IgQAIgAAIgAAIgMCSJeDnNRs248faK0uKik5c8n7aSmZNXnoVl5ceU4UOCRefuf501PvhtDRJL9qIqY7r5D+a6bZMlF5EZW043Sf7jwZWhvRShI2qqaQeI8oiZellKs3weplkEVVf8vk0F+lFJZKypJCWspher1h4+Mld8V6N2+3907H4XHTixQP+wvnm1rvPhvFyefPFhSMQAAEQAAEQAIEVQcD75fIWDKGx258WFxWVVLou9rNkSk56kVfJd3XSf6ksNc/BslqPR7xk1VbpNSk25g2T6XwGQgO3L544KA2RgaUhvbQuCl2knwWH9D8yZ1tTZq70Gqh4XUgXq9zibiiqfESa9Egv4zWGZpca118Wb5WL9JLyTFVurtKrtZC/sYPlSLvXKxYeedbW2tzccvthf0g83jUXnegm6uvmrQcv0v2SQ5+XMJKBAAiAAAiAAAiAwCITCPbWl+0v2nu80ue/VH5aXbavaP8n14eCCRiehPQ6cqaxayIaVf6lctFe+p++wn7rzRJSS//ptxg13VTXzXPWF28sDemVzgWH5M3yYitoku1fTtLr5ZnXjZdVsCegFKmjahTyOr8zr5OXu7fypXdyTZ0hw7g4ES8G9PJ6kYxEpyl6yVQljRdrC4UBonCa0uzyMr9yUPHLMREo+sr66bjgkNivCDZaoGy1yVL1wGcyliUWHunqsq4snJud6unqmYeXHMoxigAIgAAIgAAIgAAILHECY48qP95bVHTkTGO3xwNQU92NZ44UFR0ob+j0SGlpcmLSa9/B8rrH/F93Sel1uLz+ka9/5yWrngfpxV68UVd+UHn0a7lLL8mLBZR/80Wf+CLzeT+6zlKMr0N1Yp9q2JBD1F/EpJQolIooRWyIePlJpU5h4S7l/2vJc1y5MWGjKcRQaNQGruJIdlfppbz5kNXOXi5P8tFyHLWQVXppTHJ/zYa1OlqgVbc5HDtapeBa+KCv0YZEIAACIAACIAACILAUCISnOmrKDuwrKjrySd39If1DVOHQUFvNycNFRfuKK5p69Gmc25KA9Npb8nlrT0i6tqb66k6S5Y13BxKtM5o1Yd6k84tFO1vrdSYcGrpTWSLUVyZJL6q7shVPVzQapc4uoidavLgkfD6dc3QmVzYQ/5XJpUPr8JRe/B19T9gAACAASURBVN2A2bp/Q2yIOuatov4xw3QeSapV1BQ9b/Vu8Uw2ZWXWQlQ6Wosy6mNvxTC9ZmNAOcuDpGonrxehoZbv053lM5ndlvmPSXjkIQMIgAAIgAAIgAAILCKB8NiTy58c3VdUtPdASUVN44OeMbmeMDjW/6j5UkUJ8fTsPfLJ9a6ENVA06ld6Xam69MTs2prquXLx8tPxZNDopZeUY8kUqeSZ6mw8Q1+8sTSkl4OTwh7tpKB6Tm2g6uFUj9JIGWRPf2Vv0J+VyRIMpHFOTtULaYDWLeNHesXjRPNYsrNibWsXlWTMZSQfA7M0ycmhpCof02s2vHSX8Ikp0svexzyGtoXKP1N1tIpdtxN6saG9DpWJpdELf5jguENyEAABEAABEAABEFh0AqGR9stnjx/i74/Yt3//AbpL707ZuWvPE1tnKJvkT3rJ5OkJaKSX1F0TExOpVxIaunvpxMHiz+5NSSdd6oUmXgJ1VflZE6h9ZXyUebrIskLjsS69EfwZMCfxps/kFpu+ObpdYJjK9ie92Eo/uX6PShT1mShRJNNjFpEmTibzKb1eVn+UURhzoAkFJKUUcaBJg43UyoJD7bvjTc+VqdmWadhtkOEcCIAACIAACIAACCxhAmOdzZfOlB0/drSYSK/ioyXHT56rvdnh/594adq2JKSXqrvSIr1IQyc6mm8+XVzppeHtKyqplYTUOWZ777yv+uyJluBEn4gf8U+N6asy9DZSsaTVPPr0iJ1XAvahhRgQAAEQAAEQAAEQWLEEFkd6jbtuK7Yzlk7D53U6jsJXDoGlM6RhCQiAAAiAAAiAAAgsOgFIr0XvgqVowMrRBmjpvBJYioMbNoEACIAACIAACIDAIhFYHOk15rotEgpUaxCY1+k4Cl85BIwhhRAIgAAIgAAIgAAIrHgCS0V6jY6OSjm24jtl8QGsHG2Als4rgcUfyrAABEAABEAABEAABJYMgSUhvUbFxtTXkoGzcg2Z1+k4Cl85BFbuJYSWgwAIgAAIgAAIgICNwOJILyG19J82IxGx0ARWjjZAS+eVwEIPXNQHAiAAAiAAAiAAAkuYwOJIrxHXbQnjWimmzet0HIWvHAIr5YJBO0EABEAABEAABEDABwFILx+QVl6SlaMN0NJ5JbDyLh20GARAAARAAARAAAQcCUB6OaJZsSf+GRsIpInAir2I0HAQAAEQAAEQAAEQsBNYHOk17LrZrUTMQhJI06wbxYDAPy/kuEVdIAACIAACIAACILDECUB6LfEOWgTzoBhAIF0EFmH4okoQAAEQAAEQAAEQWKoElqL0asMGAiAAAiAAAiAAAiAAAiAAAiCQMoGsl65bW1vbvD76j8JBAARAAARAAARAAARAAARAYCUQ8JZec3SLx+MsMDc3hzCYYAxgDGAMYAxgDGAMYAxgDGAMYAxgDCQ0BrylFwOKvyAAAiAAAiAAAiAAAiAAAiAAAkkTyBpy3dra2piSw18QAAEQAAEQAAEQAAEQAAEQAIGkCUB6JY0OGUEABEAABEAABEAABEAABEDALwFv6RXDBgIgAAIgAAIgAAIgAAIgAAIgkBqBrEHXjS04jMVic3Nz+AsCIAACIAACIAACIAACIAACIJAcAW/pFYvFZmdn8RcEQAAEQAAEQAAEQAAEQAAEQCBpAlkD5k36wFh0W1tbal415AYBEAABEAABEAABEAABEAABEIhl3bvT4rK3tbXNYgMBEAABEAABEAABEAABEAABEEiNQFbYdYP0Sg0vcoMACIAACIAACIAACIAACIAAIeAtvWboNjs7ywIzMzMIgwnGAMYAxgDGAMYAxgDGAMYAxgDGAMZAQmPAW3oxoPgLAiAAAiAAAiAAAiAAAiAAAiCQNAFv6cWUHP6CAAiAAAiAAAiAAAiAAAiAAAgkTQDSK2l0yAgCIAACIAACIAACIAACIAACfgl4S69oAlvPhe0Bsh255Z6p89P89z86fa1j2D2Z/ex0962zB95//8itcfVcuL3s/U3bPjp97enAdFg9wcLDDQd2Hvi0pn1Qnhpurzp94FdbNv2qRmvBdH9z2fadX3TL9DJwq5i2z7GBT7/Y+cH7739Qcms6Go1Ojw87b6MkRbS/oYikf7+ofkDWEY1GeyrzaT3FLhxvlb6f/1HxhbsD1jrGacm0uLZTmsLVirzDUz1tLc3Nfve2ninvIpECBEAABEAABEAABEAABFYgAW/pNTMzE41G2V8GSI0xx/dK6WWON0og8eG2si1EWWz7tCsavXWEiRnd3/zKHks54y3FNGtg5/kuoTDGbx1lcYGdtvTE8pe1O0nhW8raeP/OzMy0lbIsW8ruEdvYxuqaCd0re49a815JGxUSPJ5wENZSbanEMz7DDR/xZlBLhE7TNS2wvaonGo32XmAaS7aUlSmkF6lGrUWxs50y3HakmBWg1HH01vBTIpaevuTm5l/oNSxXEorgkVu3uaIUMeTzyG3aa31VtgrUVJZwflWfjWcC48c8Tiz9gnIUAmxUKOPBaZwg3kQA3BzuJyZKGFcYJxgnKgGMB5UG7g8YDxgPKoEkxoO39BITYOvndHebzRlSU/wBnYt/eNp2qrmtm2ul4foPSaItxbeIsHHTJ/mVRJ7QbbqnjfleGkp+TnK/v++LhkYaU3mAC6+flzQw50xbj1BlJGvnp9todWVtqkOs8yyJ3bytqLaT16B8SIG3xeJek9bq3HrTt6ks3EgJBLYU376mETTsZCAQ2H7BIr2U+nVer+GeAdXTxzTblrIG7h+T5RKXIxOIxbeF9CIYXTgXa6VX8W1qEReHVL4JAcdPMcHGUJiTqW1BGARAAARAAARAAARAAARAIBqNJi+9hGdGmfS7BrmOCrczn9KB6+PRpxfKPm1+2j987SDNefAaWzvXU021WWBL2X3ZR2Ipo2sV/CRTNTxr51kq1bZ92ik8Vs5FGIJq/NoBkuz9fTWdqoyTAsZIKSwU7dpZ1dNznjqKthQ3S7F0n/qotpS1i+T8U/F6qWcEW7HgcPxW8XuBwKadZx/zEnkCagYPHxdOPUUgsSYrCjYapXqp+DZRYka8aWlk+9lfkLabpVdg0/tk7eKWTeTUpvdI+P332MEWEn6fhgNcoaltQRgEQAAEQAAEQAAEQAAEQIBIr5Dr1tbWFnHYuu3+FmdREyAT/e5IJNL9BZUl2y90R8TyvL1XG9iiw8NNtKpuvmrxo4Zho2oeuWXn/pLjJWz/kGqqwJad+0XM/p3UAUYKF5tY2/j5i0iry9JGZvmRVpEtEulpvdqu1M9PtIpnvZSU5FSw7Tit+uenrl672jbcfYGucQz8Yg+39iPmeTNMLWl4TvL1yAWHhsmEknjWi1Qz9uQMKy0QCGwtawtGIpHhml8RixnSpsMkvK2inQnXsUne0uJbPMCSDd/5nBhDLdn20YfbAoQciTnXZm4nR118i7Z5uO1zgZe35TjJS7affyhieI+UHP/cUhbHhg8QAAEQAAEQAAEQAAEQWPEEkpdeVnQhoTfYvHznhe6QNUmkr2YnXY+39cOSkoNMJ+UbomhLWVsoEuFiaVPxtX6iJcaI1IhEuB5gKoKVy6WUIrS4YjFixq7uZ9bkX+iJBMesL6Rgx/19tCKjLrPZzxoUgaFVHZ+3vWjYQ+rZkl+wlXwcbxt78Xn+e3tK9pND/cZknpBegc1bt37A9z31/Yb0Cj7/XOquX5S1jVHbRC5K48kZtshTVJNf2c3IWKSXKFOkk58GLtZwVXoNt52TskoGtBDEWauQM8PEEQiAAAiAAAiAAAiAAAisVAIJSK9wOCwp2cPdlVIi8En9zvMvrOlDrcX8USieZlvFk4h0f5E3YUiHj1AGR1ppXVwPiFjXz+3UvxaJRJ6f4f6ZAJFe4fDL1rP7d763af+NoGJ/f+XOwKb3du4/1dQdiYRNAqWYOJ1cHpLiVuRf6Ak2HQxsKXsQGWr4kDRw25mOcCQk2vJBcU1zUxPdG5uq+eNwrF1CRKntyT//QliRv1NA3fSrCx1TnP9z+pwa93qxNm7ctPWDrWw1oCG9WsNMg+VXdofDrGX7r14hYrT4GtGk2yrarx4kT511R4afNDc1NjVSI/kDe9TrlQh21obtF164jhM2JBT+EYTBBGMAYwBjAGMAYwBjAGMAY2AljIEEpBcbENq/Y7fYiwe3bGGvvPj5NrbArvgWc9MYmZ7Ul5ScrTlF18sFfn7mCfGMKfP7g01PLOsY+SJAkUbxDjGlEaCqg7uMNtPpP3fjSJcXESkXesg6Pf4GwoNNzJVGzJoUjrFf1ZB1dyYtRKVX2ynpj9r6Aa8zsGmLErmnoS8SGervp16+9qqSmvvD3FXH2kLsaTtFnFp7GvpEQ3x5vbgi23q8aVi6ECdb+Use6YJDLsNoaUxo7azqd/Z6FTc1k4e8LvSQlZNcpBHzxEJKRQLyBYeRSGToCdON4u8p9ihe4MNTIoYLyydDRkcjBAIgAAIgAAIgAAIgAAIgoBLImnbd2trawp5bVyVbRrit4urn/P96NT6poOJr484zj0YtBYxy7bDtzBN25m6J4QrbWT1IIye4Itpd95Iev6ikJeeffyFLu8me3dpeKaNesPdbsJiOz4XLi/mHSL6XdbupuNh/dUIUc4+/Zp5XND01+vLlS+oaCgSKb4pU4vOmeNbLcqavfq+xYpCrsr31dw17WMb8ym7ekMARWoJ0byntCofDvCHE1k07z3dMierJ58t61gbSqopKJsO2lT8YDfcxv2Nxa5iRkQEGjZZZfKZiayCwu/4lsWfLx3cbjwQCBBdv16atRitO3RW1anSZItGUYDHxUGIDARAAARAAARAAARAAARDQEEhVek11fM50V2Bn5YtpRVdMv+ArEDduK72rqK+XjcXvktn6tvK7L57cbWzpeNnLEu4u+ZhopS1lD8Lh8NQN9pAWWytHxAiTXuTNEB+XsH23fM2GiBGv2WBijCi6Ldvz6eNWohyhW4SiCz8hUiQQCChiLBwOc7HhX3qJhis6JLC98qaUXlxJJiq9tpXeZspT7bkHpVu27P41YZV/cL+Ul1v27KEvMNlZ2esivahb8oMzT4ROI/Ya0ktQUmszaGwrberoeKrbm0qZGZBeFnI4BAEQAAEQAAEQAAEQAAFJwJf0CoVC4XDY/nfoVuk25rDauLPyRUgKJOYuCo3eZCorENiy5/zjUVJCx+f0xeWGQtle+eJ2CTncWHJnoJo82bSxsLLrxTnmPdtV/ZLXq9M2RinmEPV6hUKTVw/urrvD1vwRUUHtf1n3a5r418SbFgp1nGH6bf/VSbWNrfSlgYHDN62tNrxeZhqTL+42NjaxvXI/1ZZbjtx8LKUX927lV77oYhoycOQmKcHwenWphIXXq/imsGqqq6NjdJKmGao/W3+Hlpx//nHjwa2Hz4heCAQCeaUPwtyHdbg1xNxf+edfhEIhVubug8W7P+8g5Yx3PWg6RRxo2yu7QtIpp+nlEKdhhqw7OtyqHydmVkgDAiAAAiAAAiAAAiAAAiuRgC/pxYQam0DzcHDowdmd7H85BQy/lhBIdDUdSS/WIpKVc9tL774M3z3B/wEyfadf/u7Td24yv9Ov64dCkzeP0LObWMFbSumaN1rvlKJtuMihuiEQ+KC4mmseIX7udLEVelMTU6EXFukl1/Ltrn/JXz1BfF43+Jo+3kbu9SLSK/zybn1Tn2i7Ib2sTKb7rpypezEdDt9lKxiJ2OMKanvlC76scXfdkJv0kmVapJdcgrjp5yWNL8Ph6XAXl14vwhNTk6HQVMfn1OUVyDtxJxzmXi+t9Nr265JjHx8TnsPdxFul8Xo9qS6/8qRfMOHSa2vxJUHYAvxSMXMdMq+XYEVag7DsUxYAE3DAGMAYwBjAGMAYwBjAGFixY8Bbeun/71ewq7KQOT7yDhfTN6vr3CCBQP6pyxWF1DOWV3xzNBQK9XV1DI1OBmWpjyvou9Hzz3eRqIG63fK5r/1XSPpQKDTedccy16eHQnodtkovcvZO1zjNK6UXcfwoMZvyjrVMMgET2Li/kSUWSYSfZ8+p83u2bgwEPr4jztxk7rAAcUep2+T9Mqo+Co8dpv66vOKbk6EQL397ZSN/1eIeQ3qxErh5Ad580tjerj5hWOCwrOZ+WR4FvP8KNVVILwotFAq1ldLTeaXUUiYQifSij6axwrkx9m6iXi/arvxKTok1M6+0jbZReL3UJ8GUt4xs3bqVa/DDrSoThEEABEAABEAABEAABEAABAwCWUHXra2Nzb6NDEZo9ObhrdtK74wKoWKf1NP3W7wITXZU79lb2RUMhYKTo0O9j281Xjl/6tih3fkf5B07wTTDtoqOUCg02Xt5P1MYZOncwSu9TKEJfaKtwCFSqAi79AoNdTzupdpPOKAONk4araIhITZ44UYCJ+kVCo3ePEzXGdIshdUDRomTHeeY+CSnNuWXNvUa50TT8j+7/7ip8vCuvE0BIsOETOJCKxSa5C/++KDiMc1skl6y6l3VQ/Ts0GPinno8oJFe+y8PKRst1S69uFW761hxnEZe4cFjxz7W7QcLWa9Behk9ixAIgAAIgAAIgAAIgAAImAlkTblubW1tbm9AnKInJ0YG+Xavgj3KdeCyiBmZYGlYKd3nuatMCibm49p1qWfw3vm9bNmaPBcIbN1z/u7gRHfdHvHvhlVnC5Ep5Nkw8i+tbPueum5aJRcx+ee7ntVZZMMhLhi27jbkRN0TkmuwVr5EMLB176VnE8z66enpFuH1apFRRqDzPJdYvzj3jLV6aqLz8mHiNyN2bt0q2rf10OUelqDznHxPBk1E/mz95FHnF2z9YGDbx5duNN64UX2MP1N36AarjiXI/6JzeuROKX98blvFI27LYOeznsHBwe6WUvokG0k2Pc2ybHpXZUURbj/fyduVd/gKyffoM1p7Xuk9Vh7Xm3mFBwxQJg12QEivmwYMhEAABEAABEAABEAABEAABFQC3tIrFApNT0/7+9t1nr0eo7jFIf2dY1SHbHp3a/6vDx/by3RH3uEv+KJEqjwOX+kbavlYyJR3S+9N6WtvYS96306WKjpaKKRX5QvhsJISRxc4fHM6FJq8c4J6cTZuO9bUay5ZSi8iMuxtHG09zPw/eQcu9z6t3i0aEdhUWNE+Egr2Xj4korYevjE4/fgTcciM2bxtd3n1ve4JJ0fi/uuTrF4uvc5cKhUFFH7RKe1RpSN9eyPJJTxptmZvr+ycvsecj6ZzBxsn7pQTTfsuX0/oueCQ6bryOxoy0jYtN5wFARAAARAAARAAARAAgYwn4C29pqeng8Ggv7+d539JZ+/FzQ7pxwd7B4fHZWkjzcV5gX2Xh4PBTvKeiE35J25087Pjz6r3bN1IPDlOtZN/DhwIBH55vtPFQi44tp/velZbcvTYx8eOuv6tfUxtm3xYsWvf5R5pp7ShWXq9nKzqvrIvLxDYVnp7cIq2LhDYtOuTe4OyBNKuvEAgr7hlOBic7mfPtm3a+uvyy48Gxw3OI7dPbt8kH3sLBDa9m7/vi4cjoqWdXxCNu/2LzpH2isKNmwq/eKbknQ7eZdqR4Nm0+3znFKmdqbXDN6UlQe7E236+MxgcuVkqntiiuT7YV9c5HbxNpZfGqai6zqzh8tt2bogBARAAARAAARAAARAAgZVOwJf0Ut1kruGJzjs3yAK5R4OuyZSTU4ODI/Rwqqez21jYx1NM2GKUrIOPaF13Ot0SjXXeabxxo/FO55iSM/ng4CNSmkcDezp7uElTPc+eaFCMtN/rFOswO2/deKZJ4mXiGFnkOUIbNTGmATDxcnBwxBzPspji6FLRl6Yor4pxHgRAAARAAARAAARAAARAIBkC3tLL9TUcOAkCIAACIAACIAACIAACIAACIOBNwCq9JsXG3r7R1tbmXQZSgAAIgAAIgAAIgAAIgAAIgAAIuBLIElJL/8mk19TUVDAYxF8QAAEQAAEQAAEQAAEQAAEQAIHkCPiSXky8sQrsQg7x4KOOCowHjAeMB5UAxoNKA/cHjAeMB5UAxoNKA/cHjIeVMB6yJsybdH6x6La2Ntf/+4WTIAACIAACIAACIAACIAACIAAC3gT00kvKMUgvb4RIAQIgAAIgAAIgAAIgAAIgAAJeBDTSS+quiYmJtrY26QdDAARAAARAAARAAARAAARAAARAIDkCVuml6i4mvaampiYnJ/EXBEAABEAABEAABEAABEAABEAgaQJZ464bvF7JKVrkAgEQAAEQAAEQAAEQAAEQAAGVAKSXSgNhEAABEAABEAABEAABEAABEJgXAlljrltbW5tlCSIOQQAEQAAEQAAEQAAEQAAEQAAEEiWgkV6jo6NSjknpNTk5qS0a8QwLOICDeoFgPGA8YDyoBDAeVBq4P2A8YDyoBDAeVBq4P2T8eLBKr1GxMfXVhg0EQAAEQAAEQAAEQAAEQAAEQCBlAllCauk/29ra1H8sjTAIgAAIgAAIgAAIgAAIgAAIgEASBLJGXDdIrySYIgsIgAAIgAAIgAAIgAAIgAAIWAikQXqNjQWrqkKFhZFt2yJf+tLcW29FF2V/5515rPeHP4xWVITPnw8PD1sA4hAEQAAEQAAEQAAEQAAEQAAEvAmkKr0ePpz+yldira2dly61VlfXVmXodulS7fXrze+997Ktbfro0bAn146OjqamppqamgzlkbHNqqmpaWpq6ujo8OxiJAABEAABEAABEAABEACBhAhkDbtu7gsO338/eunSSHV1c0tLy8DAQCQSiWfoFolEBgYGWlpaGhoaf/jDYHt7yIny4ODgjRs3Mh5IhvZzXHb0jRs3BgcHnXoZ8SAAAiAAAiAAAiAAAiCQKIHkpVdLS6i19WV1dV1XV9fcitm6urpqa2v/x/8IV1dr1Nfg4GBtbe2KApKpPc86Guor0RsK0oMACIAACIAACIAACDgRSFJ6TUwE//RPZ2trG1egzOjq6rp69caRI+GBgWkL1uvXr69AIBmsvq5fv27pYhyCAAiAAAiAAAiAAAiAQHIEsl66bk4LDg8ejNTVvWhpaYmtyK2lpeVXvxp88sQkvTo6OlYskEwdBS0tLXjuK7k7C3KBAAiAAAiAAAiAAAhYCCQpvUpKwpWVrf39/bFYbHZ2Vs68V0i4v7+/rq7lzTejKs2mpiYGZGUyycgx0NfX19TUpPYywiAAAiAAAiAAAiAAAiCQHIEkpdff/d1MdXVNMBicnZ2dEdvKCQeDwerq2pIS06sOa2oIkJmZmZXDgfV8Brc3GAyybk3u6kIuEAABEAABEAABEAABEJAEsoZcN6cFh+fPh6uqqoTmWomfVVVVX/taTHIMBoMrHEimDoKqqiq1lxEGARAAARAAARAAARAAgeQIJCm9vva1WFVVVXQFb1VVVefPm7xeKxxIpo4FSK/k7izIBQIgAAIgAAIgAAIgYCGQpPRiXq9MnW37aZfW6+UnI9IsLwJJSq+avHhWVowsQcW2XAhUx7Ky4purl4u5sBMEQAAEQAAEQGDZEcgadN2cFhwyr1fEdSs9/fiv/qH6a//r6v/zvat/ve7K36678jevXf7r1y5/6weXX/1Bw6s/aPjW9+Ve/63vk/2b36v+g//VkP2dq3/8neri0keuxS/ySa3Xy92mzAbi3vble9ZJes1sdlVWPqRX9NA341nfnH3Ebxozm7Pirx4y3tzy6NBcVtbcoWfL7p7iZXB1LCtvxi3Rs9lXs+IeaYIEl1caXSW0cJWzkSgB6WXpO6MMe4iMBKOX7ectMbRdWfEsuevy+hhdlmJ1h7446zIiDgRAAARAAARAIEkCSUov5vVyn08Xf9LxzdebXvuo45elnSVnO8o+6yz9rOv4Z50ln3Ue/bTzyNnOY2c7Sz7tPP5p5wmyPz9+tuPwqYeBogd/nnfv9/6xcU95p3v5i3tW6/VyNymzgbi3ffmedZBedJoupBGdiMu5smtAcapYpu+JSy9ugzJNd6jarjQeHZqzRTq2wn9KQzBYLTEcgFQ2mESm9d7lRxKY+JPX2xAl5r4zDZMe6cU7i7XFVq9JMFull1evKSOEgnk2U2OV37SxVL5Sfe7acJ1yY8BZXmt11s7AMQiAAAiAAAiAQBoJZA2Yt0GxsWh3r1fYddtT0f3nb7d/2DTdPBQNRsKxubnZuXh4Lh6MxSdn4xPR+NRMfHo2HonFZ2Lx2Fx8JhYbC05+cmfoe0df/Ocf3i841eta/CKf1Hq93G3KbCDubV++Zx2kVzAYZArBwTHlwy+RHunlNXW2Kjp68xAqy+R9stjD7jLO2ZW8pLGWQ2XGT6f4hvQib40kqzGdl/b5kF6sRnvJ4taoNZueTEJ62d10RD4p+oqqKaeOIKYqNIKWvMLiBD5pE1h1zgRIeWrVTGjZVKKrbJNSVuncBOxEUhAAARAAARAAASsBq/QyC7EBJ+nFvF7u8+m9Z3v+4p1HOy9P3egOTU4GY7Oxmdn4dCQ+GYqPBuPDk/HhifjIZHw8GJ+ajoej8Uh0dmR0rKyx73/t7/idHz3YcXqpSy/7Gw5XMhD3ti/C2WuFOTmFjdaKO0+tz8k92WmNdj52ll5MfeXNPiJOCeqIkFNVp4A6BQ9apI5VLdC5sjK/t166QTqJ9zV1trmtSFlM/yiSidpjnWRbraJWWFMyISQNVGf8wWBQJw9oCU7qy1N6KdrDUhe3wUULJSq9aFEmoWWWNPoGKgZYLUxZeqk81bDkLwPWquUJ3inO6ldJiSAIgAAIgAAIgED6CGTdu9PisjtJL/asV4hu09PTLBAKhdTw3jPd33zn0Y76yWud0xMTwdnZWHQmHgzHJ6bjo5Pxl+PxwdH4wGh8aIxosAkiwGYHB0dPNg5+r7j3qz97+qszA67lPy9fn5Oz44ZrGpM9qm0dZbk5OYUssxrvP6z1emk5yDL3ne1JBciuin6H8jvK1+eWd5KTsi4j3Fmem5Oz44q+j6anp2/skHFQAwAAIABJREFUyMlZX/5cm5fWZymTpKfYTfHPy3NznG0Q5Twvy/WsyzON777jI8Rk5/R1IsiuOrASdtJPnsZVejlfiGTW6/owWDBN0svJ2SJM02onfrImL775UJQ/bKbXJNrsXDgl4kIxeb1I9c9mX7XKPGGyl/QyKwqrDhSq0lYjK17fTHpO0UvcFBpj8lmRExYm1ACTqOaqmHWN2Vp2ylVR87qdPky1Jyu9SCG2djnViHgQAAEQAAEQAIF0Ecgad92cpBfzerFJrdPfojMv/vvm9h31wWtdxOtFpNdsPBiJT07Hxybjw+NEd/WNxPuG4/2jRH2NTc729Y+cah557fjw197q/PDTIaeSaTyRAIVXQ9Nk0u+8FVyXIkQpzTQpV+K5dPETo33WS1eXUebes92pANl9dtCh/A6iQqny0VhO+TDppTlLpYjMS2SPy7bjBpdqdqpMej0nAk9XC4snduaWdZCes26F16mAn56etkgvWhrJkVv2nJXMpJdM71bj8w4pKblVxE6jLre8wp70Sy86XbZ4q2I11gk9cxapc3Tbiz2YMHDysCnxWq+X+RZC5+IarWia6IssGrVDTtmlC83gLg9Emcqnu/SiZzdXRw99U8IhRm4+RF/OobTapAylNPIvvRhemz5k3acgZeiMDiWKS0Ghk15GYpORTsar719RStY73BSQ1qrFKdoEQo8kcK6UnfLS9qJQfIIACIAACIAACHgTSFJ6Ma9XMBicnp52+kul10MqvcKTwenZWGw2Fo/MxKdD8ckgVV8T8cGxeP8IEWBD4/GR8dnevtHy5pEffDz8Xzd27j476FQyib9CnC/Xp6eDHSdzc3JPdmgsuV6Qk1NwnVp4XTPbt87+Lcf6MmV7tV4veVZreepAXMonjc3Zcd3eI4RPzo4rGj7T09PPSokb6nopSWLNK9SUpS0KVaVM515QbCa9IC3RlxMMEmW1/mSHMq6o1qJ9TVtHbLZbK9JTDpauZIe55c9pe20nd1xxHMPsP2VbLyNVO716KKoeek5krQv8pCTwkF7c0TQv82CmMRyW/5laZ9MhJjRmVWA6ldCBq/QiaoGYYfM1OWoqc0pWuE1vWPQSa7WONu8IQ3qRVgsPGy3cUpRV/5D0UjQmxCXIW630FLVT1G4rzFo1S+CKV5bBVZkxPuUZBEAABEAABEAABJImkKT0Yl4vy6RcmWSTSfneMy/+4p2HBfXT115EpqZDsVhsbi4+G4tHo/HpMPV9BYmza3CMuL8Gx+JDY7O9feMnm0e/f3z4v77VufvsgEv5xsTdedJvpDEJkmfER8QlmSIeTGm847VeLwsBi/2pA3Et3yRsjJRu0qvjJHVDBYNBOyu7BGJl2lOSeG0vXNlh4szUMudMeiG39Jm0kxUb1EgvKpuV/nKXXhbmsnwaT4rKLevgabQ2Cwkny3Hxemk9Qv4vRbMksD4tFjtkvFzelNKkhWwSwkP7fXO2nhQrfB1UStVUxzb7FwMO0sUoUxZuC2yuNrtZ2LReCD/vEvJmTO+okDqHIaeHQhGpXWOix16OIpKZO0tIR6o6HPSMsFaUQAuXilTKKlGU5V0XpD6Zxly5ryNRu9SE3oPBpp1o69y1H21Ucu/u99UMJAIBEAABEACBFUsgSenFvF5TrltRRdc3qfS63h0Jhoj0isfn4vG5WGwuOjMXisxNhecmpudGJ+dejpN9aHSmt2+8vHns+8dHvvZ25+6z/c7FXyvIyT35jJ5/Rr1eLGzOcC0/Jyf/mjluaupyQY7Maz2XwLHW6+Wefz6BONdM+OQUXNYlICgKBKBr5EBJpqc3NaWPt/cCKTxHKd+c0ZZeFvuUOOJOPhX2knifm9LX1/JzcktpGc9O5sp4ZpI8JDbI5ov6bJ8LKr3EhJ7cj+iseu7QM1VFpPE+RZfJSc2QloIVveFVnlkOWVI7u2Vq8tS30ptlT5qkV5a6us9iGHO15cWM/8BGKjVkjKHZFBQkUtU/yUsv0t5Xv0mUs1l6GSrRMIBabq1avF3Dze3G4LtBsELBMQiAAAiAAAiAgG8CSUov5vWyTVNNEUxp7KgPNfZEwpHpubmZeDzG9rnYbGx2ZnZmJhKemZ6emZyKTkxGx8ZCg/3Dp5tHfnB85A9cpReZnUv5ZJvESyPkbF7GTE09Pbme6jGSy2XzNSO3v+FQqUgTnD8gmspkFG2pqqnEGYIit/TayfVCcV0uyMm/5ih1hBzSUZ2asvQCFTlc/LD6GHAhe2gPGvwLLhvCzCS9aDkW42letw5iw6PgMpNe1wpIM59OTRG5XpCv6LrLBarGE1isn36ll7f/QS5L41enRX5YJZYo0JjZW65qkUC4sGxeJsOPpE79eSkm6UWn7G7lqJqQFeCZxajd2nCxcE5jFS3bWXpZCJgO0yS9pKoxFU4PKHDTU3lmbaNIwXmQXqT2b84+Ukq2W0g7xVBi1gRCVjlLL9oERdpZS8AxCIAACIAACIBASgSSlF7M6zXpuu070/WXeQ+314UvPIk+Hgg9GYw8How+Gog8HIi094Ue9E7f755u6wrefh5s7Zhq7ZhsfTre9GBwX8Po9z6e+PrbnR+e7Xco/ir1p6wve0bPPysj75hw2vKvqoU8PbE+J0dkVE+I8FXqY1l/4qmIcPzUer0cU9MT8wPkadk60fh1ZU8nJ2kbRYzD5/oTT0kymn6ygbi7JCZCwAxtkpXJEk9OMkSmgteVPSW9wMFqIXOreMnEZg5ZZJT1GoaxntUaoxhsZU6aY+5iWk5BfgFpl9JYWaO1BPNxQtLLUSbp5sRMes29yt81p5VejgUKt5h5nk3n1mbxYBF48m5hkl4ubwVkAs9cJilE1yJZuBFwSOZkFc3oJr2o2TaRSZThgkgvykH0FPdfibaoBigCiRBQRKbQb0J/2tqiSFYihqXorcmjg0Ep2aAsQg602Wne49QAp3FF25JeX6iwDZ8gAAIgAAIgAALBYJLSi3m9zHNU69GBs12vbnm4tTp86ObsqdbIyZbwiaZQSWPo2PXpI9emDl+ZPHR54kD9xL7aiaKa8aKasaKakX+7+PLtz6a+c2T66293ffSpXnrxSbycXou5O61emdMzkaBO3NlUXkgIq7lkUp5jnbVbExnH2me9jNO60DwBYVUZisVSNRMeDZZYAqpARF7NF0JIhaaAVQvXKxaemOpADWGmloWoU0qWWkgWK+uSMVbTiX42tKL5rKldxqkGqrsmJyeNqk1DxUhpC82T9JISQmonMaEXtyXXKTJJxESRZaauP1Sm/qJ4PhEXh/ylfHKiL+JtycQJOst3c5Qplsg2isz2l2TIM/J/VfsUAFJtqsrH9M4SIY1YFaZkaq2m1xKaT1iOeE8pqx8pJSKihKRRBJKH9NJ0jayOVySPSUCWTAMKZNe+yJuRZohxJW12zciUoZuRJutwAAIgAAIgAAIg4EogSenFvF4TrtvBs53ferc9UBkOVM69XjaTWxJefyy07mj4+8XhfyoO/cPh0P8+GPr7A6G/2x/6TlHoL3eH/9+d0b/YM/P/HYz9yd7wH77duefTPl3xVwpy1pc2lK7PWV/61H7+SSlxpzyxn5iYIKfItq5Uc5rpLu0pXVkTExNar5dDWh49P0B44U+IF0vXtKelRKk0uJtmnL1CvF5XyDHJyCGrhRsJjEwsMaGrrYhkz78iM8rAxMSELFlGyhi1eDVMEuQUUBPVaDV8hTjyeJNJv4swqZCPEKV1ak57OCHp5T6L5QqEzn1jNVb5YZ1niymyvH6JhFClkShHJqD/LMu6WswsPIy0dOZtkjc0pXlxINVXQk4YeUmInrJrKnMix2ROVtHsVB0pr4K0lqkeS0Vh8npJPUaSmutKQnqZSrP/Xy9mjpmnFEi2/79sGGwxTG0VD1uHBIlWSjblIEbOvfpNIv9eNV67b0rCDmzjSk1DWZlGhXoWYRAAARAAARAAgRQJJCm9mNfLPk9VYw592vlX77b/6PPwhjMzuUdDBWfH91WNHa4d33dx/N8qxz88P777i/EPz0/s+mLivZNjf/WLyf/zR6Gv/OvsH3w0942iyDc2dxZ91quWxsNPSwtOPFFVgTmNmFibYycmJsjMPqeglOkT7uCiSsz5jzJftxVHpZf9WS9NOiVqXoCI8h0Vi5P00kAgQktKIBWyWriRQFRNPl2VzJV8opR4RpaSi2ejv2Sxal2i45w7yThjkuJUnhENSQMFpU8Nuc1iCvIdRLjaKBpOSHrpVYqDUDFLApOjhlzVtimyeXKfdq+Xzd1EDTCJPfVmQ6WXu9SUZ+0KzdJ2tWAuIF2kF196JwzmclTVVESfyL4w16UmM1frqmrYG+1ZBo0isnaWIpAUrSV0INc2ZsMsxpBDTUUORpKU4gWSsZpns686+6mspprqpSZBepmY4AAEQAAEQAAE0kggSenFvF6u/415/DCVXus/Deeejmz6eLy+eeB+e/+DxwPtTwYfPR168mzo8dOhZ50vHz0fqmvs/9GOof/09+O/mxf9/d1zX98T+cY7nXvP9TqW/4Q6ZJ6MX9luTL2dQ+tLb5QSt8v4+OPjxDX02F5uPfX12OOdY7ReL+fk5Mw8AnFpGmGVk1/vbtr4eH0+I0OQbr9CUgvI4+bCjQRqkUpiNVoNs4yPj69ff5z0AOkLsq0vfUJSyWId+0iURTOS3vTYSJ+Szdp2CkQT71CcH+kVPZQ3W2O8C15zfVKhYlEglpm3dZ5tmyJbE2iqsfpnNElEFCmNy5vqmHyUy5BbVDy46p+48f+sRKH2T13DhQIx5MHMZiPsKb2o5TS9qXBFU9F4KRrNnJVk3FoSQ3WaopdMDaHxir/R3hEKTJZTKYoYY7ROzWs2zFQlO1ATi9NKySLKSCaBkH40KhUJ6adtXKlnIb1UGgiDAAiAAAiAQNoJJCm9mNfLYbLKo4s/6/zrre3fPxvOPR1+9+To7Qf91Q29h0/21l/r6+wcnJ4cHh8ZnhofHh97ef9R3/sHh/7L6xO///7M7++e+9pHfqWXyYAnpevX5eevy1m/jk/uTWfpgeO0PinpZfd62WtUY+YRiFkdqZVSBWWTH6YURAeVruNppAQiYozq1RSkF3FlMaGliitZOalLKGFZr2MfiWx+pdc4qZ1sogpZAFt6apVk4rTl00t65cVepe9CYKLF9dkb/9JrZnOW+n+96GWvyCofdUmPkxIweTO4WjCrFFIRi1Ff8KC968hkrk1mtVsabpJevC2qTqAtdVF93B0kyFvNY9nZQ0qmJhsYqY6iMoO/44Se0qgabbwhdehpVo69jfSkZcEhqcLBHceTqx+Wiugpi5FmVlJ6Ca+pxipILxUxwiAAAiAAAiCwsASSlF7M6zU6Ojo2Nub09/Cnz/96a/s/nQm/Vh7afGK48Xb3nqMvvhvoOXCi+3Zb79TEwNDgwMjLgeGhgbv3u7cfG/yTTZNf3zbze7vn/suHRHoVfdbjVPLooxPrc9afeKTUTmLyG0YfnliXs+7jh5e352yvVc4KOx99vD7ntROP7DbX5efkbL9sj3eO0Xq9XGiMjo6mDsSl/Icfr8tZd+KhaKmRkpDR0xiry8/5ZcPY2Jiat+GXhMTo6Ojl7Tns7OjoqMpNjed5t1/W9Mjo6NjjE+tycvLr+AiRJXPbHM6qdRmtUNpFrCV9relfJT0ZCaSvSc/mqGSI/Tnr1pMH/3z1uIf0khLFdUarfTLK4vRg8+xZ4oxiz2uZpun29Ye6G4Uiz3Sn1TgqvWhdij9HeJyYbrE+NqZm17bIlIAdqGJAOc3aTt/uKJ1v8rRZTshoU4DrK7u0UKhSlWJ1/rBICVktlJ4y0SBn7crKpIiYdJRuQ7U8FiYEuLCkRRlqUDHVno3EmCriSaiRrDpWtWqwlbaSWNbgOlDpqDAslJkQAAEQAAEQAAEQSAuBJKUX83o5SiM6LS7+jEiv71WE/6ksFDg6VH21461fPv+//+pFXuHzmobOgb4XT5+96Ojo7nj24kbz84Lj/d/616n/lj/z1V/N/V+7It/I69p7rtexfIv0ItPrdScej40K6TU29ujEa8akX5bjOK1PSnrZvV7K1F8jDFIH4lK+Kp8efrxOCh4qivTS69Hjyydey8nZnr9dEUicFRVs1GdklriKJKMSiAhdYpWlR5hkdRBXtBVCGtnErWMfiZR+pBeReVKeKbbReNYiJsF0YtUs6pyll3mm7jqjpUJFdeyQi9c8EedaQi6TIynoTNpwW7FJtiXSh9PJKEFoAPl2ROmB4RN9UpqqE4hEMcmbtNTORAW13FQ4v6X5kV78UTdLdqocVM42hUbtV1ttuo06tc6srAxF5Km7TC/5IANGrZqJOqV3hOJV+1RVVsRWrqZYXkvztXrYqqbsA9XcatVCExwcgAAIgAAIgAAIpEwgSenFvF4jIyOjo6NOf4s/6/ibDx7+71Ph7348/S8HBs5devTezof//Z8f//zDh5WXHj9++PTO3adtbU/v3nlSe/nRrhO9f78z+Mc7Zn+3cO63C7j0cip55OHxdTnrjj8cGR19ePw14r6o55a0n3gtZ11JO7WKhHNeO/5QsZDM2s0x3P5a8oRTg5LSpV3MKq3Xyz3XkXPPUwHC3IBOTNpL1uW8dqKdkCHb9lrRLzRme61TT9UTJ5CFySPiMVr38cORkRGqVXiYtY7FEM8R58xKJuVYaqEayaBa/0viRmP2E2uNXjPZ5thHondc8lILdS0ieWm8qZedUprscZReZMKq+Ae8ZrTkLQh8EypLnYjT7NaZtMgwH59kTWMNK5jO5hXRpVSnM1U5nWyQ6weH7P6kl0W7MhWk9ogonWoP2VgRm8KnkF7UTqNb1RIlUsW9ZhkwJlWm5jXCoiIjRkovNcoIUxElutWIRggEQAAEQAAEQGCJEEhSejGvl5QBI3RjU3MZPvxZx9/+68Pvng19t2z6hwcHPrv44Hh5W+G++2UV9+ovP7h752Fr68Nbt9pbW9trG+7v+7TvX45F/nxP7Hc/jP8fhZH/9m7X3nPdjuVz6UWnzr+sV+rl0kvaMEI0FRNpRIpQfcLFGD+kQkUVEkZeFhLy0hKv/b9eljQW+4vPPU8diKVM2XYqSEhj1pW0m9II6eVoG09A+IyMjBCBREWUkZ4wzMnhnAlzKbqMNIytgCk/mTHMHiq96kdGRqgkI51islNwln3ELJFF+QmsK7lCpDgVeKptIyPtJP61EwQN3QQ3Gq9JTxKxNI7Sa4lcwamZwR0vVteKtVDhn1GkpjXJohwT8TN36Bkzz8VdY/X8LIqxqBQEQAAEQAAEQGDFE0hSejGv17DrVnz22d++d+8fPhn/hxPjr+/rKf/sdk11S33dzbra1vq6Ww0Ndxoabl+5fPtyw60vLtw6cO7F5lOhbx2I/N5Hkd8pnPzjd57u+7TTsfh26vVqt59/cJx4vR7YT6Q9Ruv1cq9lHoEMk4bn/LJeYwBhlfPLGs0ZI6rmlzmvHX9AU+oLGSY6KEWwTHoNO/SdKrRSrMhoVzpCmS29VvwNEABAAARAAARAAARAYOEIJCm9mNfLfWZ7+ETb3+TW/c/8R3+3/fE/vt+6bUf1v/364r691Xv+7dJHH1369a/J33/7t4sffXRxx66L7/6q5Ye7nv31tud/9n7nH7396M/++fL+4/fdy1/cs1qvl7tJmQ3Eve3L9yyk18LdjVATCIAACIAACIAACGQ0gSSlF/N6vXTdrt3oKC5tO/rF86Pnnx8/9+jc+TsXq25XV9+5dPFOVdVtdf+i8vbZCw9PVnUWf9G1/9yLvWef7ytpu3ytw7X4RT6p9Xq525TZQNzbvnzPQnpl9A0QjQMBEAABEAABEACBhSOQpPRiXq/lO59O3XKt1yv1YlHCUiMA6bVwdyPUBAIgAAIgAAIgAAIZTSBJ6cW8XkMreNN6vVYwj4xtOqRXRt8A0TgQAAEQAAEQAAEQWDgCSUov5vVi0+3BwUHtvDuz47VerxXIwd7kDOt3SK+FuxuhJhAAARAAARAAARDIaAJJSi/m9RpcwZvW67WCeWRs0yG9MvoGiMaBAAiAAAiAAAiAwMIRSFJ6VVWFampqent7BwcHBwYGLH/ZNDyD43t7ey9dqv2d34mpHcWAqK3OeA4Z3+89PT01NfwfD6t9jTAIgAAIgAAIgAAIgAAIJEogSen17W/PfP75rYcPHw4MDPTrtsyOf/jw4ZUrLffvT6u4m5qaHj58aIGR2Rwsje3v78+w9j58+LCpqUntZYRBAARAAARAAARAAARAIDkCSUqvW7dCra2d169ft0++V0LM9evXt217uXNnRIXe0dGxYoFkaqdfv369o6ND7WWEQQAEQAAEQAAEQAAEQCA5AklKr6Gh4H/4D3NXrly/d+9e3wrb7t27V1194/796fFxK/Nr166tQCCZ2v/37t27du2atY9xDAIgAAIgAAIgAAIgAAJJEUhSegWDwaGh4LZtk5cu1a4osUF1V01JydiePSaXF4M/ODhYU1OzooBksO6qqakZHBxM6rJCJhAAARAAARAAARAAARCwEkheegWDwX/8x5knT4aqq29cv369vb29q6urN0O3rq6u9vb269evX758/c//PFxbG7KCFMeDg4PXrl3LeCAZ2s+9sqOvXbsG3SUGNT5BAARAAARAAARAAATSQCAl6RUMBisqwvn5kdLSvvr6lurq2qoM3aqrayorW8+e7fnOd2Z6ekxv19B2QkdHR1NTU01NTYbyyNhm1dTUNDU14fku7ahGJAiAAAiAAAiAAAiAQCoEUpVewWBwaiqYnx/p7Jz+7d+OdXdPZ2XFh4eDmfT33/27uRcvpv/sz2bHxoIDA966K5X+QF4QAAEQAAEQAAEQAAEQAIGMJJAG6ZWRXNAoEAABEAABEAABEAABEAABEEgjAUivNMJEUSAAAiAAAiAAAiAAAiAAAiCgJ+AtvXqxgQAIgAAIgAAIgAAIgAAIgAAIpEbAW3rFxTY3NyeCps8FiG9ubjZVSQ8WoF57pfF4HPUyLIvIAeMB41Bem2wc2ofEIo5PaZsagD0Led/AeMB4W8jxpl7pqFelkQHj0H4zwfev7OIM6F/ZFjVgbxcbBvZ4livR+ASkl2rWAoe1Q3+BbUB1S4cAxsPS6YslYgmGxBLpiCViBsbDEukImAECy50AbibLvQfTYn96h4G39JrDBgIgAAIgAAIgAAIgAAIgAAIgkBqB5SG9mpubU2smcmcUAYyHjOrOdDQGQyIdFDOnDIyHzOlLtAQEFpUAbiaLin+pVJ7eYeBLesVisbm5OfwFARAAARAAARAAARAAARAAARBIjoAv6bXoqjO9cnPRmwMDUiSA8ZAiwMzLjiGReX2aSoswHlKhh7wgAAKSAG4mEsVKDqR3GHhLrxg2EAABEAABEAABEAABEAABEACB1AgsD+nV3NycWjORO6MIYDxkVHemozEYEumgmDllYDxkTl+iJSCwqARwM1lU/Eul8vQOA1/Sa3Z2NhaL4S8IgAAIgAAIgAAIgAAIgAAIgEByBHxJr0VXnemVm4veHBiQIgGMhxQBZl52DInM69NUWoTxkAo95AUBEJAEcDORKFZyIL3DwFt6zWIDARAAARAAARAAARAAARAAARBIjcDykF7Nzc2pNRO5M4oAxkNGdWc6GoMhkQ6KmVMGxkPm9CVaAgKLSgA3k0XFv1QqT+8w8JZeM3SbnZ1lgZmZGYTBBGMAYwBjAGMAYwBjAGMAYwBjAGMAYyChMeAtvaTklKKLIV7I+ObmZrV2VrUaw8KIXyEcMB7kNaheBSt5/LNfpFbI+Lf0/krud6fxj/GgksF1odLA9YLxkNB4wHzD8o2zMseP+p2S0Pix0GP3H2/pxZTczMxMNBqVYTWAeEYDHMAB14VKAONBpZH2+0P/JxuyswtuijpE+TcLsrMLyE9VfBPx4lh8Ip6RAAdwENcE+cR4wHjAeFAJYDyoNNJ1f0hAeqnVL3CY/ergUCmZamz4pN/hrFd0z+kN2RtO97Bk/adzUyhqxjrp8arb33liYSpWkUZlF8oZmr9Kl3Yqz/GgTj2TaQplzgrp/2RD8qMrmbq989wszFbn3N4ZLCmayRUjxrzl3HI9dBkSRKLknk72BsGBEOa8kJsFiuBZPF4ON6ue/tMpDo/Fa1Iaa3YaDzcLTbrUXKPHV4lF65rzao4cBp6/rwlykRq6WlP6zMyMV5rZobtzO8/G7Jk7jsSzsuJZWXOX7edmZmaGYifLYqPy1GSs7fFsiBzGtpBc8S0N8pwaiO38RjznG/GdTSQyNDk7NOS4G4WrBSAMAkuRgNPNRNjqcCsWp319ZuKXsq+GL59EXsMgsZZ4S6/o0t76iDApaKFG0nC2bttwqsehGT2nNmTLs32ncrM3nO5zSMqiWwp4BbxSJTE5VdCkRJAgKdN7yz3lUCvN7njWUhc9JC2iG8vVRObZjs3XFbDM40y94DwksrMZn55TGwrZ8DHa3ULm2bxHWAm2bjUSi5AcGPreNsYV6RHvzbFGmt3xrLBG/STNoRvNRUeUrclq+gwLkx4UvRmNunUTo9pSaLte6DXFmfe0FOQaw8OFldvYI90hbyBJ3SLIMPC87/F+N8aezVxHIzNzhPS1FJK7o8PlQ8aGMyveTTyv+1VMx5t54En0phuUjLUEyDVb2KLrHWVwKmNAZp/9fNfcz38xd/LOzEjl3G9RpbS9cSY6GNv3CxLP9sC3mfSKf1/E0PjYg2g0Ojj3vS+Ts//zyCwrtLeMJn4tNhKN5dEC8+pldWrAdLbhXV4F1XjWMC1h9iyt/Wgj8TRhA4FlSoBchspVmWQr2O1FfikkWQqyLRcC3tJLuuCZo21R/jY3NzvUy3+ndDg7E432EZ9P7ql+sZAg6v6Vyecq4iOX6LCZmX5FPpFrTDLpO01cIqJ2/p0qz9J4mrfwpkhj5JUx9Ad1xUK6sNPIK2zRfhY0swUSqoUYcJipAAAgAElEQVTk6hU20HjeCr6UQtYr0iy/eOfxMMPm1gVNkoBH69jkZsPpPoOGmGfLGDoNMvWgfUpkK8E0TkzMxZ1alm86G43OCJ+bNX5mxnv0yr5WxrnJNhrvn4/GBmN0ebBdyLzsFyltjdT5oL2+tPYzbUYcDrI06xUqfq9RepDlUq9RWwmFLUp6dXzSe5TjWZKS/hbA7kXMKnJdyzsPneKrZw3L2b2LpqS1qAZmEz8evb+p6fk90zRmlmSPy97RUvUYD9TrayvB9duEuZjEj9PmvNo7/4xDv3Cvl7kEdTzwbxzv/iXXsnq3n5lhgufL/zI3Svo0dvw7VPN8de7ao7m/oqpJK4RE5Nxlkmv2+ns015fjRx/NzszMnvwuOfz9jXNVF+a+Rwv53q65qguxC5Xk77WuWXGlSOlFeuTaLuIB+62s+G99lQTY/of/kWuwrY0kzUjl3Jez4llfnbs86UrDMj4trHAWBOaXgOt8Q3dftdxm+aH8RiB3AP+bvA/gGllcAi7fKdrvIHdrvaVXNBqNRCJL8y+Zkawv73O2sHkH+Ymz2cX+nlO52bmnelgb+8rXk189WXvJrxC5p/rUvN3lG7I3lHcbNPq6ywvEL+CRCPlazm80ztJySJnZhS0uDJ1a4RRP+4LUlb2DKFJTyY35pvYq82/rpe7KzVSmSmAJh2lfm1vpr41UR8kxENWUYy5VjpCIbTwwbpqRo3IjfWQaRVbaZEySH+b9xtMxYGmFyMttEeOEjkZzc+SRpkbL6FJbsfTDpHesm782tuRnK9esrhxzucYdhlyz9qtSf2eQ/Ut/79TkMu4kZEyq96KmAn7fo9d7uf1OZfSO6Z5GRwVpncrBZrP2PiatNawSY2zZxdiZsNYRMsbVbTAkZyUlzdVtueuKq0aTkpRp5U+uze7yDWr/mr6V6B1J+QYhVzq7s1nrbZz7CpVGR7rE9d4V+1ZWPOvL8by62emJmYGB2cFB8re1iEmgubMihsSPz3DLJ2Jbv0oS/NaPYiOsBGfZ9q3i2Wh0tvAPudAiub4az/mXWFdE6MBvz90ZJ/YEH86tp8V+5d3YMB8zXNd95RezZtrC/kwadWhLBhLQXuPGFaof1bo7gD5lBhJbtt8aae4LX9Jr0V147FcHqxlEVwg/b1OBsqaIJyRflmJNjpqXxpvnTk5HxjolWoD4tVstLUqdJHSZCv/t03SWLTh0Xb1D7LFUxHJZI2XB9Cd2bZnid1CalE7pNMmcs8salnZAPx6YzcJnlUgLKCg2VGh2c3dou5UWbx4PLuPKtIpJHbdaK7VNoCraYaFUlOoucS2YyiRNM2p3qNo5u6mspXzgMiR015dXUyhtxo11q0qe4HK4NkliecWxsaS/t6gLS5yuU8NIcxPkgOQZaffpq2GxxgCIRqnj1Fq7KYF5VBtGLKuQy3hwbgcBa0Ihk5qYmK8psrJCPx4c4mX3idL5ODGuX3NGa3rjLBmlRldyGfPljbEJUXI0OvO4PtY6SJwC7isAs7Li3xIrDKNR4o/6yZHYSHSm6RdUpP177rZiKxhVR9YPz8xGxUJE4T2LZ/3lXEc0Gp2Ibf8znj3vF3N/SNcxfuW1uceGedFo49xvU113clCNRRgElg4Bx5uJ6bZg2GtcoUacGjJd0ZrE5utazYnwIhJwHAZJ2eQtvSJLdGvO5z8ERyIRGt7RTNxVfJO/7uc3iyjxSU7lN4oj8sOhTENO0R8fxVnLZ3d5bnZuebclNhIh8fnN1AyjZJ5KWuI2NyK/YhqlkubwmMZ88ylWl81IYoB2E9YqltP5mog3Ks2QEG2d0r8+m9VdnrujvK9bdJatO2zdSstVqJJRuIN4PGwV2gYVGXLem1qj0ihSmnqK12uMYV6/o+9OWKhYS8ebiLfZv9wjlKspkaY078jNb+yLiM5SmZPuMI0Qo1yFKrtUdRea6Z4TiUTEqHMfFLJG08VOynexhxWu3NNoXaa+to0o+z3HaF9mh+j3CFnoYN1YtzbvEDfe7vLc9eXNyjJ0c9fxLxSHfiG1GMOJ9aapR8wjVoxAVkXuqT6jWNNAEu6pn98gP8/at+D4zMAA32/ukV4vI3Jg3J5x5uquua//ZvyNyhlaoFhSWGcpfuZOJVl/KJYjxi7cmB2nSYJdsdfFIkMizKgHzJx59uf/mRjzJ3tmzfE4AoGlTcDxdmFcofoG0DvADl/TgGz1XqEvDbHLkoBf6cUWALAmLny4uZnMaE310kVZxhee+OoiacSXWTQqFo+JxTzUfrpUz8jpFSJ5iYPYtuW30OUZChP+nWqyM2rMdczxxtcc+UlbzKuiND2bKpF3dHSX06p5XeSSFssjlXpZkPChCcgXP62ruZxOIwQTMktj5TOF4GTP0o/XjAfeF3wWy2c25lmLrQe5UpLtJRMsttHuEPGkW9kCLStzseCQxZN+FONQCZM+kXNfUiaxivWFMQZEXaSkKB3brAkivezTvuYdRGWzZVHsRwe2nNVqmxgD7BcKVn7fqXIxNrhQFOW72mMd56wq8/W42GnYL1LcMvVewcYAv77o9SE6Wfdp5qAsNZQLiYlUUntUrUssS+N9QZeNsV9qaJ+Swkn/kh81+eyc9gu/RbA+4nnNPMnINI1JbgUbby72WMvUjD2+vFDWy2SG9X5rtoclXspptOPBuMAZf8/7A1vULfvLfL2Tn6uN+7a4lkmZZAGq6CHLKOO/0PH7CTXAem9hVonF0qw7aD/y7xejXqWuyMAZqqZ+c66eVE0e9GKvxCCC591YvetLL6S3Kq9u5tmN2AWio2IXKmefDcxeo+GzPEYRVzyGpOyYYONBEWYDsb1vxr9FlxfKwmXgy/8x/kffnbvQxeyMctuIo4yVs5THFWxbgX2kn2/wn6g8v1PEHcC4V5D5pPx+J/kt93b1ujZ/v1jv56IzEM9IzCsH7XdK0vX6kl7hcDgSiSzNv2xS0sstJF9ObF6rWCsiX1hb0UuUTH6z0ToyB8o91Sfz0p85e422k0sit1yUI+coIj37arTUwudVIo3lLKHKmtDnSJjZTy/gHc0u5RgOEKNFotdeUH+dsNxokT3lso4RDoHc9bnZNlbyHufAkHVfhI4KcbvUfJIJNC/BTFUdD0q4lw4qx1Gk6QvaivxGUYutRxQLjdGoKScSCRMLs3NPKbWL0hQLNWNSX5rIu4zOkmYSH3Iu8Vdbxz/vcYfxQEfC+vLesHIBasYD0duyBBNV0o9itKhhchsh0kvkIiOEiSgRY+0RUiyxRIlX7kVkPKzPz1+vNY5GcgutDaFjrDnfRMZ6D1xGfe1Ezxpv5S+pEj7q/Z+1Xf0WIPcQ+vNKOBxW7idsINFyWOG0p2i/mHuNxLPE9LcP07cPGw/0+0KsegjTsZffSEsWdxujXqWucP0WKr2+Hevi42r2HfmA1ruz9yrIuw3/dZvH39MPZ4r/kjnEyN/iOvqomCzHIXCkixHmNb5TFwkOxN6gvizizvrB3JlbM8FI9F7F3I+/Hf9NVsifzt0X47+/Yo6qsrlqEaOOc4RBYEkTsH2/m+4M8t6ijm1+B2BXjfJtrt7A1XmpmhfhDCHgS3oJab1on+xXB0314ktUqA7+u7JDStNZ8gWmXT0Y4Yv66HWgZhFfivSnUFoFi+E/YMvvVHPtNI1whphP8SM2r9Isc2HnmZwQP5loS+CRLCW1WyxoEbXzmZ84dCtlGZxzGg90YpRP50/EWyh9TaxJcsqiaaEykGzJ+I1Sk0vMp9kpOe02Lz4kzE2WkLrUcWUrmPaj6EHbWbayUfxspjmtRBGT2CbHj6idWysOlUzLMugwJIiuyCd+wnzyLgrhaxItdO5ZughQ9Jo1mW2EiPIsi07V4aGGlcFGc3pflbZbhCkLtYdILzpmmvOlS4d2uhyWfDDwkSAaRQebGCXmT9e7ltHmJRlyGA/UVit/2QDCRHS6jHQMKMNAwIxEqE+bfyMoCdRCSGLyA6FuZSPJzpYy0m4ylSDMNiJFTCQSmT3CJNO7MVEVWQT4K/pywiwWeWPuj/4w7rzPnSZuqNnTPyJpmEA6ciP2Os3ydbZo8N+TU/JxL1HU3OmuaBfxlXGfGNFRfxmrr4yV1c32kEWMvMzXz7AlhTNdt2P1D9kKRmpsHZNe8SPEAGwgsNQIuN1MTN8U3HDjCtW3RLldsDUU8tuZpVeua30BiF0MAq7DIGGDvKVXeOlu/PfahA0kI9t7y280F/yiPJf/ds5/pWan5U+b8hdKczZTYvMpfsTmVb2Wc4kbKX4+yW+meYn91OkhAuRXf5qGBDJxY+OB3dfCYTqJYS6L3FOErugp/jOVSkCcInFqmKYRBaoZWPj/b+/9Xixp0vy+97+YW4NvfGVdHNi91IAubBDIIF+s2YvFNhiL7e5afCFW8sVqEUg70G+/5TZYK4TBM2DD7nT3qBrJnhXoxzsg4Xm7a3i3rFlpwQjtvDv99vSqmVl3/TjV3VV1TDyRERkRGZmR55w4mZGZn6SpihMZPz/PN5+IJzPrtLkPrT/pPW4j3ehOWafTBNZqXo8ipKRs5dmIqWc3eafquYqcsmIzo5Uy8lTE1JrPb2XKz06NQRXAT1/oS0DdU6wvWGURnWPn7hrdTasCpkFbuE4YqpLjysNNh92JZTtNYK2me1IDcAYs03yqZyeTkrlU+peH6p+diiuQ+LNSSDipeg4qlR6SX35Sn0L+dvCKifYVNksl5HoMrrxKSE2YTuMtOuki//WzTysvrVrWJavyVlp1s05f5mnVb9+4Q68ehelME+H8UhCA/XL1mOs7PzFVf1I97DI57//535Ayqh37aOv6+mc3/+cPPv65quQ8YdMPtf7a7bO/rx6y6X+/Kk/A/sJ/Vef8gx98MJ1dX5uBme7qM6QgUDoB5SoDp1FfofHBd3mAeA1yZ0dgGqHX6anslDz6sjlw1kOlfrUUtRx6Z6MLfHYqJYPNltt65No4/ez+0xfVa3uyv2nuniO1qk1My6Dq7GoJd5b5z07tWuuOzEkH3amP6kU7vSd78elKt6Bbrnd+qph+RcppamLJmB5kQ6ys7GNRFq8sZR2iSjg7V20j6z1tMQPFb9Dkqt81VfXJsZfrjt20VO5QaS0IFSToQzWrDld+1angVzBymeb9+9XC8PXTe7qFqmU7Wl1s6tF4TBLVrRkfi/iNKs6xllUJKwBFVdnI+gdbrOLtN+gZwVJVua483AbdtCoXujJHBU7Suoig/L2nT9X3u6RCLxmmM/JwUt40pAsPiH+6/E8xPZhRh/xNvriO9KyVWZU24jCdxp0Ctgsn4Hfz/HRVUXy4OqPaVIf2CXWzTl/9Q6+7//kPbv+J++9/qh461ZFPGHrd/F2JnX719z7aKOu3fnB9rYv9J3dfXN/87W9sPvlG9azsv/37Nz/5czOelncU/8tvf6ynTOhVsyBVIIEuZxJzlfUVGp1MtS6k3b7dA0SbIXNgAp0y2Hos6dBrLcf19bVOrNfrMtKnD9VidP/JV/HxvHqq/njxlRl0OOYvHq5WD1/auXz1RP8piCn+8tPV6uEX1SdV96sn9+89eSXFnnzl5EtS9RUeamDC6usn99S3NHRwU9u1e0/0UN1xqnyp2FL35UNZjPVoZAyfvvTmpQrcf/qqGr9hJSVbubX0pedSmga88bx8pJm7tnulnvYYhuIQNWdV5r5Rh76rrc19fX0ds6ZrXRXIaeZKFUJVf3TsFY6h7uv6eq1s1MlfueZKfq4e9Fbe6MqMwWp4vVYjrzWv5/jyyT2jAV1g9fBUrmX5AtuX0r7SyeqRTlcz8/ot7tqPzD2i26+e3BfTO3Zfyy7WXpvKh2i7qzLiEHQ7Co5ckjUfVwJB+rPTitp67Whg7dqrMQblfMyYX2kX0cHcH09gI1X9/rNT1UjbYfyPKERdAtfXeu5i+kath1+I63j2tZ1Xx9imV0ZFLC5/y1Mx0Zdqx3zV/2MirqO2qesH1NX9qTaufz3adUqx/fRFoGFPA9pMXzvXnavPul+nr/f/+DfkwdRv3shsqvH/QP8B2G9L5udViGW/7sJP3H3nTzQIFVP9VRUy3X3nT66vrz/849+sHov9gz9er9fVA65f/70Pf/J70uCv3P7k+voXv3hvT/3W50rYv/jZh59V/z7+L/+FauGv/O5Hk/PhZ7/Q85dxmoH9Hz+ZnpYcG3VohnkZX1eRmAEr5ZO3PfSaotZ3639kH2v8c0VH+ZP4nnAG3LgW9LWQDr1sNGcvHm3+IfNPT9XmZqt+7bIXH6csWvpRmmpZLga9JZXy6pbwwy9sjyp8sq/tSbAnAZW58PSN0vW62nD745SSsjnz89XSo3N06GVfOPTyZUOsp2DzTTvVfWvJVxewWs7deam02eLL5kA/2dDjrEIyGUNL+xW5Rr/j53fqobaC7FcMgfVab1k0Z72V0Ra3aT0xVzmarXwfUW0vw995RCmhi952q0b0XeoqmFHhn6at2w9Cr4qmLOFVyxJ62TteNX+VXz9rrfNNXZmg2hVWAaQKw6R3ed9SRV4SiNaqk4c/a03GhGSR8Zj2q/Eb3dYc5ERzPEOW13ek9BiCfh27q0vGBpk6/DCcZdstwYbOt08/mte1y9mddfXks3IL7lNKfYOzCtpFHioANuP07GKyPb1J6KW+sMEyr/ut1FL5KBmt2vqrXuRBmapr/I/WtrRjPIZjTTOeKjC7X9GoRlT3OHE9NPhbP19pwOFgrKBuvQl/Cdtqv3Hvydfm8Ze+7rQH1jf1Qp0oizwxrxGaliv+cqOkuk5rT2X0rHRrPXatZ3nqVd1A/OJbEiB98/aPHHtVLxz+jdvf/9btH1UPl+5O6qBIoiPzLRcSaEmPVei1+c5PPvxzHbx9svml3775czXm8HHWX/rdG6MH8y7i5x/+3Q9v/uD7t//kD/TP2//xm2psf+k3bc7NH3z/5t/Jq4rX1+s//raM/Bt3/6piEuEvlMg3elAkpnU9uqOdnB079xvWe+hpKbvYKzRqL3vWcBD/Lyt7tUbLKxgusWg7VgOmnXoklHfp5eLj7jH2bz8detkgtcxEfe/BPDjS49Q3Du1Tr3DwKiypbjysq6cB9W2G9VrdmLRPvdTDDf3kxL27Gba4DmtVBarbmZHiJkv2VdVTL5Onfqt83a+bW6edQX718uEjaaGel9+vP3KBVk+/bnIOKYtFJVyAviTUWbl77YPSYvC0ZBus6dSqixhIt/zEPpWtq+mUCYnDfPtZbnrV8vPyqyc2Ns9NuBN89fS+tKBmVz1z8/v11CU9VsXcFmeRtlhUwnlKGVywclYuCh9UUKxyF55C1vL8U4dcEQPplp/oZ+MRwYQKbFJXxmrtcSWuTDUiFn/5UHu2Lx7qKq6hLYrmpPxOI5r3C0z5U+0k1+svHjqytz6hMbuvXj1RJnj40F5NdRFVSx/BNVvTVj1aXxRl63VdV5RexNvE3LU7kfXnd/LdGHe//7N6aNVTL3mE9QPzcMl/2CVhT/WMS1d8/8ff1k1tfvXbH89/cfNbv7z5y9+6+Q+m1f/ww9tf038e9o3NX/6N2z/8hTlhHoj91ucfvyOPuVo60j3ah2wfnv41yfmNm7ol2yQJCEyPQHD9+hNwVmTnhKqij8gC4ZQjORcC0wi99F0Hj7lsFtWmw7wW6J2NbKCD885HWRcffiEbIFF/W5vBC2ZOEzoZXVN32ldJe+6eqdFXS6RnF2M/1gpHHpyNtV5yXkQP9XCNFSwKcypwiNV2VoTkWjwoltqkmtb1by1L4z21P3X2dlJIDSyyQa8bagypOpWyWmPkKkywoVcgp+6P9WAmkuqQhMFSozBzMlLRnw32ShimUFMApsG6REdKtVabW/Xo3vSRilu6CK2xKhKzdVVCZJwKvaoVXsbR4jztg9mOeRV+qkMPMruHL+X+mvwNpb1Bp6wTXq31PAW1c8NOzohB5XrXF3t4r0fTNg5Bqqh2wl58n+AJzD9VD2et4kZHS7+4+evfUDHMr/3eB1Po+p+ZdwU/+cbdP/u+fuHw7vH31UOn+t9xlS8vHL7/V98y3/8uf6b1H//nd3/7d2//4IfOu4LuQ7N/q9r5Qx3s/eLm16XKb33+4Qe/W3+jxt/91t2v/gU1sP/0V9zM2x/oWj+7/TWp9de//94Mm98QKIpAlzOJDdS7foMC4eWsvYq4iXtPXtoALLjRFjTCxzEIbCuD7jGmQ6+riRw/7fpbB1H2r3/3p+5cfljfrHzh5v/ku9UfTTzyslURdered3/ilnbTL9RK+EM35+rq6qff/XW9/Hb+DMYmbbzo8TJx2J2a1MPGuJMjD8Y86Y9RK6gZKZ5NmzaIbS0kQ0vbK7SIlpPbby28LkmE7VTy66qizoVCUvK798QTvh5vnIaZy5x+K4OGWGR+8cu5SUwpqvuIGMvaq9G16MR1I7u7iCulJd2UakSG8eKh9gA/fKhn7RraQdG8TPxpuoqdkxqurgSa2DOcoyIQvVgMAK+AdhReeX2xVxYXs4ZdSEtRD+CUrM0kJePqqiZSe/v1D39HHh/9Z7f/uhrvx7/zH6mcb3zz7h+9Xl/9iyrE+lydff/537v7O79z++1/ePPov5Zan9z9Uz02aeQb37x79Dt3+nvkOx9eqT8Je/r6w//+K7oR9fF//TdV9+bXh2/LQ7C/+r99MDn173/996TiL9+G62ZdhBQEpkWgvn4b437xSHuY2tnGr27tScRLeR6m0SAZEyWQDr3W6/XV1dW4P09PT7ONoV721KLVMS9ZWe9/9ydOmZ989/7Kz/FaUJfTwx865dXZVyr0evSyY/zqvvivf/dVg7M8l3jRPsLqnr3XspqdOy99l13vM7rG0N7L+NZvjq1TD6EVdEQkCDpsV1tN2V28XbPf1hx1K0vdyfZsUWtDaaA+q2zUOZKv1F2Eh180yKv8e0++auQb5cRGXuXZkYuqBUb3GEybLTNqHcNY5fUdqWjv6h6ke32pq9gcjzquLzvHUFHRXixhOStXvXcl2tZEad51KjbpHInScEyTL+QrH2yPgWas8oP8HuP3R1sreTL5HXpo87f68WZ9nUZnra5B88QsZpGrq7Q1k/yNYmMe/upKnbWHt7L84uZvyvOl/+4fftDX73/4/O4v/srtH/5CeqxeOLz7XBRYxTzyxOmTTzZ/8Vs3P9c+8N/c/pVv3n3+c6Xnd//+5vd/9+7Xvrn5JQnh4jHYf3/7s/XVv/xbVej1jV+5/be1L9UztaHXx9Cr/Pzmf5AndX/z8/dR2mH5sOUkSf+qnIx6mVdRBDr3GxFNmusXvc2KQMeasoOfSYdeE40pGTYEIAABCEBgQQT+7F/c/dInm0++cfePfq5nrfY+5nj/+rX6905//nn1UWX+/NqUUQ/E/qyq6+Qlk6a1qnGv/PX/+3/ffP//uvmX/97tRXX0T+V9yF/6Wzd/5pXnAwQgAIF5E5hG6KXvOszbEsyuPwH00J/VQkoiiYUYuuc00UNPUBSDAAS6CeBMuvks5GxeGaRDr0sOCEAAAhCAAAQgAAEIQAACENiPQN/Q6+rqynY0fPr09PTy8nL4fvWU6bc0DugBTQaa1HekRvRRwXjwV+PaAj2Myx/9w382GmC/wX7j8vIy75rSN/SyfoQEBCAAAQhAAAIQgAAEIAABCGxLYBqhl77rsO3cKD9XAuhhrpbdeV5IYmd0s6yIHmZpViYFgeEJ4EyGZ15gj3llkA69LjggAAEIQAACEIAABCAAAQhAYD8C0wi9Tk9P95smtWdFAD3Mypw5JoMkclCcTxvoYT62ZCYQGJUAzmRU/KV0nlcGW4Re5+fnFxcX7k+NxM3RafLh4KoCPaAH9OASQA8uDfwDekAPLgH04NLAP6CH+elhi9BLXwCj/Mwbbo4yBTrNSAA9ZIQ5j6aQxDzsmGsW6CEXSdqBwMIJ4EwWLgA9/bwySIde5xwQgAAEIAABCEAAAhCAAAQgsB+BaYRep6en+02T2rMigB5mZc4ck0ESOSjOpw30MB9bMhMIjEoAZzIq/lI6zyuDXqHXu3fvzs/P+QkBCEAAAhCAAAQgAAEIQAACuxHoFXqNHnXmDTdHnw4D2JMAetgT4PyqI4n52XSfGaGHfehRFwIQsARwJhbFkhN5ZZAOvd5xQAACEIAABCAAAQhAAAIQgMB+BNKh19ccEIAABCAAAQhAAAIQgAAEILAfgXTodXd3t9lsxv15enq64YCAIYAeDAl+VwSQBFJwCaAHlwZpCEBgZwI4k53RzaliXhmkQ68S2OWdcwkzYgz7EEAP+9CbZV0kMUuz7jwp9LAzOipCAAIuAZyJS2Ox6bwySIded2Uci7U3E4cABCAAAQhAAAIQgAAEZkBgGqFX3nBzBmZb+BTQw8IF0Jw+kmgyWXIOeliy9Zk7BDISwJlkhDndpvLKIB163d7e3t3djf5zugZj5BCAAAQgAAEIQAACEIAABNKhVwnvG+YNN7H61Amgh6lbMPv4kUR2pJNuED1M2nwMHgLlEMCZlGOLEUeSVwbp0Ou2jGNE4nQNAQhAAAIQgAAEIAABCEBgTwLTCL3yhpt7IqP66ATQw+gmKG0ASKI0i4w7HvQwLn96h8BsCOBMZmPKfSaSVwbp0OumjGMfZNSFAAQgAAEIQAACEIAABCAwLoFeodft7e3Nzc2IP/OGm+MSp/f9CaCH/RnOrAUkMTOD7jkd9LAnQKpDAAKaAM4EJWw2m7wy6BV6lfDcC9tDAAIQgAAEIAABCEAAAhCYLoFphF55w83pWouRawLoASUEBJBEAGThH9HDwgXA9CGQiwDOJBfJSbeTVwbp0OtjGcekbcbgIQABCEAAAhCAAAQgAIGFE+gVet3c3Hz8+HHEn3nDzYWbfAbTRw8zMGLeKSCJvDyn3hp6mLoFGT8ECiGAMynEEOMOI68MeoVeJTz3Ghc6vUMAAhCAAAQgAAEIQAACENiHwDRCr7zh5j68qFsCgRY9vD15cLQ6Wo8AACAASURBVHzWc3xfHq9WVeGzx0cnb9qrvTk5Wh2dvHl78qCzWHsDnBmAQIskBuiZLkokgB5KtApjgsAECeBMJmi0/EPOK4N06PVhz+PVswer1aOXe7byIQFS7aRXdjPdVvjt8yNV6sHJ27YS5E+YwNuTB0YDKl4Kj6PnbzebMxVyfbnZ1KHX27PHR13KMaGXFJO6cUSq5Y5DepealVY7yqpTapD+cfa4rlK3Zst4U24NQVUjy9R/HhehNVYZommjyhpii9az1mQkxiGQMmK/S0nG7l/17VdW/LpzXEGoFhlD5DIfhxi9QgACEQLVltKszOFVvNlsOp1JqrrvXqQXfELEDBPMOmToJUGX1uSeoVcy3LS70oj0a6vYFZfHFzWUKaba9SAmfnDyVvk718oqX3xWM/TabDamVpSF05RylI/Vc7XAY65WunFT36lispzfar/ljs05pZPirAMli8JNQCU7Ns8FSxWTo3VuCpvm7TUyy9CrXRLV/O30A7AGj/6t0Sl7xh6EejrRGghbE0Nopxee8nvi00EJtOtBdjMmRooYscelZEau9GAuuo2+rdNUjhVeeN25l7lc0Y5gRGniakxf/IYABMYh0OpM1GVbr7PVrsC9bLudSbK63CnWW45xZk6vDoFWGThl+icPFXr96Hi1uv/s9YcPr7+nnkTsGXp9+ND91EtW08fH6rGDq/sAg74MHh8fBRvloBgfJ03gzcnRg+OzL7cKvaptk7OLchAo2UQ34vqGVuSUcsFmb+c0ZJLK4UZqmdPVfTJnH6af0XnPwWQ/ZxvxQgLVjki9vhbkozTo7TvrHuefyuAiZGW1zE3E7iy9yihi98iGfv6EpzFDuXDq3ZK68tXDZJuTupS8Wb59G7yovM11p/qtVysv1hL92CF5XfIBAhAohcCbt8H7U+JM7BqRciaJ6tU6Ht+WlIKAcexI4FChl32/MEvolQg35Zbh0fMzed/M6j4kYvZDsgmr19qwGJ/LJ5DQQxV7KCUoo6vdsHKC4sKU9VUQ4t9wMlMWX2leHmj7XbtCPyoTtxuvVFfZ6K5bVapGUkdK1bj83aFkVpoXzy/lvS70c7yIyGcbeiUkkcFFNNZR8/DTC5LFOMbVVObj1/AEWvSgI3D/D0JFG5URt7iUonOKta8KRq47P/SSCLCKxFRh/3KO9kUmBCAwBIEWZxLpWjy/Wdy3dyZedbMTwBVEQI+R1V8GfUaXDr3e73e8fnZ/tVp9+mK/Vt6/b5+M3i6bfXbroiWLn2xG9Ra5uWFq74IzEyDgbWWU1zOS2CL0ik3TNBU555/yBlCXtlGfyZKtXjxEc3Idfcb2c+LW9V3z0F9LPyJyswaYnqNbwPrkbFM5XIQAD1dBNwB26BF6OTBKSjpXTT0sx7LbXEp1A04qdqmq05LvPwn33UXtJVS+X9JpnyQEIFAuAdeBuGk74pZ1uTofVnFck22BxDwITCP06go3vdU0ssJVdnI3SV6VedhxWbNo0YNjfWXiXqGXuEKJeOqXf3yYpik/Vz75p9y9lJOuN1VVC0qKzaDIaV70WYde8tF5N0mXrCcb9ebixL13FKVaXcvpbw7JFknI1DyA7QS6XYR71gLzWra51Z8C1hasz5AaiECLHsT6wZUuRtRB9TaXUmwiUZGogjHVuX7Apm0i1jx5EIDA8ARanElzIPoeX/Wq8PbOxKuuWhd/wjrSBD1KTm8Z9BpdOvS6vr62T6x2SNunXjvUdfttm02wxYzK3bzQb/e7DYm3tU7+xAiYOEdtp3qFXnp+SjbBhqye+NlxW6Rkemk24jRohmQbTO6uZC9YO1xna2jbcDdzovnwL0OC68JUjG0Bzbm5/g5Q7OgioqugmKapnKDHuYKd4Lwinl8bywm9el5KjdlrMUTe8m0JvczWSm786LVJXZ7hk9VGP2RAAAIFEpCVpb5+t1mX1WyC6ipLFh3nVRi7gy1w9gxpOwLp0MvGP7slbOi1W3Vdqz3cbCylWqzhNjrccbrL7XbAKF0AgXY9mMGpbdAuoZd2f46zWx09P6n+PMy0Xf82vegcVdcIz0kTetXADpdql0QmF0HodTjjHaDlVj3oBcK+0Wc2N/uGXqad+o6JN6lwAfJOmg+yKkngV0Vxyg8RiRk8/IbAOARanUk9HL3KeK8Ky16i532cSPW67SpVlWnxMI3iZOQm0EMGW3SZDr2u9zu+rv7Wa79Wrq/jc9ILntnvShlZ5Pxbj5FAS69tdgGOt07uZAmYoEiZXllZuS3ZxCh5KOellFO7RSdSkimb6vJB1Y37O6+Y+4fybtp2bWCqrjtvX4k46x7low3qTCuic1G+uPiwQdF8mOk+KzPtzP13Lhch7YT7YDFNmNn+9RtzZz2R+ekLqrq/cnzmXG7bXEr1ZKVW239IoIv1CL3qYajClajqzLo7UhCAQEEErD/xNqL6KVa4BEfW5ZbqsQmKG3H2LbEy5E2DwDRCr7Zw06x57lMKs6LW/yNtdbcgUqh7BzwNCy5xlG160E/tVdCi3JnyesrTKYdo4x/lvLYMvZQPbW6vFXfTi7aBUmPlfG131VeQe9V1MBCTo5tXh17x/9xDvLB0F/Hm1e4/9PszDr3aJJHNRcgC6dmx/RuoxCIt4foSr9cR5tymh8hQnKt4m0tJt2QWl8RdPLlau8pIO/Xl3H5XKDIBsiAAgQMS6HImZjV31utqJL2cSXv16HxkOWsu69GyZGYm0CWD7btKh17r9fr6+nrnn/ap184t6N5jU2tZz2STZDbB1Vd11x9tQ9Hb2PYsiUkSMDuYajtlQyCbSIReZ89P1Pe1O7ux6j9QrmIqH4pfzAm9TC+quO3a1FXC6/SeImDHlcukgn2bqLcq46arTmJV1KmWS8YMbXa/W+YrhGufEHy0FDwXIU35MogurpVgdIRvmyJRKgFlRHtxbXEpqflUgb2vithEW3RoioqQqnDLG4++h2KHZ8rzGwIQGJ+AXjjaVvOkM+muHpseoVeMyiTz0qHXnm8K2tBrn3bi4aa3MXLpy77TPJaVVS16BzqxHLotki6KQFwPjZBJ/wdZ9Q5bzUEZXUUsSjzhreV606N8ohMdfXlsN2dOfGWiev2s6vFZfUqUafrdP/TS35jnjCf8f2AbUYH49PARjZm+nUtRNt1zMHFJZHURsuzVmtFBdRRmu8/Zc5ZU70sgrodIbeMQqlP9LyVz+afjruQtD9WpvVprLyRDqr1KZPBkQQACByfQ5kxkRfDWZX8oCWeSqu43pj5Jg9yIaYIZJKdNBrt1ng691vsdr56q/9fr4Rf7tbJeN6an46u47vXWRxYzEauzyXbbEelHozK3FOnpEGgGVA+Ojlb2PUBnIs2SEkFVz5GC0Mv5qHdCWjmqRmTjpTdS6ss54k+3VNdx3Vbjk8DJeepVPTqrY0WJKLwCkmN2b22PvJbmu7O7CG/lEycTtyOhl3OlFZb88thcJuZyCC7hrkvJV1TzMmydq6ecoJRyJu52yr1vEnEFQW0+QgACoxDoWGfNeJLOxL3wTSX72/9LB9/52EIkpklgGqFXJNyUNclbsVwD2LMi/dj+WEp3n3UbJF0SgYgeZHg6LtIjdXbGsu+JbLDqJxg6lKr3ZFo/+nGWituV19NnfW/YgKIrmr6cWwBOSaW6+Ja9KiSNeJGVOqE9rx5TrLoWsz5vBuD0qpNdW8BG4SllRCRhnUB0HvZstxMIzwrAWhjRpvl/veJYhsyN6MF0X983aXsptPVS8nY/+uqutOD9al6erded46bM+MzfEOomG37AKUYSAhA4PIEWZ+KuBd717204W51JurrrqVQHnXHa4TEsvYcWGeyIJR16XZljvV6b5NXw6R3nR7UFEVC+THYq3g5JAIibcwMS5RBt6GXPOuGNW7j6HzaOTt6oAm2bIe0ow7N+MKYG4/pi32O7n8J2FmRHpgoBCEAAAhCAAATmSaBX6GVfFry6UkGXPoZM5w0352nJJc0qrgcV5FRPqLzbTpqMOnt08uWJev9QDucZ19nxAxuGtXOsQqZYSTlVNxi2oQK2+qwq3Lwv7tSRaI3QyyGSTsYlka5HiXkSQA/ztCuzgsDgBHAmgyMvscO8MugVetmHXSMmSjQFY4IABCAAAQhAAAIQgAAEINCPwDRCr7zhZj8ylCqXAHoo1zYjjQxJjAS+0G7RQ6GGYVgQmBoBnMnULHaQ8eaVQTr0uizjOAhLGoUABCAAAQhAAAIQgAAEIDAIgV6h19XV1eXl5Yg/84abg4ClkwMSQA8HhDvNppHENO12qFGjh0ORpV0ILIwAzmRhBo9PN68M0qHXxcWFfe41YjoOg1wIQAACEIAABCAAAQhAAAJTIJAOvWzcNWIib7g5Bbswxi4C6KGLziLPIYlFmr110uihFQ0nIACBbQjgTLahNduyeWWQDr0uyjhma08mBgEIQAACEIAABCAAAQgsgMAWodfl5aV+4dD+1EHZAPl5w80FmHXmU0QPMzfw9tNDEtszm3MN9DBn6zI3CAxIAGcyIOxyu8org3TodX5+fnFxMfrPcg3CyCAAAQhAAAIQgAAEIAABCKQIpEOvEt43zBtupphwvnQC6KF0Cw0+PiQxOPKiO0QPRZuHwUFgOgRwJtOx1QFHmlcG6dDrvIzjgERpGgIQgAAEIAABCEAAAhCAwIEJTCP0yhtuHhgpzR+cAHo4OOKpdYAkpmaxw44XPRyWL61DYDEEcCaLMXXXRPPKIB16vTPH+fm5Sb4bPt2FhHMQgAAEIAABCEAAAhCAAATKJtAr9LKvHL57p4IufQyZzhtulm0RRpcmgB7SjBZWAkkszOCJ6aKHBCBOQwAC/QjgTPpxmnmpvDLoFXrZh10jJmZuVaYHAQhAAAIQgAAEIAABCMyaQDr00qHe6D9P5dhsNqOPhDGUQAAZQCAggIso4cIsZwyBPMoZGCOBAASmRQBnAgFNIFc8mA697u7uNpvNuD/zzjkXO9oZiwB6GIt8sf0iiWJNM8rA0MMo2OkUAvMjgDOZn013mFFeGaRDrx2GmL1K3jlnHx4NDkwAPQwMvPzukET5NhpyhOhhSNr0BYEZE8CZzNi4/aeWVwbp0OuujKM/IEpCAAIQgAAEIAABCEAAAhAojcA0Qq+84WZpNmA82xJAD9sSm315JDF7E281QfSwFS4KQwACbQRwJm1kFpWfVwbp0Ov29vbu7m70n4uyMZOFAAQgAAEIQAACEIAABGZGIB16lfC+Yd5wc2YmXOB00MMCjd49ZSTRzWdpZ9HD0izOfCFwIAI4kwOBnVazeWWQDr1uyzimZSRGCwEIQAACEIAABCAAAQhAwCUwjdArb7jpzp/0FAmghyla7aBjRhIHxTu5xtHD5EzGgCFQJgGcSZl2GXhUeWWQDr1uyjgGpkx3EIAABCAAAQhAAAIQgAAEMhLoFXrd3t7e3NyM+DNvuJkRH02NQgA9jIK95E6RRMnWGX5s6GF45vQIgVkSwJnM0qzbTiqvDHqFXiU899oWE+UhAAEIQAACEIAABCAAAQiUQ2AaoVfecLMc+oxkNwLoYTduM66FJGZs3B2mhh52gEYVCECgSQBn0mSywJy8MkiHXh/LOBZoaaYMAQhAAAIQgAAEIAABCMyGQK/Q6+bm5uPHjyP+zBtuzsZ4i50Ielis6dsmjiTayCwzHz0s0+7MGgLZCeBMsiOdYoN5ZdAr9CrhudcUTcWYIQABCEAAAhCAAAQgAAEIaALTCL3yhpvYfuoE0MPULZh9/EgiO9JJN4geJm0+Bg+BcgjgTMqxxYgjySuDdOj1YcfjR49WznH/2esd26mqJYh/eSydHZ9Fyp3pc85oVsdfRsqRNSMCb08eKIMfPX/bnNTb50euGFT6wUmz3NnjulS0HdXym5OjFXJqMi4vZ38XIbY2moi6GjVrJZuYnMojsrwRVRowNnR/P3aWjn6GrvClCne5EWc84ZIkzba6neWZjhlDoEACwV4ivIrNDsF4mnDVSFWP7F3xCQXKYIchHSj0ev3s/urB92y0pcOwB89e7Rh+JcNNu7xFpL8R+TqbIS13FLyDXAqpktSDjoiUv3PsbgevBeBIRTs4zy2KokyO7JBCwThbLqcp2wmJQQkkJbGvi/C2wjqwN/IwE7VdRFVnSvF7CAJJPdhBiDc4OnljMnoY2hSt7rwYzxBRRZcbkY4q1yEexnEj0pQbDdZdkoIABAYl0OpM1GVbrwJVHOVett3OJFld713dBgedN515BFpl4JXq++FQodfrIMp69Uw9hDj+0Y6x14cPnROSrfPjY/V0KyLTMPTabGRhi23KO3vh5GQI6O3U8eOj1crZVJnhN0KvzSbY+gQf9aMMpym1oxL9RJoyvfC7JAJ7uoiGx5A1tfY29Ta66W1KwsBYQgLKXiZ22kSWhsDQXvWUKjrdiPIh9WrlxVriVeotndcnHyAAgUIIvHkbvCwjt1rsliPlHxLVgzs7hcyZYeQhcKDQqxlhyYOvXUOvRLgpK9zR8zN5x8zq3gJqbobkknBuV9iiJCZBIKEHHVqvjs9EGM7+pppcJF6qJFQ5Uu9eta7kF7CUIk3ZcyQGJJCQxJ4uwrt5qWfV5kOa3mZACnRlCCT0YIqFV/oWho5ujDxVhI1vqls8OtJTZ+vQS95TrT4G0aAZK78hAIExCPR0JurOjfpbBrMF3cqZyLy86uZlRefG0BiTp09DoL8MTI2u3+nQ632e4/TT1Wr12enOjbVPQq92Su56H9xQanMzJDnOstfeOGcmSKCOuMTQjRi7GS/5Li8mj5ab382mJshr9kPe10X48qhwycbarLI1wqa3qc+RKotAY2+0jaH9bZaZmKOKhBvxQy8l0Tok440Mw5PfEJgQAdeBuGk7Bcc/2Lw6EVZpOKi6KKmJExgq9HqhIq/7z17vFnp1hZvenji67wkyvRuTEzffQoffpQf/5UDxZeHXYISZwRMtT1GWcKCiKj9syhYnMSyBLkl4Bo3aMcgMXUR0vWwxfdDUsBTozRDo0oMpIxb0gudtDC3Pqewdbq9NcTie6sxp9w+Pldsxvdu0TdgaJCAAgVEJ9HEmMkBv4djKmTSrqxzZmTh/AjoqhcV33lsGvUilQ6/r62sbL+2Y/unT++obDz61z7x2aKdtNsEGKCZ32QyZr5jRv1FzG8/p5/t739gGSGvGU4R7m1mq9Hh2qlAF8ps+vRnOILDRDi5CqoR/exM0a8D58jO5/C6PgFjKf/dhG0Pr0KtdFX3ciGytxBHpGEwNqeF5yiPHiCAAgQYB8R719buVM6m+Gje4/Gv/oHcr5k5No2syJkcgHXrZuGvHhDzvUoHXix0beP/+fXu46d1mUPS1WL0FtbEZ0mXc3fbk7LbsAbfrwftrCoGkFeL5rMamWZcxD8f67JkM/0ZT5gS/hyXQLokMLmKbRbThbYblQG+aQLseKkLRK3cbQ+cIvXxryZAkltM3jHRMFvvvMfx6fIIABA5IIOlMqq/n8b9ReRtnUu1AOr8a19+lHHC6NB0n0EMG8YrR3HTodb3HcfqZDtbvP/3TPVqRqtHRtwZa3p/3RDZD0XU33gW5UyKg3VMk0HLvJces74hE73u86F3dk4p+f2asqSnxmv9Y2+7FbOMiZBH1RGUeeIaZlU64rVO6sMRRNMy0jaE7XjgUVWzjRhQtKS+vYyhXU/mrOrN0oIwPAgsloK/0xtdr93UmLdVjMGUT4q1csVLkTYHA4UKvr5/ek7jr3tOv9w27rtvCTRG3ju7Cn84rhc6u2ppE5O5ux+0ZEuUTaNND/d95hXLw/oOvaLwkWtKvD0WjrGgmLxyWIpY2SWRxESKYMMqKZhJ6FSKINj1Uw2vx/1GbRjPbYm+ncNRjRDNVY+rreeV2j7RQv8eoBBzeBiqEMcOAwCIIdDkT806gs+GsmDiuoKYUZrZXr+s4KVnOwpXIOU/ygAS6ZLB9t+nQa71eX19fb/vz5SPZ/D56uUPdaF+xqcky1rhzWe2/6+UqVqxl6Y31Qt5kCIhfM+8NOqMOHFa0mJTRO57YHXFxkS3uNdKj0znJEQnErn3zhMHZ0caKuS4iYv2YSNREY02NCICuYwTCDZAts4Who38E76rCTZsOIu2rUzKeKtxSaWdRCz6ahvgNAQiMTUDWiPrLcoLhRC523yd0Vw9ak4/BTiZWhLxpEEiHXrs8svpT+V6Nz053qRurEw83RdmxJ1ei7/qxbGQzJEsdO+ZpaLQ5yrge7H/n1azgSyVmfU8kUsC7t+QEZl7rsaa8AnwYhkBcEr7dnZFs6yJEHvXdnOj/6aSb94Tk9EhyUAJxPVRDCKzvDqy/oU2Y3a6K3m5EdWoXMlXLCb2U53G7cAdLGgIQODyBNmeSCoQSziRVvTkxFpcmk+Fy2mSw2wjSodd6h+OLh6vV6uEXO9RsrdKYnl4+vf2xLaM3xGYxa+hVNmSsZxbXTBJdZhUNmGi8ES81teRvzqTl5iMvc7uaGL5MBTXNWo9zaxfhRXHSsrM/rtvlqZfDotRkY0vkDrTL0A1FdRU2rxEat9P2VdFqB+ZqyX3cKumo53GHTBoCEBicQMcqYMbS5R/S1c8e13dkzDd5xHe8pj9+T4bAQUKvV/rL5Jt/b7O6/+Sr1uCq40Qk3NTPat0Vy2XundXbbm80LGYurcmlI3qo/juv1ihI7jBVZ/W22xNEREh6m6VLtfq7RhQ3OZYzGXBEEp4TaEzTO9vPRcg6Wsmm9UGENBWRU2MAZBySQEQPtjsxvbkxZ3OdRKuhG6GX/U5dLYuIKhJuRBxIw71ocUqbLFWOYUhCYAQCLc4ksmpEVodWZ5KurjctVZv+1yeOQGHxXbbIYEcu6dDryhzr9dokr4ZP7zg/qkEAAhCAAAQgAAEIQAACECiAQK/Qyz6PurpSQZc+hkznDTcLwM4Q9iKAHvbCN8fKSGKOVt19Tuhhd3bUhAAEHAI4EwfGcpN5ZdAr9LIPu0ZMLNfgzBwCEIAABCAAAQhAAAIQmD6BaYReecPN6Vtt6TNAD0tXQGP+SKKBZNEZ6GHR5mfyEMhHAGeSj+WEW8org3TodVnGMWGLMXQIQAACEIAABCAAAQhAYPEEeoVeV1dXl5eXI/7MG24u3uiTB4AeJm/C3BNAErmJTrs99DBt+zF6CBRDAGdSjCnGHEheGaRDr4uLC/vca8T0mMjpGwIQgAAEIAABCEAAAhCAwH4E0qGXjbtGTOQNN/cjRu3xCaCH8W1Q2AiQRGEGGXk46GFkA9A9BOZCAGcyF0vuNY+8MkiHXhdlHHsxozIEIAABCEAAAhCAAAQgAIFRCWwRel1eXuoXDu1PHZQNkJ833BwVOJ1nIIAeMkCcVxNIYl723Hc26GFfgtSHAASEAM4EIWw2m7wySIde5+fnFxcXo//E9hCAAAQgAAEIQAACEIAABKZLIB16lfC+Yd5wc7rWYuSaAHpACQEBJBEAWfhH9LBwATB9COQigDPJRXLS7eSVQTr0Oi/jmLTNGDwEIAABCEAAAhCAAAQgsHAC0wi98oabCzf5DKaPHmZgxLxTQBJ5eU69NfQwdQsyfggUQgBnUoghxh1GXhmkQ6935jg/PzfJd8Onx4VO7xCAAAQgAAEIQAACEIAABPYh0Cv0sq8cvnungi59DJnOG27uw4u6JRBADyVYoagxIImizDH6YNDD6CZgABCYBwGcyTzsuOcs8sqgV+hlH3aNmNiTGtUhAAEIQAACEIAABCAAAQiMSCAdeulQb/Sfp3LYL9cffTyMZFwCCAACAQFcxLiXZGm9B/IobXiMBwIQmAoBnAkENIFc0Vo69Lq7u9tsNuP+zDvnXOxoZywC6GEs8sX2iySKNc0oA0MPo2CnUwjMjwDOZH423WFGeWWQDr12GGL2KnnnnH14NDgwAfQwMPDyu0MS5dtoyBGihyFp0xcEZkwAZzJj4/afWl4ZpEOvuzKO/oAoCQEIQAACEIAABCAAAQhAoDQC0wi98oabpdmA8WxLAD1sS2z25ZHE7E281QTRw1a4KAwBCLQRwJm0kVlUfl4ZpEOv29vbu7u70X8uysZMFgIQgAAEIAABCEAAAhCYGYF06FXC+4Z5w82ZmXCB00EPCzR695SRRDefpZ1FD0uzOPOFwIEI4EwOBHZazeaVQTr0ui3jmJaRGC0EIAABCEAAAhCAAAQgAAGXwDRCr7zhpjt/0lMkgB6maLWDjhlJHBTv5BpHD5MzGQOGQJkEcCZl2mXgUeWVQTr0uinjGJgy3UEAAhCAAAQgAAEIQAACEMhIoFfodXt7e3NzM+LPvOFmRnw0NQoB9DAK9pI7RRIlW2f4saGH4ZnTIwRmSQBnMkuzbjupvDLoFXqV8NxrW0yUhwAEIAABCEAAAhCAAAQgUA6BaYReecPNcugzkt0IoIfduM24FpKYsXF3mBp62AEaVSAAgSYBnEmTyQJz8sogHXp9LONYoKWZMgQgAAEIQAACEIAABCAwGwK9Qq+bm5uPHz+O+DNvuDkb4y12IuhhsaZvmziSaCOzzHz0sEy7M2sIZCeAM8mOdIoN5pVBr9CrhOdeUzQVY4YABCAAAQhAAAIQgAAEIKAJTCP0yhtuYvupE0APU7dg9vEjiexIJ90gepi0+Rg8BMohgDMpxxYjjiSvDNKh14ddjx8dr+rj+Ee7NlPVSxD/Und2fBYpd+YORA/p+MtIObJmRODtyQNl6qPnb5uTevv8qFamTj04aZY7e1yXarTjiypWvdkvOWMS2N9FvDlxdBO6mkBUeJgxbd3Wd6WB+rquU4+dpaPT0GHbqcJdbsQZTygYabbhdsLO+QwBCIxIIO32O/1Dqrq/zRBvhU8Y0dwZuz5U6PWj49WjlybaevVMbYPvP3ttMrb9nQw37fIWLmAKlcjX2RxruaPgjDIauKmkHjbW3zl2t4PUAnCkoh2ct5kWRZkc2SE5glFxnfNRVz86eWN7IDE0gaQk9nURvZlAXgAAIABJREFU3lZYB/ZGHpvNRimk/lgtqO5ufmgeS+8vqQcLSIzlXLzdhrbVdCJVuMuNSN3KC4mHcTySCAz9BLT5CIExCLQ6k6Tb7/YPyep674ofGMPozT5bZdAs2iPnUKFXEFzJE7AHz14F2Vt87JyL7H0fH6unWxGZhqHXZiMLW2xT3tkLJydDQG+njh8frVbOpsoMvxF66a3zqt76hDuhjWyhbFNv3wZRlnjYmPZMl/wemcCeLqLhMQKLv3kbPDX1BTPy5Om+nYAShnMbJWVor6FU4U43ohRSr1bSlPkoDqqO5L0++QABCBRCIOH2U/4hUX2j7yA73qmQaTOMDAQGCr1ef+/BarV76JUIN2WFO3p+Ju+Y2f2xpdMSejl3qW1REpMgkNCDDq1Xx2ciDGd/U02uLfSyPs67V60rVRoLNtiWlt7ZO+8s2TMkBiGQkMSeLsK7eannI8tquw/RwT8PQgcxfqSThB5MjfBK38rQqcJh49XT0SrS80MvublThV5BNGjGym8IQGAMAj2dyWaz8dx+yj80p+JV3xB6NQmNmdNfBn1GmQ693uc4Tj9brVafnu7RVPtk9B5IRVx6S2030KZKM/Rio2zYzPJ3HXGJoRv7Y62T+hlX4DGjT/nFjTajOMMPRRkSJf7e10WEK6LMUTbWzRs91fyjVUpks+QxNfZGUau1GTpVOOYTHDfih15KonrlUvm8kbFkWTL3yRJwfYKbthNqcya6QFil4aBsOySmTmCI0Ov1s/sq8Hqxe+DVFW46i1nzz7rEPLIE1otZ4nb11C26hPF36WHjvRwovsx5k1DohJnBEy1PURZnoCKbL4mgBf8knwYg0CUJz6BROwaZoYuIrpehirxJhi14J/lweAJdejC9hxsd33WYUtUdPfdOjT6VUIWnOtuYozTlNEzobtM2YWuQgAAERiXQx5nIAD23n/APkRl51dV52Vc0PU+kKlmHJ9BbBr2Gkg69rq+vbcy0Tfr103vm66PuPX39/v02dVWHQfm22QQboJjcZbUzY9G/UXMbz+nnO5sb88g+eFqlNeMpoo7M257y+826mPQeq/FszS1CekQC+7sI8Srh394EzboTlPLuXxC5J0kXQkCuaPPnVXpMWxk6UVjcQuIVDNlaiSPSMZgaUqNKIbgYBgQg0EUgcPsJ/9BoKaiuztf+Qe9WzJ2aRl0yJkcgHXrZuGv3xItPlXAkANutkfZwM36fwN9qNzbNWtDubntydlv2gNv1UHkrZ/uiFeL5rMamWZcxD8f67Jksf+McCeYtklES7ZLI4CK2WUQrLfHO2CgysJ2266Eq0nACKn8bQ6cKb+VGZFAyJInwq7s5atl0XJmdHAkIQGA4AklnUn1z28p7VXgbZ9Jn1fB3KcPNnp4qAj1ksAWrdOh1neWQ6Ov+s693biw+J73x9e5cSqDlPYJohF7V3/aYrXa8aXKnSEC7p0ig5e5gYrsuRyR63+OJyvwXBX6mvk1VvzU0RWCzH3MOFyGG9kQV/kW1xmh3zL5OZs94ghMUR9G4+9bX0DLhROHebqSiJ+XlDo7yRZW/qjMnyJghQ2AJBFrcfsI/WDIt1e15J9Hc3DonSU6KwFCh1/WpevL12eluoVdbuCni1o9iw5/OUwhnV21tI3J3t+P2DInyCbTpof7vvEI5eLejYqGXew9bBBPunoPMPrepygc5nxG2SSKLixDBpEIvnn+WpKY2PVRjbPH/vQxtppkqHHgMXS2aqQJ59fW84nOk2frtViXg0BeZEfAbAhA4PIEuZ9Lu9lP+QcbdXj06rWg4Fy1JZnYCXTLYvrN06LVer6+vr/f+efpQQq+d24lNTZaxxp3Lav9dL1exYi1Lb6wX8iZDQJxd5GFm4LCixaSM3vHE7oiLi7TxvBRmS1S+MGLXfuQvAGPFXBfhW1+m7YtECvP8s3xB6BFGd0XqVNLQ7gwThX2F6IqRKuqEjKcKt1TaWdSCj27/pCEAgTEJdLv9yMXu+4Tu6rGJBTuZWBHypkEgHXrt9pwqrLXfC4fxcFOUHXtyJfqu3zmM7KtkqYvs0adhtMWPMq4H+995Nfn4UolZ3xOJFPCecjiBWfU9HNyKbmIeMScuCd/uzvC2dREij/puTvhdLKyIDtsiknE9VEMLrO8OOGFot2j1hbrtqki4kbot1aldyFQtJ/RS0nK7qGuRggAEhiDQ5kxSbj/hTFLVm1OTBh3n0CxBzuEItMlgtx7Todd6h+OLh6t7T17Zil89Ud8u7+bYU70Tjenp5dPbH9syem9tFrOGXmVDxnpmcc0k0WVW0YCJxrU87CMs8zeyrpb8zZm0XJcPPs4E3/ymkdVFiNGNS5GW6yUw+Dg/kjObUWNL5M4vaWj7jfDmKVmLKsxrhMbtxB6pqY7VDqzWkh/Vy33x2vO44yQNAQiMSaCH2086E/fCb8zl7HF9Rya2S2lUIGM6BA4Teq3X6y/UC4b2ePhF7xgrVjASbupntW3C9c7qbbcdi0qwmE1HopGRRvRQfTtZq2XlDlN1VodeniAiQtIbd13Kjcqq/+fHq1598IpFxk3WwQhEJOE5gUbH3tl+LkLW0crU3oOISPVYscYYyDgYgYgebF9iehMv2Vwn0Wpo7RP8y7y1sG6w1Y1Up58fRd5T1eIUDbFUOYYhCYERCLQ4k35uv9U/pKvrTUu1lPhfnzgChcV32SKDHbmkQ68rc6zXa5O8Gj694/yoBgEIQAACEIAABCAAAQhAoAACvUIv+yDq6koFXfoYMp033CwAO0PYiwB62AvfHCsjiTladfc5oYfd2VETAhBwCOBMHBjLTeaVQa/Qyz7sGjGxXIMzcwhAAAIQgAAEIAABCEBg+gSmEXrlDTenb7WlzwA9LF0BjfkjiQaSRWegh0Wbn8lDIB8BnEk+lhNuKa8M0qHXZRnHhC3G0CEAAQhAAAIQgAAEIACBxRPoFXpdXV1dXl6O+DNvuLl4o08eAHqYvAlzTwBJ5CY67fbQw7Ttx+ghUAwBnEkxphhzIHllkA69Li4u7HOvEdNjIqdvCEAAAhCAAAQgAAEIQAAC+xFIh1427hoxkTfc3I8YtccngB7Gt0FhI0AShRlk5OGgh5ENQPcQmAsBnMlcLLnXPPLKIB16XZRx7MWMyhCAAAQgAAEIQAACEIAABEYlsEXodXl5qV84tD91UDZAft5wc1TgdJ6BAHrIAHFeTSCJedlz39mgh30JUh8CEBACOBOEsNls8sogHXqdn59fXFyM/hPbQwACEIAABCAAAQhAAAIQmC6BdOhVwvuGecPN6VqLkWsC6AElBASQRABk4R/Rw8IFwPQhkIsAziQXyUm3k1cG6dDrvIxj0jZj8BCAAAQgAAEIQAACEIDAwglMI/TKG24u3OQzmD56mIER804BSeTlOfXW0MPULcj4IVAIAZxJIYYYdxh5ZZAOvd6Z4/z83CTfDZ8eFzq9QwACEIAABCAAAQhAAAIQ2IdAr9DLvnL47p0KuvQxZDpvuLkPL+qWQAA9lGCFosaAJIoyx+iDQQ+jm4ABQGAeBHAm87DjnrPIK4NeoZd92DViYk9qVIcABCAAAQhAAAIQgAAEIDAigXTopUO90X+eymG/XH/08TCScQkgAAgEBHAR416SpfUeyKO04TEeCEBgKgRwJhDQBHJFa+nQ6+7ubrPZjPsz75xzsaOdsQigh7HIF9svkijWNKMMDD2Mgp1OITA/AjiT+dl0hxnllUE69NphiNmr5J1z9uHR4MAE0MPAwMvvDkmUb6MhR4gehqRNXxCYMQGcyYyN239qeWWQDr3uyjj6A6IkBCAAAQhAAAIQgAAEIACB0ghMI/TKG26WZgPGsy0B9LAtsdmXRxKzN/FWE0QPW+GiMAQg0EYAZ9JGZlH5eWWQDr1ub2/v7u5G/7koGzNZCEAAAhCAAAQgAAEIQGBmBNKhVwnvG+YNN2dmwgVOBz0s0OjdU0YS3XyWdhY9LM3izBcCByKAMzkQ2Gk1m1cG6dDrtoxjWkZitBCAAAQgAAEIQAACEIAABFwC0wi98oab7vxJT5EAepii1Q46ZiRxULyTaxw9TM5kDBgCZRLAmZRpl4FHlVcG6dDrpoxjYMp0BwEIQAACEIAABCAAAQhAICOBXqHX7e3tzc3NiD/zhpsZ8dHUKATQwyjYS+4USZRsneHHhh6GZ06PEJglAZzJLM267aTyyqBX6FXCc69tMVEeAhCAAAQgAAEIQAACEIBAOQSmEXrlDTfLoc9IdiOAHnbjNuNaSGLGxt1hauhhB2hUgQAEmgRwJk0mC8zJK4N06PWxjGOBlmbKEIAABCAAAQhAAAIQgMBsCPQKvW5ubj5+/Djiz7zh5myMt9iJoIfFmr5t4kiijcwy89HDMu3OrCGQnQDOJDvSKTaYVwa9Qq8SnntN0VSMGQIQgAAEIAABCEAAAhCAgCYwjdArb7iJ7adOAD1M3YLZx48ksiOddIPoYdLmY/AQKIcAzqQcW4w4krwySIdeH/Y/Xj5arVar+89e79FUgviXx6qL1fFZV7m3Jw+kVPXj6ORNV2nOTZlAZeuj52+7ZlHJxqjisS+fNydH5kyHtM4er1YPTjq76RoC5wYikMNFKFubo1VaIpvjLweaFt3sRuDt8/riDo3V78Kv+k0V7tKM43+iY2jV2G5zphYEIJCVgOtG1Aa06fY7/UOq+pne15o1R/3GJ2Q14GiNDRB6/UgCr71Cr2S4aZe3iPSFrS7gq/bseEX0NZry9uk4qYeN9XdtQVFVwIvVlR+00ZcUMILRgZxXeLPZWNUReu1jzSx1k5KwxtrZRUgLRgOyaTbyMDOwqouuwaYUvwcg0KmH4HJ+e/LAmHWz0a7DWDYo2Rh4ykt0aUbqVmoUOTnKlH6tL2p0SwYEIDAYgVZnoi7b2nVUcZR72Xb7h2T1jYReboODzZmOGgRaZdAo2Sfj4KHX6++ZJ00HfOqlBXqs7hDEZCrrH1FWHz3MpIw4waPjx0eraHStt8gxqZj5y9bHDduCKvW2SbTnljRN8LskAnu7iHBzrAPv2qsoJyMy0Auws40uCQNj0XdMWi/Y1IXvAUwV7tSMEkztgrxYSyRUb+m8PvkAAQgUQuDN2+BtF3+rmfIPierBbaBC5sww8hA4cOj16tmD1erB956pB197hF6JcFNWuKPnZ/I+Yb0ZqghVZ4NrJA8+WhmFQEIPG3F5q+MzMb2zv9GDNWc7hu7drOquRejVwXG4UwlJ7O0iZE31d8MtjoXQazirt/fUqof6pkms8hYXfnRj5PmWbs34oZdE8lUkplyKeewWGyR5EIDAgARanUljDPqeb/WXLFs5E2nKqx4+gW90RsawBPrLoM+40qHX+92P10/vrVb3nr5+f/rpSid2b6t9Mnq1UxGX3vQEi1Zk/WtvizNzIFBHXBIXOa8EqNlFHGI46dADynkRUiOw168EtN5ED1vm8xgE9ncR+qFZ7E8B6wcX1cy0F+Kp1xiGTvcp1vFDaKfSNhe+Xm5Ch+B4iYRm/NBLSVSvXCoff+IYhSQEpkLAdSBu2o7f8Q82r06EVXrsVerKpCZF4ICh1+tn91er+09/+v793qFXV7gp6jRPNmS189atZs6k7MNgYwS69FD9CVa1JRJf5v3xazOn2UPUP7ZURGBNfiPkdElifxfhtWBnFzd9i05sLRJDEGjRgwThD07eaoNWf71eR2LbXPjhG6d6VrX1k5pRd4hM5GbTNjEEJPqAAATSBFqcSbOivsdX+ZOtnIm05VVXOXITmbt4TdCj5PSWQa/RpUOv6+tr+6xqi/RPn6rA69nXUjd86rVFO1L/+vq6bTb1UiclQrnH17+2xsifAQF/Q9wQQKiQ2IylTL0h00UCpZl6fncml9/lEAgMFwqgoZDIyKVM8Dh90/LAM+gu0hpZoxHQmxv3u3Dl+jUPxre58HXo1e4l+mhGtlYSAOoYTA2mIbPRYNExBCDQn4B4j/r63cqZ2G/t8i7/2j/ou0TmTk3/MVGyVALp0MvGXdskglgr+LhNS1K2PdyM3ycwD8Gqt8vqj6WagXFtRaBdD9WNIsd/aYXUPivcecc63sZpEnrFCA6e1y6JHC6izzbaTJnQy5AY83eLHnSg5T0G17eWtcfY5sLPEXr5hEQ5Esvp2wE6Juv+7zH8FvgEAQhkJ9DiTNx+zD0d55WrbZxJpLrbuqSrMjwEa5AZKKOHDLYYSTr0ut76+Fr9idfq09O6YhV6fV3nbJ2Kz0nfFfD+3MK7i1ndmfYKxFsidxYEtHuqA63NJvwLQNnfeAWaE4+GZy0VCb2a/ErKyeIi9FY4dCNi+jCz0hsLZEkisGMJVgedX1/C21z4HS8cinvZRjNqHFJeZKPGU908qjPtFEhAAAIlEdBXeuPrtfs6k5bqsRlG3VesIHnFEzhA6PVCfadG63Hv6Q4BWFu4KeKOd2W2PnovHr4WUrxdGGAXgTY91P+dV1MU9naU7MWdx2KRjqJRVjSz7a2zSKNkHZJAmyQyuQhZ88IoK5pJ6HVIM/duu0UP0eVA7Cj+IXqNRzPNPZ3wJo5TOCqPaKZqTH09rwhMWqgXLCXgUHi9KVAQAhDYm0CLM5F2zTuBZsNZd+a4gvbM9up1HScVDeec8yQPSKBLBtt3mw691uv19fX1fj9fyjccPvl6j3ZiU6uXTO+svotgliu5APw3TLzSfJgPgTZb+w6rRTYuBnGIvjOVvZGN3+rCPVqrC5MamECLdbZ2ETHrR0SiZtcmwoFnTndRAr4r0EVEJHq9iNg0ZnpdL1E4VjFSRbUlmqnCLZV2/EzwMTopMiEAgREIVA+swvsv1UgiF7vvE7qrx+YTc1+xcuQVTyAdem39amCkwr4vHMbDTVF27PGF6Nv85XR1Q7H+WLxNGGCKQFwP9r/zalYPpBJ8bJZv/i/y4iVjYmvZ3EfaJOuABOKSaDX01i5CNsfeEiurYP10ws5NSnKvx/IYJxHXg/nSMO9CFpGY+yxOGKYH3nrhqz+MPw7eMvIL99aMascOKYi1lMzMbcRxUNIrBJZNoM2ZpAKhhH9IVW9Clwad+zLNEuQcjkCbDHbrMR16rTMcLx+q/9fryas9mmpMT2+evM2QLaN3P3Yxq9bIVbAfOju23+1ra5KYLgHZQrVsU8RnOeG3Voh7d7m692x3Od6u3b9Z5SHCG3o4SvqQ10X40Zq3X/cmraVltvLeKT6UQMDf8TS2R10XfkNRXYXNa4TW7bRoRo3H3U658Zuk0VIJsmEMEPAJdOwKTMEu/5Cufva4viNjHiHEd7ymP35PhsA0Qq9IuClrkrdiucyjZ+UycP4IKHLH2m2DdLEEInqo/juvILquZyD7reCs3kjVinBidanoCsaGZHWTOkXoFRIZ5XNEElEnYAcXPetaXOkicBGuYFqXQEIvy3jEREQPzmiqOy9y6YdXvXkyVvkF78LXAvBN72rGK6z7S2hGRuI3aL5yQw+AuMuxG0kIjECgxZno+7mVn/B+uX6g1T+kq+tNS92ye4NmBAxL77JFBjtiSYdeV+ZYr9cmeTV8esf5UQ0CEIAABCAAAQhAAAIQgEABBHqFXvY9wasrFXTpY8h03nCzAOwMYS8C6GEvfHOsjCTmaNXd54QedmdHTQhAwCGAM3FgLDeZVwa9Qi/7sGvExHINzswhAAEIQAACEIAABCAAgekTmEbolTfcnL7Vlj4D9LB0BTTmjyQaSBadgR4WbX4mD4F8BHAm+VhOuKW8MkiHXpdlHBO2GEOHAAQgAAEIQAACEIAABBZPoFfodXV1dXl5OeLPvOHm4o0+eQDoYfImzD0BJJGb6LTbQw/Tth+jh0AxBHAmxZhizIHklUE69Lq4uLDPvUZMj4mcviEAAQhAAAIQgAAEIAABCOxH4JP/5jtvOv79+Mc/tnHXiIm84eZ+xKg9PgH0ML4NChsBkijMICMPBz2MbAC6h8BcCOBM5mLJveaRVwbp0OuijGMvZlSGAAQgAAEIQAACEIAABCAwKoEtQq/Ly0v9wqH9qYOyAfLzhpujAqfzDATQQwaI82oCSczLnvvOBj3sS5D6EICAEMCZIITNZpNXBunQ6/z8/OLiYvSf2B4CEIAABCAAAQhAAAIQgMB0CaRDrxLeN8wbbk7XWoxcE0APKCEggCQCIAv/iB4WLgCmD4FcBHAmuUhOup28MkiHXudlHJO2GYOHAAQgAAEIQAACEIAABBZOYBqhV95wc+Emn8H00cMMjJh3CkgiL8+pt4Yepm5Bxg+BQgjgTAoxxLjDyCuDdOj1zhzn5+cm+W749LjQ6R0CEIAABCAAAQhAAAIQgMA+BHqFXvaVw3fvVNCljyHTecPNfXhRtwQC6KEEKxQ1BiRRlDlGHwx6GN0EDAAC8yCAM5mHHfecRV4Z9Aq97MOuERN7UqM6BCAAAQhAAAIQgAAEIACBEQmkQy8d6o3+81QO++X6o4+HkYxLAAFAICCAixj3kiyt90AepQ2P8UAAAlMhgDOBgCaQK1pLh153d3ebzWbcn3nnnIsd7YxFAD2MRb7YfpFEsaYZZWDoYRTsdAqB+RHAmczPpjvMKK8M0qHXDkPMXiXvnLMPjwYHJoAeBgZefndIonwbDTlC9DAkbfqCwIwJ4ExmbNz+U8srg3TodVfG0R8QJSEAAQhAAAIQgAAEIAABCJRGYBqhV95wszQbMJ5tCaCHbYnNvjySmL2Jt5ogetgKF4UhAIE2AjiTNjKLys8rg3TodXt7e3d3N/rPRdmYyUIAAhCAAAQgAAEIQAACMyOQDr1KeN8wb7g5MxMucDroYYFG754ykujms7Sz6GFpFme+EDgQAZzJgcBOq9m8MkiHXrdlHNMyEqOFAAQgAAEIQAACEIAABCDgEphG6JU33HTnT3qKBNDDFK120DEjiYPinVzj6GFyJmPAECiTAM6kTLsMPKq8MkiHXjdlHANTpjsIQAACEIAABCAAAQhAAAIZCfQKvW5vb29ubkb8mTfczIiPpkYhgB5GwV5yp0iiZOsMPzb0MDxzeoTALAngTGZp1m0nlVcGvUKvEp57bYuJ8hCAAAQgAAEIQAACEIAABMohMI3QK2+4WQ59RrIbAfSwG7cZ10ISMzbuDlNDDztAowoEINAkgDNpMllgTl4ZpEOvj2UcC7Q0U4YABCAAAQhAAAIQgAAEZkOgV+h1c3Pz8ePHEX/mDTdnY7zFTgQ9LNb0bRNHEm1klpmPHpZpd2YNgewEcCbZkU6xwbwy6BV6lfDca4qmYswQgAAEIAABCEAAAhCAAAQ0gWmEXnnDTWw/dQLoYeoWzD5+JJEd6aQbRA+TNh+Dh0A5BHAm5dhixJHklUE69Pqw2/Hy0So8Hjx7tVtbqlaC+JfH0tvxWVe5tycP3DEdnbzpKs25KROobH30/G3XLCrZGFU89uXz5uTInFmtQmm9fe6cXK2Ov+zqh3PjE8jhIs4e14JoSOtM+6CqxIOTTuWNz2PhI3Cv3/Di7bzwQ26pwl2acfxPdAwNjYWd8xkCEBiRgOtGVtFtQKd/SFX31xRZWvAJI5o7Y9eHDb0evdw91nJrJsNNu7yFC5hBpQv4qj07XhF9GUCT+p3Uw8b6u7YdcFXAC6iUH7TRlxQwgtGBnFNY7Znqj5UDtXUnBXMeg01KYn8XIS0Yo8um2chjs9kohTgf9ZKJexlNXJ16CC7ntycPjFk3G+06jCmDko3pdHuJzaZLM1K3WrBETs7iJf3iTxq8yYDA8ARanUlyG9DtH5LVN7KO4AeGN3msx1YZxAon8w4Ver3+3oPVaq/HXG7olXrqpQV6rO46x2Qq6x/boKQY5lNAYqGj48dHq2h0LQ4xKhWDQLY+btgWVHnzNnimgcYMujJ/7+0iws2x3lVbr/L2bfAIPRBMmVQWOSp1qbqXtgchdeFvVbhTM2oY9WrlxVrivpxo0OuUDxCAQBkEEtuAlDNJVA9uA5UxZUaRicA0Qq9EuCkr3NHzM3mf0G6GDKHqbLBVNmf5PUECCT3IIwj1VEpM7+xv9FTFITrPrCIAvJtVvWrpYI9XWCMwB8lKSGJvFyGhtb8bTjgWblgOYviWTlr1IJe283zJr7/VhZ8q3K0ZP/SSSL6KxJRyzGM3f3h8ggAEBifQ6kwaI/G2ASn/0Ki98aqHT+CbxckZlEB/GfQZVjr0er/T8frZ/dXq/tOf7lQ5Vql9MnonrSIuEW64aEXWv/a2ODMHAnXEJdvfIMqKOMRw0qEHlPMipEZgb6pGq5iT/B6XwP4uIhZHiZAagb2daayKPUliJAJynfohtDOS6FXcduGnCscE4GjGD72URHW4pfJbH8o5YyUJAQgURsD1CW7aDrPNmegCYZUeexXbMolpEThU6HX62Wq1+vQ0FkTtkNcVbjqL2Ua/GuutW7L+eTnTMhCjjRDo0kP19xVVjCS+zPsOjGZOs4Oof+ys2ONJWrMbcvIR6JLE/i7Ca8EOutO3JJ6J2UZIHIRAix7kOn1w8lYbtPpGlDoS2+rCTxROakYpxNzKsWmbOAgVGoUABLYm0OJMmu1424CEf2jWtm/r2FOyiLQ+orfFSAxCoLcMeo0mHXpdX1/bYKl/WkKv+tvAVveefr1TO7rr6+vrttkEG+JQ7vH1r60x8mdAwN8QNwQQKiQ2YylTb8h0kUBpbj0pHz5udQuQHpFAYLhQAA2FRIYqZRrvgPlKc6vpNoPHrW4B0uMQ0Hsj9VVk5stMxYjm41YXfqJwH83I1kp/b5m8q6wG05DZOKToFQIQ2IpAsA1I+IdG00F1db72D3ovbe7UNOqSMTkC6dDLxl27J3769L5Szu4PwdrDTe82Qy1W++fLffZVkzPa4gfcrofKWznbF62Q2meJg6s/Rllu4zTNZo4nq1GUQ2W2SyKHi+izjbYzNesldystkuETLXrQgZb3GFzvb+qX/UwYZscchO42P+ElttKMNCodSUyoly0dk3X/9xg/Noh2AAAaA0lEQVR2NCQgAIHDEGhxJm5nkW1Awj+4tavnXd1vGlddsKx45Ab80EMGW4wmHXpdZzlefKrWkc9Od24sPie9y7GBlirk3cWsPnoF4i2ROwsC2j15kZXeOdlgTD56BZoTj4ZnkYp2h4TAmhALycniIrShQyuLq/EzRTmr+kWyQiAwjIpAsDroXMmUWyd9L3yplyjcWzPV0KS87KvUeCp/VWdWpfgFAQiURUBf6Y2v1074BzuHlur2vJOIui/nPMnpEBgq9Lo+VbGXvHa4Q/TVFm6ajY5+Guv9NPcGGve8p2MbRtpGoE0P9X/n5WlBPtinUrIXt5FYtItIlLVpfPsQDzei7EbKbJNEJhcha54fZTVu60RufI4Eg243LXqILgd16NXrwjd0U4X7aMa0pW97i8CkWfs+pPvNh7YwCQhAYDgCLc5EBtC+DUj5h0T16PSi4Vy0JJnZCXTJYPvO0qHXer2+vr7e++fpQwm9Xu3aWmxq9ZLpndV3Ecw+SS4A/w0TrzQf5kOgzda+w2qRjYtB/KmJ3vUJ2bTZ+K26U5V4euY2SXoMAi223tpF+NbXM/FFUsV4xu2MMVn6TBPwXYEu78RIvk3ldMz0ul6icKxipIpqyw23VNr6GX3K+ah75icEIDA+ge5tQORi931Cd/XY9GLuK1aOvOIJpEOvHR5SRarIC4f3n30dOdUjKx5uirJjjy9E3/Ur+8HH4m3CAFME4npofkGQbSeQSvDRFqsTzm5MZ4qXtGLDA9aoykjFJdFq6MAnBB8jU5LNsRdpiwbM0wk/lovUJ2tYAnE9mL9ctxeyGpSIxNxnSVz4/iQShROaqdtS7dghBaGXkhnxfM2KFASGJtDmTFLbgIR/SFVvTlMa5EZME8wgOW0y2K3zdOi13uV4+XB1/8lXpuZXT9TXbNx78spk7PC7MT29W/I2Q7aMrHn1Ymb+ACx49nV2bL/b19YkMV0CsoVq2aaIz6qj8eq/gHPvLlf3nu0ux9u1i9hqlxd8nC6yeY88r4vQrZlYy9uvB9v3eVOd/Oz8HU9je5S88N1Vo6uw8ignD5xvUww0Y0Cq8dS+ZaPfmq4iMQnpTVhoKvAbAhAYn0CPbUCXf0hXP3vsbmK1M4nveMeHwQi2JHC40Mv7a5v7T/cJu9aRcFPfZnZXLHfm0bNyGTjDMrsotyLpKRCI6KH677yC6LqejOy3grPal9WKsDeeq2quYGxIps7pQK6uWKe8YnXvpA5NICKJqBOw44iedS2ujBq4CFcw3hKo7/XUMqhTXjHbOYlDE4jowenStVd41ZvnYJUNvSs6tvtxNeMV1v21aqY6/fwo8qUsWpwyAuIux24kITACgRZn0m8b0Oof0tX1pqVeTNq2uyMgWWKXLTLYEUU69Loyx3q9Nsmr4dM7zo9qEIAABCAAAQhAAAIQgAAECiDQK/Sy7wdeXamgSx9DpvOGmwVgZwh7EUAPe+GbY2UkMUer7j4n9LA7O2pCAAIOAZyJA2O5ybwy6BV62YddIyaWa3BmDgEIQAACEIAABCAAAQhMn8A0Qq+84eb0rbb0GaCHpSugMX8k0UCy6Az0sGjzM3kI5COAM8nHcsIt5ZVBOvS6LOOYsMUYOgQgAAEIQAACEIAABCCweAK9Qq+rq6vLy8sRf+YNNxdv9MkDQA+TN2HuCSCJ3ESn3R56mLb9GD0EiiGAMynGFGMOJK8M0qHXxcWFfe41YnpM5PQNAQhAAAIQgAAEIAABCEBgPwLp0MvGXSMm8oab+xGj9vgE0MP4NihsBEiiMIOMPBz0MLIB6B4CcyGAM5mLJfeaR14ZpEOvizKOvZhRGQIQgAAEIAABCEAAAhCAwKgEtgi9Li8v9QuH9qcOygbIzxtujgqczjMQQA8ZIM6rCSQxL3vuOxv0sC9B6kMAAkIAZ4IQNptNXhmkQ6/z8/OLi4vRf2J7CEAAAhCAAAQgAAEIQAAC0yWQDr1KeN8wb7g5XWsxck0APaCEgACSCIAs/CN6WLgAmD4EchHAmeQiOel28srgk/+v8/jxj398XsYxaZsxeAhAAAIQgAAEIAABCEBg4QSmEXrlDTcXbvIZTB89zMCIeaeAJPLynHpr6GHqFmT8ECiEAM6kEEOMO4y8MkiHXu/McX5+bpLvhk+PC53eIQABCEAAAhCAAAQgAAEI7EOgV+hlXzl8904FXfoYMp033NyHF3VLIIAeSrBCUWNAEkWZY/TBoIfRTcAAIDAPAjiTedhxz1nklUGv0Ms+7BoxsSc1qkMAAhCAAAQgAAEIQAACEBiRQDr00qHe6D9P5bBfrj/6eBjJuAQQAAQCAriIcS/J0noP5FHa8BgPBCAwFQI4EwhoArmitXTodXd3t9lsxv2Zd8652NHOWATQw1jki+0XSRRrmlEGhh5GwU6nEJgfAZzJ/Gy6w4zyyiAdeu0wxOxV8s45+/BocGAC6GFg4OV3hyTKt9GQI0QPQ9KmLwjMmADOZMbG7T+1vDJIh153ZRz9AVESAhCAAAQgAAEIQAACEIBAaQSmEXrlDTdLswHj2ZYAetiW2OzLI4nZm3irCaKHrXBRGAIQaCOAM2kjs6j8vDJIh163t7d3d3ej/1yUjZksBCAAAQhAAAIQgAAEIDAzAunQq4T3DfOGmzMz4QKngx4WaPTuKSOJbj5LO4selmZx5guBAxHAmRwI7LSazSuDdOh1W8YxLSMxWghAAAIQgAAEIAABCEAAAi6BaYReecNNd/6kp0gAPUzRagcdM5I4KN7JNY4eJmcyBgyBMgngTMq0y8CjyiuDdOh1U8YxMGW6gwAEIAABCEAAAhCAAAQgkJFAr9Dr9vb25uZmxJ95w82M+GhqFALoYRTsJXeKJEq2zvBjQw/DM6dHCMySAM5klmbddlJ5ZdAr9Crhude2mCgPAQhAAAIQgAAEIAABCECgHALTCL3yhpvl0GckuxFAD7txm3EtJDFj4+4wNfSwAzSqQAACTQI4kyaTBebklUE69PpYxrFASzNlCEAAAhCAAAQgAAEIQGA2BHqFXjc3Nx8/fhzxZ95wczbGW+xE0MNiTd82cSTRRmaZ+ehhmXZn1hDITgBnkh3pFBvMK4NeoVcJz72maCrGDAEIQAACEIAABCAAAQhAQBOYRuiVN9zE9lMngB6mbsHs40cS2ZFOukH0MGnzMXgIlEMAZ1KOLUYcSV4ZpEOvD3sdP3q0Msf9Z6/3aCpB/Mtj6eb4rKvc25MHZjDq99HJm67SnJsygcrWR8/fds2iko1RxWNfPm9OjsyZ1aohLe8sWurCXMS5HC7i7HEtiKa03LOrQEtFIGAQNYG3z+uL+/jLOl+lvEu7ceH7ZZOFXVWEmnH8T3QMYfmgaz5CAAKjEnDdyGq1Cq/ilDNJVT/T+9p61Vmt8AmjGjxb54cMvV6qsOvB90zA9fJRnd4yBkuGm3Z5i0hfWOkCvmrPjom+sglp0IaSeqj3Qw9O4rFXtbvy9lXKD9odsxQwgtGBnFP4zcmR07JWV5v2BkWz1M6SktjfRUgLRgOyaTbyUNDPHjvrrlaXo5ClmmW0eXfqIbic3548MGY1WyVj2aBkYzrdXkJUUd+1CTQjdSunIaccByL9Wl/U6JYMCEBgMAKtzkRdtrXrqOIo97Lt9g/J6hsJvdwGB5szHTUItMqgUbJPxsFCr1fPHqxWj15uGWO1F++cjBbosbpDEJOp7Jl4LtGJcF4nxQkeHT8+ij/b1DvjmFQMBtn6uFvn7irdZ02j/B6PwN4uItwcq1grri6ZZPfZ8TjQsxjOvbQ9JFtd+KnCnZpRCqldkBdrifuqt3TeAPkAAQgUQuDN2+DGru/2U/4hUb16/G5uAxUyZ4aRh8ChQq8fHa9W+71h6EZhiXBTVrij52fyPmEjxKrOBtdIHny0MgqBhB424vJWx2diemd/owdrznYM3btZ1acWd6c6aA5xKiGJvV2ErKn+brjTsejgn1eah7B9rI9WPcil7Txf8itvdeGnCndrxg+9JCCsIjHlTNhv+YbhEwRGI9DqTBoj8tx+yj80am+86uET+GZxcgYl0F8GfYaVDr3e73KcfiqR1y5VW+q0T0bvpFXEJcINF63I+tfeFmfmQKCOuCQicl4JULOLOMRw0qEHlPMipEZgr6v2aDPsg8/DEdjfRcRCazF6I7CvZoXbGc682/Qkl7YfQjvVt7rwU4UTmvFDLyVRHW6p/NaHcs5YSUIAAoURcH2Cm7bD7NpFbAi9LKf5Jw4Ter34dLVaffri/eln9d8H3n/2uiWqSmd3hZveBkhWO2/daubM36izn2GXHqq/r6hiJHF/zh/hVN7Ny2niivrHZlOmIhozJMb73SWJ/V2E14KdZKvd26Vi65I4LIEWPUgQ/uDkrTZotTrVkdhWF36icFIz6g6RuZVj0zZxWDy0DgEI9CXQ4kya1fU9vsqfJPxDs7Z9W8eekpvIrY/obTESgxDoLYNeo0mHXtfX1zY26puW0GulHnx9reu+fnZfPlbRV992TMfX19dtswl2OaHc4+tfW2Pkz4CAvyFuCCBUSGzGUqbekOkigdI24hb15g3nGKNYSl5guFAADYVExi1lGu+A+UqrFk5RhHf3J9IeWSMR0Hsj9VVk5stMxYjmY68L3ww9UbiPZmofomMwNZiGzEx//IYABAomIA6hvn4T/qExkaC6Ol/7B73RMHdqGnXJmByBdOhlwp8tfutAa3XvqfOc6/XTe+pJ2OkWzdRF28NN7zZDLVb758t99lWTM9riB9yuh8pbOdsXrZDaZ4mDqz9GWW7pNKv9HAFYFOYwme2SyOEi+myj3XnqJZMAzGUybLpFDzrQ8h96i7Hql/1MGGbHG4TuNj/hJbbVTPVAXmJCvWzJdstxZbZnEhCAwHAEWpyJO4BqD+C+KpzwD25te9uua8lgm+EhG/5DDxlsMah06HW9/fF19Yzra7eqzvz0hZu3RTo+J73FsYGWKuTdxaw+egXiLZE7CwLaPXmRld452R2MfPQKNCceDc86Kzb2981GyRmFQBYXEb+DI66mzbc4G/pR5k2nMQLB6qCLSKZsera68BOFt9WMlJfbN2o8lb+qM2OzIQ8CEBidgL7SG1+vnfAPdtgt1e15JxF1X855ktMhcJDQ61peOLz/LFvo1RZuirj1o9jwp3kEwZ54OmLsPdI2PdT/nVcoB+cv13vsiaNRVjTTDrn7rC1G4kAE2iSRyUXImhdGWdFMO7/us7YYiYMQaNFDdDkQS0noFb2Ko5mb5t/EyzycwlEBRDNVY+rreUVg0oJ9H9L95sODgKJRCECgm0CLM5FK+tZe7D9TdlxB3XyY2V69ruOkouGcc57kAQl0yWD7btOh13q9vr6+3u7nnz5Vf9r12alb65XKu//kq+1bk95jU6uXTO+svotg9kmidf8NE680H+ZDoM3WvsNqkY2LQRyiid71Cdkbtb8PELpUtzXSoxFosfXWLiJm/YhI3Hm2bbLdMqSHJuC7At27Y6mITWOm1/UShWMVI1VUW+I9qnBLpR0/E3wcmhf9QQACbQSqB1YtL9FELnbfJ3RXj3Uac1+xcuQVTyAdem3xUmBd9OvqL7uCnHtPvQdh9dlEKh5uirLti2QOatF3/cp+8NEpSHKaBOJ6aH5BkJ1dIJXgoy1WJ5zdmM4ULxkTmz6Nxmp2o6Tikmg1dGCv4GNkBs3QWlbB+ulEWKe167Agnw9BIK4H85fr3oUsljL3Wba68BOFe2tGtWOHFMRaSmbmNuIhQNEmBCDQTaDNmaQCoYR/SFVvDkoadO7LNEuQczgCbTLYrcd06LXe7fjqiXrw9eilrm0fee3W2Hq9bkxP75bi9xtkzasXM/MHYMGzr7Nj+92+jdbJmB4B2UK1bFPEZ9XRePVfwLl3l6t7z3aX422dRWy1y1MfzV5NcRIf6uVMj94MR5zXRejWTKzl7dfly11qeVT/d1ygrhkCnuaU/B1PY3uUuvDrb4QPA7nAS5jXCK3bCTRj6KnxNMRTRWJyx8d1NaYSvyEAgXEJNK/3xniSzsS98Bu1zx67m9iu5axRlYzSCRws9FIx1suH9Z/cPKyCsJ1ir0i4qZ/Vtgk3elYug3pEdkUs3UaMLyQQ0UMq/olFR9qX1YqwN56r/lzB2JCsOufXbdNhOHA+H4pARBJRJ2D7j551La50YQKtqpZr9MZNH78u22VLepRERA/OOPS9OX3lh1e9Cagqv+Bd+LHdj2t3r7Dur1MzLX8w5v7NKkJy7EYSAiMQaHEm+n5uvX+oU64faPUP6ep601I3yzZjBOPXXbbIoC6wVSodel2ZY71em+TV8OmtZkVhCEAAAhCAAAQgAAEIQAACRRHoFXrZJ1VXVyro0seQ6bzhZlEGYDA7EEAPO0CbdxUkMW/7bjs79LAtMcpDAAJRAjiTKJalZeaVQa/Qyz7sGjGxNDMzXwhAAAIQgAAEIAABCEBgTgSmEXrlDTfnZL9lzgU9LNPuHbNGEh1wFngKPSzQ6EwZAocggDM5BNXJtZlXBunQ67KMY3J2YsAQgAAEIAABCEAAAhCAAAQsgV6h19XV1eXl5Yg/84abdvIkJkoAPUzUcIcbNpI4HNsptowepmg1xgyBAgngTAo0yvBDyiuDdOh1cXFhn3uNmB4eND1CAAIQgAAEIAABCEAAAhDIRSAdetm4a8RE3nAzFzvaGYsAehiLfLH9IoliTTPKwNDDKNjpFALzI4AzmZ9Nd5hRXhmkQ6+LMo4dSFEFAhCAAAQgAAEIQAACEIBAIQS2CL0uLy/1C4f2pw7KBsjPG24Wgp5h7EwAPeyMbq4VkcRcLbvbvNDDbtyoBQEIBARwJgGQZX7MK4N06HV+fn5xcTH6z2Uam1lDAAIQgAAEIAABCEAAAvMgkA69SnjfMG+4OQ/LLXkW6GHJ1o/OHUlEsSw2Ez0s1vRMHAJ5CeBM8vKcaGt5ZZAOvc7LOCZqLYYNAQhAAAIQgAAEIAABCEBgs9lMI/TKG25i+KkTQA9Tt2D28SOJ7Egn3SB6mLT5GDwEyiGAMynHFiOOJK8M0qHXO3Ocn5+b5Lvh0yMSp2sIQAACEIAABCAAAQhAAAJ7EugVetlXDt+9U0GXPoZM5w0390RG9dEJoIfRTVDaAJBEaRYZdzzoYVz+9A6B2RDAmczGlPtMJK8MeoVe9mHXiIl9kFEXAhCAAAQgAAEIQAACEIDAuATSoZcO9Ub/eSrHZrMZfSSMoQQCyAACAQFcRAkXZjljCORRzsAYCQQgMC0COBMIaAK5ArZ06JWrJ9qBAAQgAAEIQAACEIAABCCwWAKEXos1PROHAAQgAAEIQAACEIAABIYjQOg1HGt6ggAEIAABCEAAAhCAAAQWS4DQa7GmZ+IQgAAEIAABCEAAAhCAwHAECL2GY01PEIAABCAAAQhAAAIQgMBiCRB6Ldb0TBwCEIAABCAAAQhAAAIQGI4AoddwrOkJAhCAAAQgAAEIQAACEFgsAUKvxZqeiUMAAhCAAAQgAAEIQAACwxEg9BqONT1BAAIQgAAEIAABCEAAAoslQOi1WNMzcQhAAAIQgAAEIAABCEBgOAKEXsOxpicIQAACEIAABCAAAQhAYLEECL0Wa3omDgEIQAACEIAABCAAAQgMR4DQazjW9AQBCEAAAhCAAAQgAAEILJYAoddiTc/EIQABCEAAAhCAAAQgAIHhCBB6DceaniAAAQhAAAIQgAAEIACBxRIg9Fqs6Zk4BCAAAQhAAAIQgAAEIDAcAUKv4VjTEwQgAAEIQAACEIAABCCwWAKEXos1PROHAAQgAAEIQAACEIAABIYjQOg1HGt6ggAEIAABCEAAAhCAAAQWS4DQa7GmZ+IQgAAEIAABCEAAAhCAwHAECL2GY01PEIAABCAAAQhAAAIQgMBiCRB6Ldb0TBwCEIAABCAAAQhAAAIQGI4AoddwrOkJAhCAAAQgAAEIQAACEFgsAUKvxZqeiUMAAhCAAAQgAAEIQAACwxEg9BqONT1BAAIQgAAEIAABCEAAAoslQOi1WNMzcQhAAAIQgAAEIAABCEBgOAKEXsOxpicIQAACEIAABCAAAQhAYLEECL0Wa3omDgEIQAACEIAABCAAAQgMR4DQazjW9AQBCEAAAhCAAAQgAAEILJYAoddiTc/EIQABCEAAAhCAAAQgAIHhCBB6DceaniAAAQhAAAIQgAAEIACBxRIg9Fqs6Zk4BCAAAQhAAAIQgAAEIDAcAUKv4VjTEwQgAAEIQAACEIAABCCwWAKEXos1PROHAAQgAAEIQAACEIAABIYjQOg1HGt6ggAEIAABCEAAAhCAAAQWS4DQa7GmZ+IQgAAEIAABCEAAAhCAwHAECL2GY01PEIAABCAAAQhAAAIQgMBiCRB6Ldb0TBwCEIAABCAAAQhAAAIQGI4AoddwrOkJAhCAAAQgAAEIQAACEFgsAUKvxZqeiUMAAhCAAAQgAAEIQAACwxEg9BqONT1BAAIQgAAEIAABCEAAAoslQOi1WNMzcQhAAAIQgAAEIAABCEBgOAKEXsOxpicIQAACEIAABCAAAQhAYLEECL0Wa3omDgEIQAACEIAABCAAAQgMR4DQazjW9AQBCEAAAhCAAAQgAAEILJYAoddiTc/EIQABCEAAAhCAAAQgAIHhCBB6DceaniAAAQhAAAIQgAAEIACBxRIg9Fqs6Zk4BCAAAQhAAAIQgAAEIDAcAUKv4VjTEwQgAAEIQAACEIAABCCwWAKEXos1PROHAAQgAAEIQAACEIAABIYjQOg1HGt6ggAEIAABCEAAAhCAAAQWS+CTP/p/ftTx78c//vFi0TBxCEAAAhCAAAQgAAEIQAACuQjw1CsXSdqBAAQgAAEIQAACEIAABCDQSoDQqxUNJyAAAQhAAAIQgAAEIAABCOQi8P8DSgU47tCOkW8AAAAASUVORK5CYII=;" vertex="1" parent="1">
          <mxGeometry x="700" y="430" width="593.01" height="280" as="geometry" />
        </mxCell>
        <mxCell id="urtE2N_7HO7W4vvlgQMw-10" value="" style="edgeStyle=orthogonalEdgeStyle;rounded=0;orthogonalLoop=1;jettySize=auto;html=1;" edge="1" parent="1" source="urtE2N_7HO7W4vvlgQMw-1" target="urtE2N_7HO7W4vvlgQMw-4">
          <mxGeometry relative="1" as="geometry" />
        </mxCell>
        <mxCell id="urtE2N_7HO7W4vvlgQMw-1" value="设置标准计领比例&lt;div&gt;每个经费科目可选多个&lt;/div&gt;" style="rounded=1;whiteSpace=wrap;html=1;" vertex="1" parent="1">
          <mxGeometry x="340" y="170" width="120" height="60" as="geometry" />
        </mxCell>
        <mxCell id="urtE2N_7HO7W4vvlgQMw-3" value="" style="edgeStyle=orthogonalEdgeStyle;rounded=0;orthogonalLoop=1;jettySize=auto;html=1;" edge="1" parent="1" source="urtE2N_7HO7W4vvlgQMw-2" target="urtE2N_7HO7W4vvlgQMw-1">
          <mxGeometry relative="1" as="geometry" />
        </mxCell>
        <mxCell id="urtE2N_7HO7W4vvlgQMw-2" value="管理员" style="shape=umlActor;verticalLabelPosition=bottom;verticalAlign=top;html=1;outlineConnect=0;" vertex="1" parent="1">
          <mxGeometry x="180" y="170" width="30" height="60" as="geometry" />
        </mxCell>
        <mxCell id="urtE2N_7HO7W4vvlgQMw-4" value="" style="shape=image;verticalLabelPosition=bottom;labelBackgroundColor=default;verticalAlign=top;aspect=fixed;imageAspect=0;image=data:image/png,iVBORw0KGgoAAAANSUhEUgAABGwAAAGwCAIAAABzVmT4AAAgAElEQVR4Aey9+ZMeyXnf2f/O/rCH413v+pK18sLr8HptOSzJDsWGD0m2JQ4asPzDhmJtSlrZWq/XaKAFk6Z4iDJpipwDjRFmOFwdQxHDmSEHQDcIgeIxGHKIAQZADzCYA+gb6O53I5+szMrMyjret973reP9VCD6rTcrjyc/+c0n86mqbixsbm5ubGzwEwIQgAAEIAABCEAAAhCAAASqEFjY4IAABCAAAQhAAAIQgAAEIACBygQIoiqjIiMEIAABCEAAAhCAAAQgAIGNjYWHHBCAAAQgAAEIQAACEIAABCBQmYB6EhXNTLrGAgc4uBMEPaAH9OASQA8uDfwDekAPLgH04NLAP/RPDwvf4YAABCAAAQhAAAIQgAAEIACBygQWtjggAAEIQAACEIAABCAAAQhAoDIBgqjKqMgIAQhAAAIQgAAEIAABCEBga4sgChVAAAIQgAAEIAABCEAAAhAYgUBJEHX9+vXV1dXz58+/2NPj/Pnzq6ur169fH4EZWSEAAQhAAAIQgAAEIACBOSaQG0Tdu3fv4sWLly9fvnv37t7e3rCnx97e3t27dy9fvnzx4sV79+7NsRLoOgQgAAEIQAACEIAABCBQiUA8iLp3795LL7108+bNw7k5bt68+dJLLxFHVVINmSAAAQhAAAIQgAAEIDDHBOJB1IULF+YqgtKh4s2bNy9cuDDHYqDrEIAABCAAAQhAAAIQgEA5gUgQdf369cuXLx/M5XH58mV+P6pcNeSAAAQgAAEIQAACEIDAHBOIBFGrq6vvvPPOwcHB/v6+jaTm5Pydd95ZXV2dYz3QdQhAAAIQgAAEIAABCECghEAkiDp//vzW1tb+/v5jc8zP+dbWlu5+CTYuQwACEIAABCAAAQhAAALzSiASRL344osmeprHzxdffHFexUC/IQABCEAAAhCAAAQgAIFyAvEg6tEcHwRR5aohBwQgAAEIQAACEIAABOaYAEFUGC8SRM3xdKDrEIAABCAAAQhAAAIQKCcQD6L2Co+nn/3BT//8137sH33zf/mFb/7ME9/4B0984+9/5NWf+cirP/VLr/69X3rl7/3SKz/1i/bfyz/1i+rfT/7C1/7qP3pl8LPf/Os/+7XPP/1GYfUNXySIKlcNOSAAAQhAAAIQgAAEIDDHBMYJoj7/+9d/8vjqRz5x/T88feOLz19/5oUbT79w88kXbnzxhRtf+PKN//L8jd97/sYXv3zjyS/feEr9e+vJ569/7uy1X/nU9//Wr3/3L/3TS59cudFwnFTYPEHUHE8Hug4BCEAAAhCAAAQgAIFyAvEgarfw+OS5W3/ro69/fHV77d1HW3u7B4eH+4fD3cPh1sFwY3/48NFw8/Fwe3+4dzB8fDA8OBw+Pjj4cGvj97/97i984e3/7l987+TZO4XVN3yRIKpcNeSAAAQgAAEIQAACEIDAHBMYJ4j69PO3/86vvfFbr25evLWzsbF1sH/weH+4vTfc2Bl+sDV8b2P43sPh+xvDB1vDze3h7qPh3qP99z/48JlL6//od67/uV/+/qlnCaLmWHF0HQIQgAAEIAABCEAAAh0nEA+iduTY3t7WJzs7O+75p5+79ZO/9saplzdeu7H98OHW/v7Bo8fDrd3hw+3hBxvD+w+G9z4Y3v1g+O6HKpp6qEKp/Xv3Pjhz6d4vfP7OX/g/3vyPz90trP+tlaNHjpy6WJjHs8e17fozi0eOLOvCbnr1c55EdVzSmA8BCEAAAhCAAAQgAIHpEogHUTrkyPv5qefe/tu/+vqpl7deu6meRKkgan+4tTfc2B5+uDF874GKoNbfH66/N3znAxVHfbixv/7O+2fX3v/Ik+/92L+68fEvv5tXs6RfPHXkyPI3d7bfWlk8kn+cvGBDO6e2JABzUpJwq3oKQdR0FUftEIAABCAAAQhAAAIQ6DiBeBC1tbW1vb2d91OCqGsSRO1ubG3vHxzsHwz3Hg+3d4YbWxJHPRze+3D4zvsqlHr3wfD9B/t31j9YWXv/l7703l/5P2987Pl7eTWr9G+cOnLk1IXt7a3rZxaPLJ65HrHkwskjR05eEAsvnMqPs3KuxOu0/SWI6rikMR8CEIAABCAAAQhAAALTJTBOEPXp597+O7927eTL26+9vbe5vXNwcHB4ONw/GD56NNzeledRW+oB1L0P1SOpex8O3/1w/876gzNrH/zik+/9lX9142PP3y0IotIAqVIQ5YZYP1LvASbBlZs+2jlB1HQVR+0QgAAEIAABCEAAAhDoOIF4ELVZeHzq3M2flCDqwq29rR0VRA2Hh8Ph4cHB4aPHhzt7h5u7hw+3Dz/YOLz/QP1794PHd9YfrKx9+ItPvv9jH73xseffya/+tZNHFs/8SK7/SJ5E6XO/wGtLR44sveanbW6+evKILRteG+E7QVTHJY35EIAABCAAAQhAAAIQmC6B8YOoUy/vXLq9t7u3fXj4eDg80P8OD/YP9h/vP368t/t4e/vxxuajhxuPPvxw59477z279v4vPfn+Xy0Mot58ejENhEYLot48c1QiK1Wq4DiZib3C+IogarqKo3YIQAACEIAABCAAAQh0nEA8iNooPD7z3M2/++vXTnx9949/+OgHd3d+eG/vB/cevXF379rdvdfXd75/Z/t7t7a/c3Pr6ltbV65vXrm+ceXNB6vfv/eZVz74hS89/PGP3vj48+/kVP/Nkyr8OfrMj+T6j545WhANLX3TreTNp46mBd0L5vybS1L1U2+ahNxPgqiOSxrzIQABCEAAAhCAAAQgMF0C4wRRn33+5t/7v67926/t/udv7Z+9snfm8u5TqztfvLTzexe2/8trm5/7xsZ/fvXhZ19++JmXHn7q/INPnf/wU+ff/+2v3v/oC5s/+1+2f/yjNz/x5XgQJYFQEESZgGrjzWeeOHLUhEAqInKDKB1uPfFMPEJ6RUIzG5vlRk/JBYKo6SqO2iEAAQhAAAIQgAAEINBxAvEg6mHh8bvP3/ip33j9V/5o91f+6PD4M48Xv7h79Pd2nvjC7i9+fveffX7n5z+3809+d+cff3bnH/7Ozs9+aufvfmz3f/2tR3/nk4//t989+Buf3v2fPnrjk19ej1X/jZNHjj79ytNHjxx9+s3s9R8+rYKoH2YvPHyoLqnjiacjl3UEFb0Uq+vhw4cEUR2XNOZDAAIQgAAEIAABCEBgugTGCaL+85dv/PRvvP7L/9/useceL35h5+TzDz7z4oefe+nBZ7764Lf/6MHH//DBx/7gwcf/8OHpP3j4b858+NP/78Z/88s7/+O/2/+rnzj8iU/t/cSv3vjUC3ci8cubT5986ocP3xw5iPqGek/v5NNPHVVBVPLQqeAtQHXp5CuR9m0SQdR0FUftEIAABCAAAQhAAAIQ6DiBeBD1oPD4nARRR7+8u/js3r/+0oOX1+5+7/V3vv+Du6//8N4bb777wx+9+4M33/3RjftvvPXu1y+988un3v2v/vGDP//rj/7yxw5//JN7P/FrNz79lTu51f9QgqgfPvjGiZJASC4fffri00ePLH3jwYMfPKmCqB9k631Zvfn3jWx6fgpBVMcljfkQgAAEIAABCEAAAhCYLoFxgqjPv3DjZ/7t67/4/O7is7u/ceaDq99/52uv3PncmTsvv7Z+48a97Y33Hrz/3uaD9x58eP97b6z/5u+++xePP/zLv/n4L3/s8Mc+UTWI8mKcHz599ImlpSeOHH3i6NEnI4HSA4Ko6YqE2iEAAQhAAAIQgAAEIACBlEA8iPrggw8+/PDDvJ+f+/JbP/NvX/9nz+1+ZGXnV59679LVW5/8wts/9yu3P/vUravfubP58O679+6+f//ue+/e/bPv3Trxe/f+xr/e+PF///gvfezwL35cBVGfeuF2Xs0fvPHU0SNHn3rDaV2lLL3ywbWnnjjyxJeuvXriyImXnKvGzje+dPTIR556I2vz15eOHDnxajY9P4UnUak6OIMABCAAAQhAAAIQgAAEMgTGCaI+/4IKon7h3O4/e2bnV77w7te+ef1f/Ye3/oeffvvXl986/8qNu+tvv/mjt69fv3X9R29fXHvr5JPv/NS/2/xrS4//wn88/O9P7/3Er9/89FfuVA2iVAj0xFM/+PADE0R9+OEbT33kyNLXwwCPICozsiRAAAIQgAAEIAABCEAAAlMhEA+i3n///Q8++CDv5+dfuP73/+9r/+Ts7s99aftffvbuV/7kjX/zW9f+9j//wf/z8Wt/9Cc/+MG1N7/9Z29+5ztv/tm3f/jSq2+cfurOP/6trb9+av/PLx/+tyeTICqv5vevPfnEkSeevPb+Bx9ce/IjR44cOfFyYsnrT33kyBNffF2sUudHPvLkNcfCa196IkhJ7H/pxJEjJ15xchb0S1vFk6ipCI1KIQABCEAAAhCAAAQg0BcCJUHU+3LowMOef+6F6//g3137ued3fu6Z7X/xu3df+Or3n1z5zvJnvvfMue++/Or3/+zb165cufanf/r6lSuvv/TK9z7z5fV/+Xt7f+uTB3/+48P/ennvr/3GzU9/5ZYNomyd+sQEUS+rvyvxH1522k2CqDS/io50uKWCvde/mAZRyVfzlylM6JW04NSZBIppnXJGENUXbdMPCEAAAhCAAAQgAAEITIVAPIh6r/D4/PM/+gf/5rs///sPfv6pB8c/c3vlhavnv3b55a9/6+svXXn563/6yivffuWVq9949eqrr/zpH/zxn372K2//6tmdn/rs3l/6xN6fW97467/25me+fCO3+tflSdTr2evff1I9ifp+9sLEUwiipiI0KoUABCAAAQhAAAIQgEBfCIwTRH3uqe/8/cWv/+9Lb/zDEz/4p7955d+f+tpv/6evfubTX/vkb//JJz7xJ//pP6mfv/3bX/3EJ7566vRXf+M/Xv4Xp3/0M//+rb/5mzf+54++8Tf/+au/8+T3Jh75TLBCgqi+aJt+QAACEIAABCAAAQhAYCoE4kHU/cLjtYvXP//0d77wB2994Q/fevIrb3zlD7/91Revfu1r3/6Tr377xRevuv/+4I+uPv/H1868eOPzf3Dzd77y9qeff+szX/zOq69dL6y+4YsEUVMRGpVCAAIQgAAEIAABCECgLwTGCaIajnKm3DxBVF+0TT8gAAEIQAACEIAABCAwFQLxIOrdOT4IoqYiNCqFAAQgAAEIQAACEIBAXwgUBVH37t2LBlP9TieI6ou26QcEIAABCEAAAhCAAASmQiAeRN2b44MgaipCo1IIQAACEIAABCAAAQj0hUAkiDp//vydO3fu3bt39+7d4KeOrXqcfufOnfPnz/dlcOkHBCAAAQhAAAIQgAAEIDB5ApEganV19dq1a3fv3n0ndvQ7/dq1a6urq5PHTI0QgAAEIAABCEAAAhCAQF8IRIKo69evX7hwIRZA9T/twoUL169f78vg0g8IQAACEIAABCAAAQhAYPIEIkHU1tbWa6+99t3vfnd9zo7vfve7r7322uQZUyMEIAABCEAAAhCAAAQg0CMC8SDq3r1758+fn6s46rvf/e758+fv3bvXo8GlKxCAAAQgAAEIQAACEIDA5AnEg6itra179+699tprFy5ceP3112/evHmnp8fNmzdff/31CxcuvPbaa0RQk9cXNUIAAhCAAAQgAAEIQKB3BHKDKN3T69evr66unj9//sWeHufPn19dXeX3oHonbDoEAQhAAAIQgAAEIACBaREoCaKm1Sz1QgACEIAABCAAAQhAAAIQ6CYBgqhujhtWQwACEIAABCAAAQhAAAINESCIagg8zUIAAhCAAAQgAAEIQAAC3SSwcIcDAhCAAAQgAAEIQAACEIAABCoTWBgOh4eHh8PYMYP0tbW1bMszaDfbaLMcsEfzRw/o0M4F7QeyksA/aETzyQE9zOe4W7dgT+Awz37AysCejKGHrDNh/a3D05Z1T8YYF7e4PZ9ePVoGY9evgqgGj6iIG7SHppslgB6a5d/C1pFECwelQZPQQ4PwaRoCfSKAM+nTaI7dl5oyWDjkgAAEIAABCEAAAhCAAAQgAIHKBBoOotbW1iqbSsb+E0AP/R/jEXuIJEYE1vPs6KHnA0z3IDArAjiTWZFudTs1ZaCCqIODA35CAAIQgAAEIAABCEAAAhCAQBUCPIlqdYg8b8bVvCUwb7jmob9IYh5GuXof0UN1VuSEAAQKCOBMCuDMz6WaMlg44IAABCAAAQhAAAIQgAAEIACBygQaDqLW1tYqm0rG/hNAD/0f4xF7iCRGBNbz7Oih5wNM9yAwKwI4k1mRbnU7NWWggqj9/X1+QgACEIAABCAAAQhAAAIQgEAVAjyJanWIPG/G1bwlMG+45qG/SGIeRrl6H9FDdVbkhAAECgjgTArgzM+lmjJY2OeAAAQgAAEIQAACEIAABCAAgcoEGg6i1tbWKptKxv4TQA/9H+MRe4gkRgTW8+zooecDTPcgMCsCOJNZkW51OzVloIKox+bgXJOAAxzQABpAA2gADaABNIAG0AAayNNAEkTpy/anDhsfP35sU/T5xNPX1tbcViZe/7Ttp/6AQE2doIfJ8gxq6+L80neJauqqBxzwk5oAenCVwLxwaXTRv2G/S2DGema/EayMM+YftN7U/HXXFFeNFe1ZePz48aNHj3SUGfwkXQOBAxzcqYEe0MNU9fDO7x8bDE5+y7Rh9Patk4PBSXXTKTlMuvluPknXJOAABzMn1Cd6QA/owSWAHlwaY/sHFUQ1eOg7ATkGqE3Dsd9/J+dqWfLtZ48Njj17W2d759nFGlU9DrcvZW1Xu64srGOV6tRg2e61qjXa7lylenA3keN0RZjrSt75/WPjq2uctsvLfGt54O6eywsEOdbUjDGaD6519WuBJFSwsfjsuA4iAaKYJ5V866QTujTHK8dZ3X7n2ZryaK5LE2w5Tw/fWvYiTL/FkqUkiFr9spFvOcKrtkyoSZpGyJHaHz9+XCVPvCSpEIBAVQJ5zsSUz3HF5nKlzz4uypU63p1MZTIo6cnCo7Ye6yrEOHlZzJPzQew4dvZ2Tgdunz02sFfXzy4Ojj27npNVJ18+mTSQNOpkVpdOrjoJ6lTVWX4sns1pVYrnXg3akq+qR3LoUqtqx5zb/VgFHU/zRiFfEoOB5nP77LFlLZ+035fVjjkZEV1DZljTzObMCiM+2qmu1IiUH7ktSvHcq8Ya91N1Rw4pJYrKdNnN37NzNYJmNB89KhomTfXycma+yJxKmN++fHIxlUcBqyLtqeGwDmQsF6FkUOr3knFPtZcxN9fIfipk/fKy8o4500dpI59VMkxJ2eJZLHrzhWfRew7KpgYnas4uX46NjiNORwNBcb5CAAIzIqCmoTMrx2xVuxe7KIxZC8VaSyB9nU8/zJrxz7W1tZwWk3uHOVcfP3q0rp7DLJ59xzymf1S8+CW7DvOxqCKqx4/fcQIhNVvsQ//1Z9VjCtN6sjraq5IuZZe/ZfKkZW2K3OR2LJTXJtOyxpbo58k1/fqBa6Gah8YGSU96kbyoYNs1ebqXnq+Hx3qXfHLVEijpnd6mHHt2PaVhdsw2RTY03ghmNzeZGjydeMyNz7X1e1cfPXpsnoOF6Y8fl6vXjrWjc882Sa/OJ2JDqq4StrMsq+8SRVuUBwLR+RW1X0dZ6iGArS2coebOizOCupQ7RzM1LF928rv6FB+Ve1XllKhe+yJtlZrX1vPIZt29mlqufZfklFZcAwfq2Zr4Nzd/4jM9zbRyxO3oRKmW6EGexGZqKFxN9GMfc8PYLxv1/I9zxiV5EuXX4OohWXHKx1fNZdfbB+MY1MlVCEBgHAKF+42YXw3cbPLVrgjKA1Q/rB8o9Bjj9CvqOWklj0DBmlKFpHoStbe317afam9xdGU937a1U+q241qB5bfPLg4Wz97WvVtfOaruROqeqjsDi2fX3bK3Vo4Njq3cSjms31o5ae5K7+2pBXbpUnpV6lF1DpYvF9DL60VeuoyCamtwSsWWXs2Xlrz+OjvpcNIWcvPqdAm0+FzG2u9ltT5KRGQ18ChSj1+rVcheRg+aW0Q5Ljc1Rp6KQtpKk+pmedV00UDQC1M2scXoRNTod8d+i7QYqMvtRfvP1eiER7U+Xl4aOHM2Vo9fb+ph1JzNzsq4Z7DjK/cgI6VST6I06fqi1ZOJ35P5vpL1VOnoeD5NVKF653LI2Bz1Y9ba1Cqjsc6lZJno3iky6exOGaqrllJkdgde18yaSE5VZ8hfzc1bK8fc8fVWJfFIzgqiZrr2bDntdnZc+qQx+jIXBKJzPJ2hvg8xq3DMA8RzzgXDOfFXDb/Op+8EhM/pVIRgnqKunnTe2EkyqmXPvPHilpV0fxeU9y19C0gqMHeg3doeyYMLeQkkuR/pXdWv8xW+G6PsCRrSpcJEW7Hc9o7Wae5NSlbZnEWy5Re3LbT7JK4HbbN5jjRKDwSUlooU94cjOqxSva+HAl157wi5uo1aGe2CxMM5ryE9kgjKzAWvTtW1tPWcpvOLe3W1+UuBJGLzq6wrQltz08Pqkle4cuamymxnnNZS3Le4r23kzdPUSL8LVpBJQRm+eDM6NRXAo0fyMDNs3cvgqzo1olNnBXrI74cC66GwWT0m/pxSbzvE9ZCTbofP1J7oJJ2/fsEwf3pVqdQdSlMhnxCAwOQI5DoTzy2k7aUzNE1zz7wZHcnMvHZpteY8VwbVLFzYa92xtpTcnN3b25PzU2vqEVJy2DvuS2smyXyqS0uXzDd1M8/mUZfkhqC5GnzeWlkcLK7cClL39lT60pqYkdac5LKWFO1y1J3FtFbVnSTl0pJ/SbeVMVIZED2MtY7lsvMy6WmjPTmT3jnjW7Fbt1YWT62s3zKDlRmOzLBKvQ5VpcJT6ilEpsGMqJTkyg+3RadTqjb3UtJuquGk/dznacZCx1rRm0nP2N/1BGc2jdKVtVOLS5fW98xguczVcHgKSet1qOqpGptons/Z29szqisWhW3Rm+yq/gJ7dOWOT5O2vLHOKCrrc9L+9ftM1hH18kF46GFdO2Uc762VxaMra85L3v7QJQtKzrioVlI56dH0RsRXrFGgbmLx7HpabSik0Gy+QwACUyOQ6y7SGRpvWzzAqUrbgIHrK+K1kdoNAsnrfNpY/VByludra2pv6rUrrzylS5dZhPSrESqikNdjkq2keVVGbJYX4dKSZWeqrHr8mjmWLstrGw6HZHX07HyU7lr8dPWgVh/qNrPZIT2S/HrTo/4qxa0VaTppS01O8/KhLhvUKRnUEi7payuyIVDnZruv69d7/aCsMcfnHPYxydVs2YgeEjuT/WiyR/H3H5kRTGIe25dELSaCNelqWPXrTyFz8zqfTlfjaHTonKsxsbtYVaeySu19Tf2qtHcu2tZdMPntmK6vnVLq1i8d6dsH+mXR0DajAX2vQde/fnbFaCMJ+Uz9hfa0UgNBf/VdIp3o8dQaSOaXzI+IDmySz8F5kc++pquCHndE/bFzxn3vkbyUpe+5eOfqRmOyz5ZxSVyEHqOgX7ovSpnSBSeP9EX0VmCPk180FtFe8vKebVe1JdWGZQ3cTqRH9ZBOcM2/1D/odcSOlz/f1S3k1G8bf67qVK93JjqxykpOknttiT8RA0Lfoq0yryLr4RDmyfqStuu05Wne12Qnxgv7zfTy14Iu+N7ej118v5HcbCpdU4wLSH2F2k/a9V2VD3w789pMhlb5ruiaoi2tYqd6ErW7u9vCn3p7cSexTS0zeofqWGsS3w7tv6NikqW1tF9qN7N4dt2WlVuPd9JeK3Evrph67G7D5NeLXNBKskMyeYKriqruwnouYW2/TMVTawX1pA8l0h6ZUXtbnqEZy9MeZXN2OsXcpF88ujjIsLLeKoehHr49UYVxfJFPtc9OavCpunpwzu+IqHJVFBkL6cXSJdNKZkQcC1M1RurZ29tVFg4Wzzqtm9ocCyOajNdmynboquqmiooX1TPkUP/JiOfoQZRwdOXOrjMBI3pQIYetwaNq7lyoq+65ciMqiDKllEJ03GJSwhFR1SpLnHTHFyk9HF1aOho1ThITC8OOiMbWljwyoQ/s0Fjn0QvTQ/6WquLj+n/dd3cVUD5EIszd3V3Hn2ghST26chkpGRd/1FS6zix3MbzVR+tB1gtzH2dXtLd0SWo23iZt12kr7GOqLts7qzdSIACBSRHIrO+eZ4i2kngAPWed1dx14O6+lJnbBwINv86n7wSY6NT5NMuhiR/UBjd+qJzeVbUU+SlpQbMX9zOY5U1uT0pmnZLcVLarY1qPOpM85gGFfyn5pndIkZdI9HVtjLmNEa0hSUzNtq+LmNaTPZz5WlRLB67l6UG2OEuyE1JP8OzzH90lu/mI9NARUiZb4vIipRKqyRW7gfZf7VPMPUsyUgxrlnFMX/gJL+vtlx3izGUnQZmkD6sf03pirfnqFOrkaY4kVISwpJ7dLam/vmCe/5ge5o+sTFszamG2jEJMfcErna483HNHbFKyfFZmXIRXROxRQZRoZm3JPmaRQbeyTMSQKMF0SsRmVOJ/FnqttM+tPMvRg9ga8rcdUEzMoNvE3BNHBgbm3p48Z05WBCeDW4nKrG71xd4bVMX1i4IyTF4Nxuw00aS4tXMOAQhMlkCRM/FWiqTZdIbG7XDchX6vwa7OOj/zOs6t4dRCGZTbtrDbxiO5hzqyaUqj5cfSJb/it1cWk/vZyZ1jfdnebrR3Df1iXmb/UvJN75DuBNdGN9Lc0lhak7LKfnkQYU7UnXjJo076eGg9aA+1uyvbEf0YYfGsomtGKrl15BIwl1Saey55TIVuAX1u7g3rb3q3mjnPNKdGp3AI7Kh5LYqQSmUrzytMObtdW1PPOuSSFZuxVvLIkwpTqj+faihPrZkBVQCXLukpoO7zpRNWjYhOsX13B909VxlMhTZzemKoSoorD/c8bE5GtnAI7KjplpQBjsHSzRXdO+mU9CXRvzzoPrUmrkAiyUQhYafSPiTSxY0AACAASURBVKizcpP8/J36FvK3xism2lfYJHUi8zGYeYmQsjCdynN0UkT+ztmlxEurmnXOJL+VVlqt05ZnMF8gAIEZEVCuMnAa6QyN21DkAeIlSO0+gYaDqLU12fN4HGWZd1Y2pWO1qOQceo+iM5xak5zBtsmtPaLytVOLK5eSl+Jkp5LdB0dKJduRHKPS5GQxdhbsU2t21XQtc86D5tRX9Rqb3l1dWhroGnTN6R5OZdMvIDlVdew0pgfZ2qpR9rGoEU9Gyro2deLsQfUYWT9osxkofoUmVX2mVNU3Z7xcx+qeS+EClaaCUNt9fahq1eHKL7kUfASWSzcXFxMXf2flqK4hqdlaq7N1Pa6OSSK5yeJjEb+RRCx2ZNWJFYCiqsbI+gebLeHtV+gNgqWqUl15uBW65ypf6MocFTin1kUE+Y+urKjfYioLosRMx/KwU143pAkPiH+5/d9iejBWh/xNuriO8l6rYVXaiMN0Kncy2Cac0N1N88+TguLD1RVVpzq0T0irddryK+AbBCAwMQJFziTmKtMZGjUhWRfK3b7dA0SrIXHGBAplUG6LCqJ2zNGO87UTallZPHNzJ2rP7RX163q382y+eGIwOLG6Y8rePKN/ZcJkX10aDE5cTL6p+m+eWTx65rZkO3PTSZdT1VZ4KMN2VP13zhxVf5dAzuMM1cbr6BltqtsXlS4Fc8qunpBlVVsjNiytev1SGRZXbif2G1aSM5dbTlu6L3H7XZsbPF89qZm7Y3dbPYExDMW1ac4qz6JRh77TrId7d3c3Npru6KqQTDNXqhCq+qszXqENaVu7uztqjAr5KyebyM/jKc7X6MrYYDW8s6MsTzWv+7h65qjRgM4wOLEmc1n+jOqq1K90Mjipz5Oeee22bu5H+h7R7c0zizL0zrjvyH7Uzk3lQ/S4qzziEHQ9Co5MyZSPK4Hg/NRaQm1nx9HAjg6i9HhlbFDOx9h8W7uIAua+PcEYqeKLZ9dUJXmH8T+iEDUFdnd132XoM6VOXBTXcfaO7VeBbd3Lo2IPl7/lqZjoqVrQX/W/aYjrSMfU9QNqdi/pwfXno1lrdhTbpUuBhj0N6GG648w7V59pu05bRku2L0H9pFv+CkXB+CakyGNAwEqTCDgonzzqodcUtY5b/yP7WOOfE+TKn8T3hIENZojQc0KizXySIEqbaH/q4Mu6pOmlr62pbcpI9dsFzEaIbg2ykU3uNKt0kbXeXEp+dZv2xEXbogqE7EtxErZJaGSmkL55ubOTbJ19OyWnbLP8dLXI6RQdRNnX+bx02drmcE7uJUt+NRXVwizLqn5s523WZZnXTxu0nUlwJTbk1J+Qs/bk2T/79EI9pKMgO480XNGbD81Zb0r0iNtz3WFXOZqt/C2ddLzS/kq0k6jg5KreQKtK9J3jJCxRgZymnXD2g6iEsmyYkpqlWnsXKuWv0tPnn2m6KSsdVPu7JBRUAZW0Lm8zqhhKQkrdirJWHsjs7OxYArrOxE6jz7S/ciHbbhvy67tEUfsFyxkZdzVlbLioAwnDWTbQEjbodPtEIjuvXc4ujeRpZCII98mhvumYhN8iDxXKGm7euJhkT28SRKk/UWDHIm03UUvio8RatYlXrcjDK1XW+B+tbY3CbuVtncaeJMRaTGgkFqUtGr05+T1r25BeoIcMf+vnEw1E7Fc30YS/BGCp3ziqdOXpwQQ29rVPPR8VPTUiZ8xLeh6xxCcn81Tmo9Ssmeun69Zjp3qWJ1H2VmBsHL1WIv3qpv+3PTV8VM+6pU/XWsal5eNYuN+w3kMPo9KhnaHRftmrZtzF/8vKnqzR8lqEq5BoPVbzpp7UEvK79CbFx11Txqh/wYa8bTtJ7weYhznaQn0zzz6JCs1WS11yM2AnuUOfhv47crPQPolSDxz00wz3jmNY405YKsmQ3GKMZDdJskNKnkSZNPWp0nW7bmp6ru5oJkbeXD1xUmpI++W361su0NLup1X24cxiUScuQF8S6qrcUfZBaTF4WrIVpnRS1UUGSNd8xj4pTYvpMxNEhen2u9yISuXnpSdPUWyae+J28PbKotSgepc8B/Pb9dQlLSbZ3Bp7cW6xqBPnyWEwYeWqTAofVJAtcReeQnbkmaQOniIDpGs+o59XRwQTKjBLXQ1WbosDcWWqEhnx1RPas108oYu4A21RZDvlNxrRvJ+hy99SJ7mzc/GEI3vrEzK9u3n7jBqCEyfsbEqzqFL6COZsSlu1aH1RlK3XdFpQWhFvE3PXbkdSeziDAASaJBDMX98UZ0V2Lqgi+ogsEE4+TjtLoOEgSt8J8OjJtk9tH8xLd97VyFY4uO58lRXuxEXZyoiO8+oMXt9yqtCn0dVxrB2S1OfufjJt5cRsdln1o6bQ8uBqrPY2p0X0kJprRsGiMJcC15ZsTEVI7ogH2cq2m6Z2/allafyg9ozOLk0yKcMiW+20ooxJyaWyUctYrjb8NogK5FT8NTWmI2cFkjBYUhSmT0Yq+rvBngjDZMoKwFSY5ig4U7Wlw61adG/fSMERXYTWWBJT2bLqRGRcFkQla7XYkeM87UPsgn61/FKBHqR3J1blTpn8rqG91aZGJ5ytaT8FtXPrTa7IgMp815M9vGujaRuHIEVUPWErvk/wBOZfSs3ZURFgRkvedb5AAAL1CRQ5k1jt3vwNMoTTWXsVcRNHz6zaUCq4ZRZUwtcmCIwqg8DGhe3WH7eKfidANPrEM7fcXlxIbyBectNvPJP8csFJL1llUZeOPnPDze2eX1Jr2gU3ZXt7+9YzT+iFtPBnYJvUcanCS7dhc6pTJzJ2l1oe2Nzpr9FRUD1SPLNjmiE2spAMLT1e4YhoObntpsIrkkRYTyK/oiLqWigkJb+jZzzha3vjNExf+vSpBjTEIv2LT+csMaWo4iMyWHa8Mk2LTlw3Mr6L2FZa0lWpSsSMSye0B7hwQvfaHWgHRXaa+N10FdsnNWxvCzQZz7CPikB0shgAXgbtKLz8erInIy7DGjYhNUU9gJMzHSbJGVdX0pGYtzfm8gkBCMyeQDp/M21fOqk9TOps47NbexLxUp6HyVRIQlcIqCdR29vbTf1cW1ubWOvpAqaWn4IeyRq5+MwNJ8+NZxYHfopXg5oYJy44+dXV2yqIOrlaYL+6V/3EM7czhOVZwaV8C5P76F7Nqnduv/Sdb71jKLIhv5Umxz3PqkI9hKOgYxtBUDB26aipcRe/ldd6JF3dXlJ3l72xSLWhNJBeVWNUaMlNdT/gxMUMeZV+9MzNTLpRTszyJM3aLKoWGMU2mDpzepRrQ1P59V2iaOvqvqA7v9QsNsfJgvll+xgqKtqKJSxXZdZ7M9HWJkrz5qmMSaElSsMxTV6SP3JgWww0Y5UfpFew37c2VXJn0gv0kOdv9SPHdJ5Ge63moHmKFRuR7e3y0SzlbxQb8/Db2+qqPQpXFl+TnRm7Uj70CwKzJFC430h3Dla3Zv4y43pFoGBNqaLGDjyJ6ko8ip0QgAAEIAABCEAAAhCAwDwQaDiI0ncC5gE0faxCAD1UoTRXeZDEXA13aWfRQykiMkAAAlUI4EyqUOp9npoyWNjigAAEIAABCEAAAhCAAAQgAIHKBNSTKJt59udra2tbW1uzb1d3mXbbxgE9oMlAk/ouUYM+KrAHf9XsWKCHZvmjf/j3RgPsN9hvbG1t1VxTeBJlXSInEIAABCAAAQhAAAIQgAAEygk0HETpOwHlZpJjPgigh/kY5xF6iSRGgDUHWdHDHAwyXYTALAjgTGZBufVt1JTBwiYHBCAAAQhAAAIQgAAEIAABCFQm0HAQtba2VtlUMvafAHro/xiP2EMkMSKwnmdHDz0fYLoHgVkRwJnMinSr26kpAxVEbWxsBD91j0mHg9YAHODgegP0gB7Qg0sAPbg08A/oAT24BNCDS6Nn/oEnUXpA+dkKAjVvCbSiDxgxUQJIYqI4O18Zeuj8ENIBCLSDAM6kHePQsBU1ZbCwwQEBCEAAAhCAAAQgAAEIQAAClQk0HEStra1VNpWM/SeAHvo/xiP2EEmMCKzn2dFDzweY7kFgVgRwJrMi3ep2aspABVEPHz7kJwQgAAEIQAACEIAABCAAAQhUIcCTqFaHyPNmXM1bAvOGax76iyTmYZSr9xE9VGdFTghAoIAAzqQAzvxcqimDhYccEIAABCAAAQhAAAIQgAAEIFCZwMIdDghAAAIQgAAEIAABCEAAAhCoTGDh8PBwOBw29XNtbW3IAQFDAD0YEnwmBJAEUnAJoAeXBucQgMDYBHAmY6PrU8GaMlholkVN65s1ntYnTgA9TBxp1ytEEl0fwcnajx4my5PaIDC3BHAmczv0bsdrykA9iWr2cDvDOQQgAAEIQAACEIAABCAAgZYTaDiIqhkCthwu5o1KAD2MSqz3+ZFE74d4pA6ih5FwkRkCEMgjgDPJIzNX6TVlsHBwcHB4eNjgz7kaLToLAQhAAAIQgAAEIAABCHSdAE+iuj6CvbK/5i2BXrGgM0IASSAElwB6cGlwDgEIjE0AZzI2uj4VrCkD9SSq2aNPg0FfIAABCEAAAhCAAAQgAIHeE2g4iKoZAvZ+eOatg+hh3ka8tL9IohTRXGVAD3M13HQWAtMjgDOZHtsO1VxTBgv7TR8dYo2pEIAABCAAAQhAAAIQgAAEVBB1cHDQ1M+aISDj1zMC6KFnA1q/O0iiPsM+1YAe+jSa9AUCDRLAmTQIvz1N15QBT6LaM5RYAgEIQAACEIAABCAAAQh0gEDDQVTNELADgDFxFALoYRRac5EXSczFMFfuJHqojIqMEIBAEQGcSRGdublWUwYLj5s+5mak6CgEIAABCEAAAhCAAAQg0AcCKoja399v6mfNELAPI0AfHALowYHBqSKAJNCBSwA9uDQ4hwAExiaAMxkbXZ8K1pQBT6L6JAb6AgEIQAACEIAABCAAAQhMnUDDQVTNEHDqeGhgtgRy9HD/3LHlqxUtubI8GCSZr54+fu5ufrG7544Pjp+7e//cscJs+RVwZQYEciQxg5Zpoo0E0EMbRwWbINBBAjiTDg7a5E2uKYOFR2Mft88eGwxOro5dPilYgkTtiQd2W5yX+f5zx1WuY+fu5+UgvcME7p87ZjSgIp/wOP7c/eHwqgqergyHaRB1/+rp40XKMUGUZJOycUSq5oJDWpeSiVYL8qpLykj/uHo6LZLWZvN4Xc4NJlUl86n/ybgIrbFkILJjlIyGjEXuVTtknDRDoGwQq00lsd2f9fkzKz7vHFcQqkVsiExzn5jrE8IahsNhUUccCBmzpdo8H+J3OfVJxvcaC13bwo7U7rhphE8INEkg2VKaWTDiHByWFY/MtXAqNdl72h6BwFhBlIRPWl01g6jSEND664iI027aZYNHCimULp7l60GG+Ni5+2r34I6yShfvo7ySEolaxe0uwZSKsnCqUi7vtHrWFfi+wUBXbso7RUyS86madm1zLulT2foESva2NbIF8ZypFDEpWue2d0n9do70MojKl0TY/QCsT1+jU+MZezjp6URrIKxNBkI7vfCS3xLfpkogXw+yLzFhQ2QQK0wlY7nSg5l0Q32DJquc3HnnTnOZ0Y5gRGniakxb2U+tVTPNR/QJyqoEgqdq1Uypg8ra4kFTl4v8Vd2OZ5snBQJTJJDrTNRMMRPQ7grcaevNC3/CJhOtsLjc89Vbjil2j6qrEciVQbXiIwdRl5cHg8Wz648erT+rng7UDKIePXpUaKesi6eX1aMAV8FBGS3o08vHgy1vkI2vnSZw99zxY8tXr4wURCUbIGc/5CBQsoluqfWN3sgltTMzuzSnInNaukdxNxm6kOyQnD2W3qPYpjPbIKkhnQtphd4O0hg0D58TcBGy4bbMVSidPvkUhHZjGtmazwPjLvTR29zbUUt3QmVTyevj/fvBa8CjzDtlSbpaSbvmq+gn3V15bdovcZ9gSxV2RNnpKNnzSGqmxD2hbTpzYpWfXInblrRYt+OZ1kmAQDME7t4P3mkS92JnVuEcVA+Ki4snT5JHnYzNoKDVMgIjB1H27b2JBFElIaC47OPPXZU9jVVw2Cezs5HtVLpqhtn43n4CJXpI3mNRSlCDruIZ5c7EGanRV9GI0ozdcNgei9czj+bzPlOn5u9FxIHGC6VFqtzoTWOexDCp2bc20bz4cMnvNZHZ35seivgLAjyTr3OfJZKYgIvIrIjm1qMb3GpuxtV0jmJ/DM7Rg+jfxCpJb0UbySCOMJWirGL1q4yReefHEnJbJDFMZfanc6StrMYkxSx/xR1RV01Ox1uaZ+y+q4k07ie5AOVKsb+q2XG/bb5BYOoEcpxJpN0R5mCktH7DJZiY5a4gVhNpkydQXQbRthf2xj3Wzy4OBoOlS+OWN+WiZkmi3viaHXPu8iPLmOybxcVHfuckvwmudICAtzabXYJyaiMEUbFumqoi1/xLngFpbhu/mSTZc8SDLSfV2ZrHdmaq6eROtue4TSMicscdJ+mRzZwp0ePPSbgIAR5ubZPYLLgdmbzt6Yxgj9l2qmvOrEntdkZ2lKmUVuCcxaaquhyZd767SL2ESq9ymyOjPZnySfxT0hHVZcc5qKqkoKAYUbcyuTyDYxAc8nU77uDmFAKtIuDOO/fcGimT1Jl69oKchEUc1+Rn5Fv3CDQcRBWFgI53jq5VCWx3yfGKdG8wsDhHD85ORQ2xiasLgyhxahK7BPenLWVTlU1IT/xL7ubAOU+3R0lBJcVcN6ryiD7TrYx8dd780dWknY36ZXHH2TsFaam0F704y5GE9M0DmE+g2EW4Vy0xr2abShCVomjqLEcPMvrBTJdB1OHxKFMp1rOoSFTGmOpcP2DP7Ums+iDNs1aatk7Du2SKOT5BIp+Egz23J6ZAlU+HXpI9PikcAm4f7bk9qdIoeSAwQwI5ziRrgcwg84ZL2RwsKa4u+5M6W4CUWRKoLIO4UUkQtbu7a54M7VU8t0+iKubPqz9uV+aNmqhw1SKm/rKZ3bl6Ws+rmfQOElAjq/ZDaiGvFETpPip5BFurtPNXl1PlpKnqzLSSrcSp0Jhki5ZuF2QXYvdDOqYKn4E42zLRdvgGjrNhsg3nbObc6308D1D4riDtsJ+ecRHR9Sy+XySISqm27CwzrGYFcYKoilMp0zMtBrOF8i87IYR7QUQlt3D02qSyZWa6WyA8F9Emz69TjxH8XQdTyJ8IGkV6/0iuhn03RXM/I85HOGR64ROo3fFcg7gAgYYI6MlolR+ZGsbbuFPVGhsUV+npNNFz3O5gbSFOOkOgtU+iMouill24IfY9uJGylXtnxgFDhUD5LQG1kI8TRGlHluxK5OP4c+eSX6PKwjet6CuqrBGec64k6ilNSbTQG8ouJPWzZZsSsTnc/fgbJmt6OBHsha6f5EtiQi5CHEs6KJqXDI0ddMswB769zsnUCeTqQS8Q9vUz/dWELqNMJb8Lpp5QIUmuSvMuDWO0rhL/E74smlSp89iO+F9H74iyULspKatdYOhV/D4nz8xD/YslnsdTxYoIjNbx0Ai+Q2C6BHKdSdqsuSVh52OlGxm2fKS4vWZOkjw5Hsbk4nNqBCrIoKjthd1xjzvJ70SNW96Ui1unly6zc5U84qz924F6T+O5dX/JiVdOancJqPEdJ4hKemyKy1flvOKey8vm/mq4e66Ke9pToh05iAp3KnpTIsqXTU9YoWg+TCzeynR3tIssn5SLkHq8cTQvXoaJ5h5NXDNFtnJtJgS080/ulCxfla96sEaZSqmpJurITjebpyiESDKlZqTxTPhmr60v+pdjHImO2hGVX/Z/aTyjd4HOpjBt3JzFnYzG6y3KJogKE6Wi0Tpu2uYTAi0hoAVvfkXZGlV1DuYUt/U4J5HNrXOV01YTaDiIygsBzeqVrIfuh7ODMVG+ezk5L1j2Wj0ec25cnh70e5tq6JVjUoOrlnm1cttIRrkhlUFtONL7rEpI7gJvimvOV0/7UZCln8lmKrHNJX8I29tn6219RI1ekiNgcZ2uecqANDG6lYkm9jiIypPExFyELHXeOBJE2YnQvpM8PUQsdWZxdNZEE009ZnEpDDYqzDupR+a4NJfvmnTDokbjbYwtztOeqM3RRFVYeSS9FCqvkorcIWPbcE7E5kjHU9fkZI4mmv8noHrHnRo5hcBsCBQ5E7OaO+t1YlR0uoWJ+cWjXYsGZtGcJE6cQJEMKjS2sLOzs7u7O8ZP+yRqjLJuizEjxS9nnXiwwARfbUUi33TBsOmcdJiA2Ysky7/6KkNsT5RmCoKoq8+dU2/P+LsH5fjCGEYY+dmcSMy0onLZpg3WdMtiUoJPUazjlKVTgc5FvUke9zypKlZEXcqZMoEB/fma018hnI5p8NV233MRUpUvg3BFNAUlPefppcnDZ0sIqMGyk2uEqaTMT0J0XxWxfuXo0GQVwSSBk2ePfqppzTP59ROqVMBJutPKCB1Rpcw6qM4dzxN8tc3LicwaU9C9FHM+EXtUkZE77rbDOQSaJaAXjrz3SiKa96dGcfFY1wiiYlS6kdbKJ1Gi0Vwnbp4ziJt2FwZL3FlybBonXSCQe0tAeSXn6aJ2Ut4Wx2wLlHjC273p9iWo58qy3WY5kZL5lQD9AOn01fSSKNNscZTf9FSqrjpGZoGL2c5WRm81vCLiTK39omS3m1KD12jSSm81H5fERF2Ez9zcRM9ucHmdLyvpmafE9RAxwzgEd4JUmkpm+ruZI/XrpOJ5p67a2Zp6ISmaehWvctmNOR5MXfTULi26tuX4BDeM0TdZUs8TuEHPgKK/niJ1FvgrW9EYHbdlOYHAjAjkORNZETyd+waVzMGy4n5l6ptUGFtxsllJmTiBPBlUbEg9iRrvuL2i/p+oExfHK52WyhiqV5G4gsWJ62VJZBcsNqYuEXE0vjI5+OwWAbWNsKGF3Cc+dtz+f0peV7I5JRZKNhDB7sH5qvc0WjmqhLtNSRrQOwP15yjiwZJqOq7bpALZ7qRbGZXq75lkt+RlkBSzD5PMcVc7V1544i7Co5fdKVqBaf/jDZC9xkmzBK4sm2liNiXBFC6aSr6istMwt2uecoJcypm4s1Wmf2Kk6wrcdPMqqeN/pAnH+/kxVY5PcOsXs8SzJS7UNcxN1/ZnU5x+aVDGFeeAcutXZd0OZgxzKucUAm0gkDOnXNNKnYk78d2Ccu7/HoHvfDKZSWg5gYaDqEgIKE7WW3tchPaqiNhZadxM5i9IBouon4VvLSQQ0YNYqVZlM5rOHle2FyY96Y4ShlnjzWs56e5K60c/YlLZlP/SV32/lmGjC5q2nGDeyamaHjWIsnGUtilWXEtdXzcGOK3q06LNXCZzlxIikrBOINoPe3U0F6G3qppyqp+gBYKoAMjsv0b0YIyQ3b+Z21dMqvuZO5W8fYwe5aQi7yM7PXPnneOmHAsc/5OG4hG/4aoxdX1pRbkd0VmkeMZXpHzSHZ503MspKWmGtE1zpllpLlkgkafrqmC046ZGPiHQCIEcZ+LPPtcDuDMldw6WF09noq68aLo1Ama+Gs2RQVUIC9vb2zs7O9vmmP15VUvJN78ElFeSPYe31xEeme2Ccm12E2yvOgu/6wfT371WGdJtjY9au7zwqt4WuLW5XtX1vP55WI/fFt8gAIG5IqDcS1O7KHFieKS50hudhQAEJkggeRKlQyn9jt0sz2uGgBMEQVVtIBDXg1rpk6dG9nlUaq26evzclXPq7T45nOdOV5eP2YAqLRGeJcFPLKdcSisMS6rQK72qMkduzaaF2LKkLKqexSVRtTT5+kagd3rwfciMh0u5rJjfm7EZNAeBJgj0zpk0AbH7bdaUgXoS1ezR/SGgBxCAAAQgAIExCNjH7GOUrVtEvXPY1EOwurZTHgIQgEDzBBoOomqGgM3zw4KJEkAPE8XZh8qQRB9GcXJ9QA+TY0lNEJhrAjiTuR5+0/maMljYavowHeETAhCAAAQgAAEIQAACEIBABwioIGp7e7upnzVDwA4AxsRRCKCHUWjNRV4kMRfDXLmT6KEyKjJCAAJFBHAmRXTm5lpNGSRPojY3N+0TqRmfz81I0VEIQAACEIAABCAAAQhAoA8EGn6dr2YI2IcRoA8OAfTgwOBUEUAS6MAlgB5cGpxDAAJjE8CZjI2uTwVrymBhs+mjT4NBXyAAAQhAAAIQgAAEIACB3hNQQdTW1lbwUwdWM0ivGQL2fnjmrYPoYd5GvLS/SKIU0VxlQA9zNdx0FgLTI4AzmR7bDtVcUwYLGxsbm5ubDf7sEGtMhQAEIAABCEAAAhCAAAQg0PDrfDVDQMavZwTQQ88GtH53kER9hn2qAT30aTTpCwQaJIAzaRB+e5quKQP1JKrZoz0osQQCEIAABCAAAQhAAAIQgEApgYaDqJohYGn3yNAtAuihW+M1A2uRxAwgd6gJ9NChwcJUCLSZAM6kzaMzM9tqymDh4cOHGxsbD80x+/OZkaIhCEAAAhCAAAQgAAEIQAAC9QkkT6J0KKXf65vlec0QsH7/qaFVBNBDq4ajDcYgiTaMQntsQA/tGQssgUCnCeBMOj18kzK+pgzUk6hmj0mBoB4IQAACEIAABCAAAQhAAAIzILCgg7AGf67JMRwOG7SB1ttDABlAICCAi2jP9GyDJYE82mASNkAAAl0kgDOBgCYwdri1cHh4OBwOm/pZ0/qxu03BdhJAD+0clwatQhINwm9h0+ihhYOCSRDoIgGcSRdHbeI215TBwsQNGqnCmtaP1BaZ208APbR/jGZsIZKYMfCWN4ceWj5AmAeBrhDAmXRlpKZqZ00ZqCdRzR5TpUPlEIAABCAAAQhAAAIQgAAEJkug4SCqZgg4WRbU1jgB9ND4ELTNACTRthFp1h700Cx/WodAbwjgTHozlHU6UlMGCwcHB4eHhw3+rNN5ykIAAhCAAAQgAAEIQAACEJgxAZ5EzRg4zRURqHlLoKhqrnWTAJLo5rhNy2r0MC2y1AuBOSOAVmkpwwAAIABJREFUM5mzAY93t6YM1JOoZo94t0iFAAQgAAEIQAACEIAABCDQSgINB1E1Q8BWIsWo8Qmgh/HZ9bQkkujpwI7ZLfQwJjiKQQACPgGcic9jTr/VlMHCftPHnI4b3YYABCAAAQhAAAIQgAAEuklABVEHBwdN/awZAnaTOVbnEkAPuWjm9QKSmNeRj/cbPcS5kAoBCIxIAGcyIrB+Zq8pA55E9VMW9AoCEIAABCAAAQhAAAIQmBKBhoOomiHglKBQbVME0ENT5FvbLpJo7dA0Yhh6aAQ7jUKgfwRwJv0b0zF6VFMGC4+bPsboM0UgAAEIQAACEIAABCAAAQg0RUAFUfv7+039rBkCNkWNdqdEAD1MCWx3q0US3R27aViOHqZBlTohMIcEcCZzOOjZLteUAU+iskhJgQAEIAABCEAAAhCAAAQgkEug4SCqZgiY2y0udJMAeujmuE3RaiQxRbgdrBo9dHDQMBkCbSSAM2njqMzcppoyWHg08nH55MA5Fs+uj1yDV6CE2JVlaWz5aiTfVX3NsWawfCWSj6QeEbh/7pga8OPP3c926v5zx10xqPNj57L5rp5Oc0XrUTXfPXd8gJyyjNuXUt9FyFgbTURdjeq1kk1MTu0jMr8WuVM7shYUDXTiWKJOQ6rNE4ZT0GjIfB4/dzcdC9e20O0kGlblQrPF5jB/WitnEIDA5AkEe4lwVpodgpnpoXMoKx7ZuzLHJz+KM6lx1CBq/ezi4NizNm7SAdWxs7e9uKj6l9IQ0C48EREPRYjOtkYLFy3ORDlTaaRUDzq2UZ7LGXdrihaAIxXtqjwH5+2HZO8SCsbZaTlV2UY4mSmBUknUdRHeJlVviD3BJOGTXi1jqpspjrlvLF8P/thlp3bhQCsVJYMr9bgDrarywqEKgyCe53R666/I7YhhiasRsx23I8Y49VRomiwQgEAlArnORE3DdBVIIiJ3GhY6k2Fpcb13dSusZC+ZpkIgVwbVWhs5iFoP4qXbZ9WDgeXL1QOnIGehnXopWlZPnCKCC4Oo4TCz/hXWzsXOERB3dnz59PHotiYTRA3FnTk3d8M9ijxecHZIdi8VqapzsObC4JouIuMxZHVMvU26wc16m7ng25lOxqe23QkVDrQaZSdMUlXZr2rcw/ssZVDEe9imM15IP9U0TSifk65uXtQU1lPWLtchAIEJELh7P3iBRW6CWJ9Q6EzUQ6ri4sl7LqN6lQn0iyqmQGDUICqIgB49eiQPo8YNokpCQFkXjz93Vd7gsgq2GLLbGhG3cwvBZuWkEwRK9KCD5MHyVRGGs/NIOheJfBIJJS7Rux+sC/kZLKVIVfYaJzMkUCKJmi7Cu6Goe5XnQ7LeZoYUaMoQyNNDdsJKilk1igc6CKKcr1KJEw4ZM4o+M20Vux0/iJLbOklMNU78VmQY1yAAAYdAnjNxsiSnIziTbOHh0CtuXgUkiIqhaiCtugyixi3s1T3WlgaDwam1sauJmiWJejejVkGRYPZ2YHZbIynpXb38urnSRQJp7CQDnYmWtU6cl2EC5xWTh+x4KsVjXSTWc5vruohwbRNc/k1HSzDrbewlTlpAIHM3xA1dSgbaiZpUT1RVEjiJc3D9SZV+uu1K/hK34wdRStJ6d6XS3bcKq7RNHghAYAoEXAfintumZNabWzY21ZyERTL3WUxGPrtHoHYQdUnFUItn18cLoopCQG93G93BBIl5t5C7Nypza3GRHvx3YMQrOe/pCbIwMdhXeYqyjAMVJelhVTY7J7MlUCQJb0Cj4xgkhi4iuvLlDH1Q1Wwp0JohUKAHbzRl7tv4x7tkqnIGWoSR3H2z5/bEFKj0KTpxb+R5KrVVOHJSpprtlz23J7YEJxCAwEQJFDgTvx1v4ShzJn5R9c0rrhJ875QtQMosCVSWQdyoJIja3d21UdAI57dWFtXvWy/Z51AjlJX2dnd343YlD0DTXXJMuLIOmT+Poj/tqplXLemdJeBsO8wD8eAJkt4VeYpwb+XKbibzDN2v1tBxNlgmic+WEQjGaAwXIUXCl7WCak2n4zoxV/lsBQEZ0MQBuGtBhYHWGx0pKyGQyCDURmknpZSJiHTuKm5HNlXSti6rxJbxVKWNkwECEJg8Ae1V7Hys4Ew8G4Li6lo637Wz8j2GV5ovbSdQ40mUPINSIdQlG3+NfJIfAsZjd3/TnNnWaGm6++a288c+j0C+HhK/Yx2ZubvjeZ/M9jfZGCXbqSq7GWNOpipzgc/ZEsiXxARcxCjLYcbbzJYDrWkCuXrQD3ys8/e/jjLQup00jNF7INnslMZUMZGM4nZ022n8pnuho6vYf+qAKiAAgbEJ5DqTtEZzb8U6luSNmNAV5GwYIsXTupMzf5eSuUzCtAlUkEGRCQu7Yx1rp3QAvbjy9ljlnUJx63Q45L4Uof8opPdrMJEVK0fK8UZI7Q4B7WgiIZMTViW/O+fegR66fwdf70g8Uam/Xx39248Iqe3amISLkP2xJyr17oX638bCRE9IbUczh/Zp/+DvbEQh2j+MMtCKnsov2yYRQ1KtTczlKy36/if5S1z+7b9ct6NqFjcllaSBnJOY2zgXIACBSRKwtzD8PUNVZ5JTPGahbEK8zW0sF2mtJDBGEHVn5ahEUEdX7jix0HineSGgyFTHaeFPZ4mKBFF6sXE31q3EjlFxAnl6SP97qFAO3u9eRyMf0ZLeBkXjpWhiNB6L20zqVAnkSWIiLiIaL0UTCaKmOsrVK4/roeD+SBoLhYFxzkDrh946s3IO6WqiWgkrcS13XI2XHLtNE3c7yQP22PuEqnJ/M+e2wTkEIDAqgbgz0bXom3TZ//w65y5b6Ezyi0eNFNdR5FuipUicCIEiGVRoYGFnZ2d3d7f6z9WTso09uTpSqYL6Y0bKAuM8P03yhCtlLJvkSZe9WO2kdY6AeKj0F+Ss/YHriWZzdjZyuzrQVfTmceZX8myLnLSDQGzum7v4zl4zls11EZHRj4lE9TlWVTtYYEVykyWMMZwhG3GgzQqiaghu2zlfA/DSXGiD+bXyEdxO8uBLeTOnVPA1aJuvEIDAxAjorWbeHZNSZ1JcPGZlsJOJZSGtpQRGfBL1tvwliVNr4z13ypaKh4CiUbOMueCCdzacNdLkim6jzUU+204grofsH7ex/fClEht9TySSwbvf44RYtlJ1EqvKy8CX2RCIS8Ifd8eSUV1EZuPrhlhOvQRRHozmvsT1EHURnkiqDrRMfPtaoCqVRk1KG5738DB4zXlXKrsd1Zxd+FQpJ4hSnioSoXkN8QUCEKhOIMeZyNu8BTM9+ysA/qoxekQk3smZ7NW7QM76BPJkULFm9SRqhOPiicFgcOLiCCVKs2YM1dug+Fqlt7ZmmckoT5YxVpoM0o4nFA2raMC8TKzlkW56kq2VqyV/ky01O/lTUJmq0kucNU1goi7C2/tKzfHFLONtmqZA+x4Bffc3DTM8z6ByVhloqcR1CO5NFnVutZFxHeIxXFfjWlfJ7Xj1m8eqyWKXMcytnXMIQGByBApWAdNIkTMpL371dHqvJPonskwzfHaAwGhB1G39J82zv5cyWDxzszRcimSIhIB6LbRrVcDQu6qXSc8ad/0LivK1/QQiekj+GI5zP9jvhuxykqs68vEEERGS3tDoXHmbHp5E+ZSb+xaRhOcEMpZ5V6u5CFkRE9mku/CgZoKoAEgzXyN6SA3xhzs7lCUDLcUzpbSHUfJwnIm4GvvASlkg2byU1C51VuJ24jGYFrNIk6XN58k3CNQlkONMfDeSLAzy4TqHXGdSXjx1Kbpyx7HU7RLlRyeQI4OqFS1sb2/v7Oxsm2P251UtJR8EIAABCECgeQISEbk7quZNwgIIQAACEJg1geRJlA6l9KOiWZ7XDAFnTYv2pkwAPUwZcPeqRxLdG7NpWtwOPaibzTwamuY4UzcEpk6gHc5k6t2kgWICNWWgnkQ1exR3j6sQgAAEIACBFhFQb9nlvgncIjsxBQIQgAAEpkmg4SCqZgg4TTLU3QAB9NAA9HY3iSTaPT6ztg49zJo47UGgpwRwJj0d2NG6VVMGC1tNH6N1l9wQgAAEIAABCEAAAhCAAAQaJaCCqO3t7aZ+1gwBG0VH45MngB4mz7TjNSKJjg/ghM1HDxMGSnUQmFcCOJN5HXmv3zVlkDyJ2tzctE+kZnzu9YYvEIAABCAAAQhAAAIQgAAE2k2g4df5aoaA7WaLdSMTQA8jI+t7ASTR9xEerX/oYTRe5IYABHII4ExywMxXck0ZLGw2fczXcNFbCEAAAhCAAAQgAAEIQKDjBFQQtbW1FfzUgdUM0muGgB2Hj/khAfQQEpn770hi7iXgAUAPHg6+QAAC4xLAmYxLrlflaspgYWNjY3Nzs8GfvRoNOgMBCEAAAhCAAAQgAAEI9J1Aw6/z1QwB+z46c9c/9DB3Q17WYSRRRmi+rqOH+RpveguBqRHAmUwNbZcqrikD9SSq2aNLsLEVAhCAAAQgAAEIQAACEJh7Ag0HUTVDwLkfvr4BQA99G9Ha/UEStRH2qgL00KvhpDMQaI4AzqQ59i1quaYMFh4+fLixsfHQHLM/bxFLTIEABCAAAQhAAAIQgAAEIFBGIHkSpUMp/V7fLM9rhoBlveN6xwigh44N2PTNRRLTZ9ylFtBDl0YLWyHQYgI4kxYPzuxMqykD9SSq2WN2qGgJAhCAAAQgAAEIQAACEIBAbQILOghr8OeaHMPhsEEbaL09BJABBAICuIj2TM82WBLIow0mYQMEINBFAjgTCGgCYwdTC4eHh8PhsKmfNa0fu9sUbCcB9NDOcWnQKiTRIPwWNo0eWjgomASBLhLAmXRx1CZuc00ZLEzcoJEqrGn9SG2Ruf0E0EP7x2jGFiKJGQNveXPooeUDhHkQ6AoBnElXRmqqdtaUgXoS1ewxVTpUDgEIQAACEIAABCAAAQhAYLIEGg6iaoaAk2VBbY0TQA+ND0HbDEASbRuRZu1BD83yp3UI9IYAzqQ3Q1mnIzVlsHBwcHB4eNjgzzqdpywEIAABCEAAAhCAAAQgAIEZE+BJ1IyB01wRgZq3BIqq5lo3CSCJbo7btKxGD9MiS70QmDMCOJM5G/B4d2vKQD2JavaId4tUCEAAAhCAAAQgAAEIQAACrSTQcBBVMwRsJVKMGp8AehifXU9LIomeDuyY3UIPY4KjGAQg4BPAmfg85vRbTRks7Dd9zOm40W0IQAACEIAABCAAAQhAoJsEVBB1cHDQ1M+aIWA3mWN1LgH0kItmXi8giXkd+Xi/0UOcC6kQgMCIBHAmIwLrZ/aaMuBJVD9lQa8gAAEIQAACEIAABCAAgSkRaDiIqhkCTgkK1TZFAD00Rb617SKJ1g5NI4ahh0aw0ygE+kcAZ9K/MR2jRzVlsPC46WOMPlMEAhCAAAQgAAEIQAACEIBAUwRUELW/v9/Uz5ohYFPUaHdKBNDDlMB2t1ok0d2xm4bl6GEaVKkTAnNIAGcyh4Oe7XJNGfAkKouUFAhAAAIQgAAEIAABCEAAArkEGg6iaoaAud3iQjcJoIdujtsUrUYSU4TbwarRQwcHDZMh0EYCOJM2jsrMbaopg4VHox+XlwfpsXx59Aq8EiXErujGlq9G8l11DdEmLV+J5COpRwTunzumhvr4c/eznbr/3PFUmfrs2Llsvqun01yZenxRxYpn2yWlSQL1XcTdc45uQlcTiAoP0+RYl7XtTu3ISBUNdOJYlGvIzHqpNhSGscUpmPoVfXb83F2Tazh0bQvdTqJhVSo0W2wO86e1cgYBCEyeQLnbL3Imw7Li/jZDvAVzfPKjOJMaRw6iLi8PTq6aKOj2WbWhXTy7bhJG/SwNAe3CEy4tio4I0VnwtHDR4kyUM5VGSvUwtJ7LGXdrihaAIxXtqrzdj7cfkr2LIxi1H3K+6uLeTsi2xclsCJRKoq6L8DapekPsCEYpJP2aLI2nY7d0ZoNj7lvJ14M/duHUHmrXYWa3n1lHOIlLkUuue1FVjeoExHU4OilyO6LAxGuJ2Y4HE2OceuZ+/AEAgYkRyHUmpW6/7qoR+oeJdYmKRieQK4NqVY0cRAVhkjyVOnb2dpA8wtdCO7XUltUTp8hCIlfd1W6YWf8Ka+di5wjILvb48unj0W1NJogaDoNNSfA1uT1sd0j37zt3jhUcHbNFtNc5cn01uKaLyHiMYMTv3g+eZMpu2Aqmr1Q72K/41LYBcOFAq0F3xlRVZb8qgZnQqyoWcUS26YwX8t2OUlTqYbyoKaynavvkgwAEahAocfuFzkRtG8pWDS8Gq2EnRVtAoG4Qtf7sscFg/CCqJASUdfH4c1flDS67qllsOUGUc+fYZuWkEwRK9KCD5MHyVRGGs/NIOpcXRNk9kHc/WBdKNBZslS0tvUfnyYMFMuuTEknUdBGRxUwWyHwfIhrL+qJZY5nb9vL0kJ373kgVD3QQRDlfpRInHKrCPdNWsdvxgyh56y+JqcaJ36oYSB4IQGA4HOY5kyycEZxJtvBQv93nrBoZFxErRNqMCFSXQdSghb16x9qpwWCwtFajkqhZkqh3M0p5eoG0W2FTJBtEseU1bHr5mcZOMtCZna7WifMyTOC8YvIQd5aNxwy/WBFzjc+mCdR1Ed7SaDojW15nwTPp+jNaxM/CtyYIZO6GuKFLdNTSgXaiJmW6qkoCJ3EOrj+p0jG3Xckf8yGO21H5/SdReqVT6d57FlUaJw8EIDB5Aq4Dcc9tS6kzsUnOSVhEpn9mQ+sU4LQ7BGoFUetnF1UIdWn8EKooBHSWmeyvPwlhWZzSZabkFnJ3BmV+LS3Sg/8OjHil8Jeww8RgX+UpykIOVGTT5SSowb/ItxkQKJKEN6DRcQwSQxcRXflCFXmdDGvwLvJl+gQK9OCNpsxcG/94l4yRzkDLsCaRjD23J6ZApU+RXBoU5b0S7ChTmWqCdntuTyo1SiYIQGBkAgXOxK/Lc/tlzsQvqr55xVWC752yBUiZJYHKMogblQRRu7u7NhIqO19fOWr+CNHRlfW9vbL8quKCPHG7kgeg6S45JlxZh4wt+tOumnnVkt5ZAs62I+e3lfSuyFNEGmMHv1luMfjV2mTbROZ5l5uF8wYJOJtgZcUYLkKKhC9rBdW6HZT8I/+GjFsD51MloAcouxZUGGi90ZGiEgKJDEJtlBovpUxEpHPH7zr7bkc2VdK2LquucqO6lDYZIDADAoHbr+BMPKOC4upaOt+1r/I9hleaL20nUOtJ1N6lJSUBCaVsDDbSSX4IGI/dndceIn+dL5Gmu29uO3/s8wjk6yHxO87GQivE8z6Z7W+yMUpC6yq7GWuOcXOE5RZJIyf5kpiAixhlOUy0xBtWjcjANpqrB/1Y0jp//+soA62bSsMYvQeSzU5pTOWHRrqmkdyOFEnjN90LHV3F/lMHi4UTCEBgVAK5ziStKOL2R3EmkeJp3clZkoedRobMjBIqyKDIkoXdmofEUYtn74xdTdw6vYV1X4rQf9DceywQWbEy2+h49aR2jYB2NJGQyQmrkt+d852RIxK9I/FEZUJxP9Fsm7zmukas7/ZOwkXIQIejnPcwQW1lfZ30HXGH+qf9gx/kiEK0f6g60KbHKr/EY2k8ox912iDN5PQ+pUXf/xS+zheVk7gpqSQN5PSfCQ1r9trmCwQgMFEC9haGP0+rOpOc4jETZZfibW5juUhrJYHaQdTumnoadWptvCAqLwQUmcr9t8wPZyFx9scWrgjX3VjbK5y0n0CeHtL/HiqjB/fJQDSEFi3p3ZUIxneIya/bpYlVbh21H2R/LMyTxERcRCReyv4lJR2tZf8X1P4w7lJP4nrQ+5V0FusepQtEpYG2GNSI69Ba1ZCuJqqVMOS2hcwLpX4gpy5XcTu2GvE/0hE3fksqDztoS3ECAQiMTCDuTHQ1+W6/kjPJLx61MhqYRXOSOHECRTKo0NjCzs7O7u5ujZ9rJySIGruGmJHp4uddDVfKWDaCKA9ZT76I20p/Qc72KnA90WxOECUblOBesjg7G5knW3M2KxZxS09ic9/+Gls6fLFsrovwR1/66otE+5zCrXNLCc2VWeHSoDvvjH7pQKe4VCkTOKlz6xx0OOR8TcvImTSXas9e9RWlkyP2qAtu4KTOHWcVfLW1cwIBCEyYQLHbj0xef44XF4/ZGuxkYllIaymB2k+i6r3OFw8BRaNmGXPBiVLTh57OGmlyRbfR5iKfbScQ10P2j9vYfvhSiY2+JxLJ4N1LdkKsvBdvbGOcNEAgLgl/3B2zRnURmY2vrH/W+bC2OWxbcRrXQ9RFeCIpGWjbN3ER9mmSKpVGTUobnvewpdSJ15x3pcTtpHlVc1Z7qpQTRCkpRiK0tDBnEIDASARynEn0bxS5FZc4k9FXDanQmexuY5xPm0CeDCq2q55EjXBcPDE4eua2LXDzjPob526KvVT5JGOo3gbF1ypZjewyk1GeLGOsNBmkHU8oGlbRgImrtTzSTU+ytXK15G+ypeY0f/C149j6a/5EXYQMutm5Ss3pYhZ87S/RHvRM3/1NwwzPM6j+FQ206b9UkjqE5E8+JjGV2htZbWR8RTZSMpVm/sZxpqzO6dVvHqsmyswY5lTOKQQgMEECFdx+kTMpL371tN3EWufg7lIm2BeqmjqBEYOonZ2di+r1PXucuFg5WopljISAei20a1VAwLuql0lrizpx17+gKF/bTyCih2QfkzuyctcnuaqDKE8QESGJj0syeZ4rUjyWrf0Y+2RhRBKeE8j01btazUXIipgMdboLN7/N4unJfPGyZWwgYWoEInpI2/KHOztGuQOtq5DimVLaw6iBd5yJ+Ar7wEoVl2xeSmqXOst1OzpbPAbTYhbRsbT5PPkGgboEcpyJ70aMy1efrnPIdSblxVOXoit3HEvdLlF+dAI5Mqha0cL29vbOzs62OWZ/XtVS8kEAAhCAAASaJyARkbujat4kLIAABCAAgVkTSJ5E6VBKPyua5XnNEHDWtGhvygTQw5QBd696JNG9MZumxe3Qg7rZzKOhaY4zdUNg6gTa4Uym3k0aKCZQUwbqSVSzR3H3uAoBCEAAAhBoEQH1lp33JnCLbMMUCEAAAhCYFYGGg6iaIeCsKNHOjAighxmB7k4zSKI7YzULS9HDLCjTBgTmgADOZA4GubyLNWWwsNX0Ud5FckAAAhCAAAQgAAEIQAACEGgNARVEbW9vN/WzZgjYGowYMhkC6GEyHHtUC5Lo0WBOoCvoYQIQqQICEBgOcSaoYFhbBsmTqM3NTftEasbnjCIEIAABCEAAAhCAAAQgAIEOEWj4dT7uBHRIKzMwFT3MAHK3mkAS3RqvaVuLHqZNmPohMCcEcCZzMtDF3awpg4XNpo/i7nEVAhCAAAQgAAEIQAACEIBAqwioIGprayv4qQOrGaTXDAFbhRJj6hNAD/UZ9qwGJNGzAa3ZHfRQEyDFIQABTQBnghIm8DtRGxsbm5ubDf5kFCEAAQhAAAIQgAAEIAABCHSIQMOv83EnoENamYGp6GEGkLvVBJLo1nhN21r0MG3C1A+BOSGAM5mTgS7uZk0ZLGw0fRR3j6sQgAAEIAABCEAAAhCAAARaRaDhIKpmCNgqlBhTnwB6qM+wZzUgiZ4NaM3uoIeaACkOAQhoAjgTlDCB34l6+PDhxsbGQ3PM/pxRhAAEIAABCEAAAhCAAAQg0CECyZMoHUrpN/tmec6dgA5pZQamoocZQO5WE0iiW+M1bWvRw7QJUz8E5oQAzmROBrq4mzVlsGAeQTX2Wdw9rkIAAhCAAAQgAAEIQAACEGgVgQUdhDX4c00O+2Jig5ZgQxsIIAAIBARwEW2YmO2xIZBHewzDEghAoFsEcCYQ0ATGDswWDg8Ph8NhUz9rWj92tynYTgLooZ3j0qBVSKJB+C1sGj20cFAwCQJdJIAz6eKoTdzmmjJYmLhBI1VY0/qR2iJz+wmgh/aP0YwtRBIzBt7y5tBDywcI8yDQFQI4k66M1FTtrCkD9SSq2WOqdKgcAhCAAAQgAAEIQAACEIDAZAk0HETVDAEny4LaGieAHhofgrYZgCTaNiLN2oMemuVP6xDoDQGcSW+Gsk5Haspg4eDg4PDwsMGfdTpPWQhAAAIQgAAEIAABCEAAAjMmwJOoGQOnuSICNW8JFFXNtW4SQBLdHLdpWY0epkWWeiEwZwRwJnM24PHu1pSBehLV7BHvFqkQgAAEIAABCEAAAhCAAARaSaDhIKpmCNhKpBg1PgH0MD67npZEEj0d2DG7hR7GBEcxCEDAJ4Az8XnM6beaMljYb/qY03Gj2xCAAAQgAAEIQAACEIBANwmoIOrg4KCpnzVDwG4yx+pcAughF828XkAS8zry8X6jhzgXUiEAgREJ4ExGBNbP7DVlwJOofsqCXkEAAhCAAAQgAAEIQAACUyLQcBBVMwScEhSqbYoAemiKfGvbRRKtHZpGDEMPjWCnUQj0jwDOpH9jOkaPaspg4XHTxxh9pggEIAABCEAAAhCAAAQgAIGmCKggan9/v6mfNUPApqjR7pQIoIcpge1utUiiu2M3DcvRwzSoUicE5pAAzmQOBz3b5Zoy4ElUFikpEIAABCAAAQhAAAIQgAAEcgk0HETVDAFzu8WFbhJAD90ctylajSSmCLeDVaOHDg4aJkOgjQRwJm0clZnbVFMGC4/qHKsnB4PBYPHseo1KSohdWVZNDJavFuW7f+6Y5Ep+HD93tyg317pMIBnr48/dL+pFIhujitO+fO6eO26uFEjr6unB4Ni5wmaKTODajAhMwkWosTZHrrRENstXZtQtmhmBQDDfzVCqT3fuF018ZxHJzHqRR/EapI29qpcr1W68ksSyUGOO/aHAxOYw/whoyAoBCIxM4P5zzh5hMAhn5XA4LHImw7LijqMwzoo5PvIgtaNAnSDqsoRQtYKo0hDQbm4iIhaCOoOvv6vLA+KoduhrRCtK9ZB6rsweJWkqcW20rBTxAAAgAElEQVTejkd5NLuX8jYleufkZR4Oh1Z12Z3QiB0ie10CpZKwgzW2i5AajAZkO+v7E2+9zGulbj8pX41AqR5sNbKPcRaCwomvNJC4FPEJrntRknDqsQ0EJ4Fyriy7KirSmBiW6EoqcTQmxljfFbTIVwhAoAaBXGeipqFZEYYmInKnYaEzGZYWH0oQ5VZYoxcUrUkgVwbV6h0/iFp/1jz9meKTKC21ZXV7LyY4WZkqLG/VWJCr/QT0xmj59PH4tkZcW1QqpmuZHVJQJN3QiPbcvZSpgs82EajtIsJtqw6hU69it9f65qKzwW0TBmwJCShhOGFM4cRXsz4dcdkD2a9BPWEzyffUb8QyFGpMCSxd3byoSSSXbuZiVZMGAQhMmsDd+8EbKP5Ws9CZqIdUxcWTu3KOd5q0/dQ3QwLjBlG3zx4bDI49e1Y9jKoRRJWEgLL2HH/uqrytZ1c1gye5GqjdXOWzgwRK9DAU5zVYvipD7+w8dFfN1YKOy17Hd155pQiiCjjO7lKJJGq7CFkd/X1qjmMhiJrdqOe3VKIHUzAc1uKJHwRRzteKYYxqLv+GS2jMcChxWhLjqatpECUxfPK1WvxmuswnBCAwEoGKzmSYPIwyW9BiZxKzQNyIKW5eBfT3IbFipM2EQHUZRM1Z2BvnWF85OhgcXVnfW1sa6JNxatFlomZJot7dKuXp7UugucjKlF8XV/pAII2dJMJxHrir3kVcW9jp0JfJdRGS4+CSQgRRIb32fa/vImSUnS2s6qMIyd3X6o5rL8STqPbJIGNRxhWUTHyV3/EAys9IXC31VBjx4minRGN+EKUkrVc6lZ4fmGX6TAIEIDAtAq4Dcc9tezm7iOR6WCTjoGw9nHSOwDhB1PrZxcFgceXW3l7tIKooBBSdma1MdkebTekcfAwOCRTpIflVpWSvI17J+3XPbEpYu1+DvZpTEIFZQk2eFEmivovwarDdjA99jk5sKU5mQaBID6Z9GSknKCqf+BKNJ7G0Pbcnpt68T7m5s3zF+V1K903CUo2p4sZae25P8holHQIQqEegijORFsQVmJu20XipcHXwiqsKjceoZz6lJ0OgsgzizSVB1O7urn2WVHJ+a0WFUGfvSP7wSVRJWSkT5InbZX6Zz94FDIUbX5nyKiO9BwT8rW1GAKFCYj2WPP67WxmlmXJ+cyaVz/YQCNatUAAZhUQslzzBI+6h/q3fzEOAoLlIbSS1goDMXP/pYoWJrzc68qeypKwMd+gr4v2TLdHACZy0VBJdVdGYqcFEU6oLGVnGGycVAhCYKgHxHul8rOBMPHOC4upaOt/13+Yz91C8cnzpBoFRn0QFUVPw1QZiVU/yQ8B47G4eTOW+ctMN6liZQyBfD95vEUhprZDU+4irSr9GWxjF/RFERRHOOjFfEpNwEVU2uKbHBFGGRJOf+XpIrIoO0ygTX9eThjF6DySbnXhMpVv0X71zxDmKxnTbUmH6PmGyzyr+Tx2aHBPahkAnCZQ6k2Hya9jei7WjOBPtB7ziGVJJHvvAIJOBhOkSqCCDIgMWdkc47qhfhRosraVFkiDqTpoy8lncOh2pe3cTZVNrnqgmd4u9DPGaSO0FAe1ovBhJ713s/Vr56mXIdlzcX5gnpyBBVJZfm1Im4iJkg5vemkn6J0Of8S1abyx1bRJB1hZxFJmniKNMfFWnyi+VyKAnsZNNDFrVwrCOSF9N1TKKxlRZyS8ySwM5JzFonK8QgMB0COiZm/nT0FWdSU7xmK3B5jaWhbS2EhgliLqk/opE7nF0ZYxQKi8EFJnGmzKbGL2rjt8abCtt7CohkKeH5Hf9o4qwGybZVQdbmaA92dkQRAVUWv01TxITchHReCmamPx5G+N/Wg2tx8bl6SHpsmxcsk5glImvH3prL+GEMUl4E3oP1W7M86RBVPz/hIlrLLnzHXufUAk+E9j3eKDpGgSmTaDImeibdLH/ZreSM8kvHu1UNDCL5iRx4gSKZFChsYWdnZ3d3d1xf67KX+c7c2f8GnZiRsoCYzfHNoeO7M1C4qxSNgcn/SSQN9a+68mRjYtEXJu/D47fus77xRi3Ms6bI5Az1iO7iNjoR0SiOponwuYg0HJIILq/UZkiYxobepVVScuEYerccRfBV9O6rzqd6lgSayhijyonpZI7g+rcWQSDr6ZtPiEAgUkT0DPa/rmXoPrI5PXneHHxoDb56u9kYjlIayuBUZ5ERd7Uq/s6XzwEFI2aZcwlJ0pN3+gLvro5Oe8kgbge7H8Ple1TIJXgazZ/9q6w+LuY2HK26ZE6SZoigbgkcgc68AnB14idzmY3uSrrWeQRt+R0t9SR2kiaNoG4HpJWC4ZbprO5Aaey50x8GWU7+n7UpIrEnkRFHJRYYkKgyhpTzVlfpEqZGpI3DF37pw2a+iHQdwJ5zqQspClxJmXFs1ilQmeyZ3OQMj0CeTKo2KJ6ElXjWD2h/p+oM7drVJExVC+E0bUq+x9Gifi8m4X6VmK8eKYtErpAQHbMOa+yaAHYTU+iEHfzkdzftfsPb//t7XV8Fvg1n0eLvk3WRejajIREHs7Dh7TbBFEpi5aeyZy1Mz0wssrEl8jKHX03olbndqMT6EQKWh+ViZoqacyrPwjzMoYFneMrBCAwIQIFuwLTQpEzKS9+9XR6r8T87Qq2rIZt1z4bDqIiIaBejexaFQCNXhVBO78vY/ZDQVm+tp5ARA/J//GS+wRAdjnBVb1lSRVhb+4mAFzB5G25cv7OdesR9s3AiCSiTsD2O3rVHXGli8BFuILJXcwIoizjBk8ierDWyNCHk91eNS/1JX4hMvHjMZj2MKqUsyqJGAIV6Rs6uvrgkrqTc+5Y0rL5O+auZfruT0Z7WsxSzg3tvJJ8gQAExiKQ40zciWznrJy4TsNdU9x0vXPwyyXfTLbUpegLjmMZqx8UqkUgRwZV61zY3t7e2dnZNsfsz6taSj4IQAACEIBA8wQkIjJboubNwQIIQAACEGiCQPIkSodS+qW8WZ7XDAGbIEabUySAHqYIt5tVI4lujtu0rG6HHtS9ah4NTWuMqRcCMyHQDmcyk67SSD6BmjJQT6KaPfK7xhUIQAACEIBAywiot+wyr961zEbMgQAEIACBaRNoOIiqGQJOmw71z5gAepgx8PY3hyTaP0aztBA9zJI2bUGgxwRwJj0e3OpdqymDha2mj+pdJScEIAABCEAAAhCAAAQgAIHGCaggant7u6mfNUPAxvFhwGQJoIfJ8uxBbUiiB4M4wS6ghwnCpCoIzDMBnMk8j77te00ZJE+iNjc37ROpGZ/bnnACAQhAAAIQgAAEIAABCECg/QQafp2vZgjYfr5YOBIB9DASrnnIjCTmYZSr9xE9VGdFTghAoIAAzqQAzvxcqimDhc2mj/kZKnoKAQhAAAIQgAAEIAABCPSAgAqitra2gp86sJpBes0QsAcDQBdcAujBpcH5cDhEEsjAJYAeXBqcQwACYxPAmYyNrk8Fa8pgYWNjY3Nzs8GffRoM+gIBCEAAAhCAAAQgAAEI9J5Aw6/z1QwBez8889ZB9DBvI17aXyRRimiuMqCHuRpuOguB6RHAmUyPbYdqrikD9SSq2aNDrDEVAhCAAAQgAAEIQAACEIBAw0FUzRCQ8esZAfTQswGt3x0kUZ9hn2pAD30aTfoCgQYJ4EwahN+epmvKYOHhw4cbGxsPzTH78/agxBIIQAACEIAABCAAAQhAAAKlBJInUTqU0u/1zfK8ZghY2j0ydIsAeujWeM3AWiQxA8gdagI9dGiwMBUCbSaAM2nz6MzMtpoyUE+imj1mRoqGIAABCEAAAhCAAAQgAAEI1CewoIOwBn+uyWH/Q5gGLcGGNhBAABAICOAi2jAx22NDII/2GIYlEIBAtwjgTCCgCYwdTS0cHh4Oh8Omfta0fuxuU7CdBNBDO8elQauQRIPwW9g0emjhoGASBLpIAGfSxVGbuM01ZbAwcYNGqrCm9SO1Reb2E0AP7R+jGVuIJGYMvOXNoYeWDxDmQaArBHAmXRmpqdpZUwbqSVSzx1TpUDkEIAABCEAAAhCAAAQgAIHJEmg4iKoZAk6WBbU1TgA9ND4EbTMASbRtRJq1Bz00y5/WIdAbAjiT3gxlnY7UlMHCwcHB4eFhgz/rdJ6yEIAABCAAAQhAAAIQgAAEZkyAJ1EzBk5zRQRq3hIoqppr3SSAJLo5btOyGj1Miyz1QmDOCOBM5mzA492tKQP1JKrZI94tUiEAAQhAAAIQgAAEIAABCLSSQMNBVM0QsJVIMWp8AuhhfHY9LYkkejqwY3YLPYwJjmIQgIBPAGfi85jTbzVlsLDf9DGn40a3IQABCEAAAhCAAAQgAIFuElBB1MHBQVM/a4aA3WSO1bkE0EMumnm9gCTmdeTj/UYPcS6kQgACIxLAmYwIrJ/Za8qAJ1H9lAW9ggAEIAABCEAAAhCAAASmRKDhIKpmCDglKFTbFAH00BT51raLJFo7NI0Yhh4awU6jEOgfAZxJ/8Z0jB7VlMHC46aPMfpMEQhAAAIQgAAEIAABCEAAAk0RUEHU/v5+Uz9rhoBNUaPdKRFAD1MC291qkUR3x24alqOHaVClTgjMIQGcyRwOerbLNWXAk6gsUlIgAAEIQAACEIAABCAAAQjkEmg4iKoZAuZ2iwvdJIAeujluU7QaSUwRbgerRg8dHDRMhkAbCeBM2jgqM7eppgwWHo16rJ4chMexs7dHrSXNX0LsyrK0tny1KN/9c8dcm46fu1uUm2tdJpCM9fHn7hf1IpGNUcVpXz53zx03VwaDUFr3n3MuDgbLV4ra4VrzBCbhIq6eTgWRkdZV7YOSHMfOFSqveR7zaEEw39PBHAzcuV808Z1FJDPEIo/QUcQ4O1KJV5JYFmrMsT90OGJzmD/WNmkQgMCkCJRvA4qcybCsuOMojLNijk9q7GZcz5hB1MnVNAqqc1YaAtrNTbi0GE46g6+/q8sD4igDqFOfpXoYWs+V2aMkHU0yeDse5dHsXsrblOidk5NZ7WbSr4krtGU7BbMfxpZKor6L8LbIsp11/IlSiPNVL364l8bEVaoHa5lMXmekCie+0kDiUsQnuO5FScKpxzYQnATKubLsyGZYpDExLFngpBJnsRNj8D8Bar5CYBIEcp2JmoaF24BCZzIsLT6UdYR5PYlBrF9HrgyqVT1yELX+7LHBoNajpyDoKrRTS21Z3QmOCU5WpgrLW2EbXOwQAb0xWj59PL6tEdcWlYrpY2aHFBS5ez94zoDGDLp2ftZ2EeG2Ve93rVe5fz94rB0Ipp1UsEq2KU4YUzjx1ZjaER/KHsh+VQJz6skhK6pwgh8/W6HGlIdJVzcvahJ3l27m/Er5BgEITIdAyTag0JkMh8OS4kN9L7jcq0ync9Q6WQINB1ElIaCsPcefuypv69lVzRBIrgabXnOVzw4SKNHDUJzXYPmqDL2z89BdNVcLOi57Hd95lZQK72cXVM6lKRAokURtF+E9ItD2lzgWbiJOYZgrV1miB1NPOKzFEz8IopyvFcMY1Zz78MqYoT9DY4Y6TktiM3U1DaIkhk++Vovf/Lb4BgEIVCRQ0ZkMh/r1PLMFLXYmsbbDXUSkhlgx0mZCoLoMouYs7I14rJ9dHAwWV26NWCw/e9QsSdS7WyVckWB4OzCyMuXXxZU+EEhjJ9nIOg/cVe8qOKbQlwkUEZLxjxlM0SKZXCQ0QqC+i4hFRCIkd1/r9y1WxM/Bt4YJZFxBdBanE1/ldzyA8jPy/EfqyX2+lHayONqJCcbRmB9EKUnruzwqPT8wSxvnDAIQmDIB14G457bZ1JnYJOckLJJxUE5eTjtGYOQgau3UYDBYWssPika6UhQCOsvMUL9C6q0osjJ5KR1Dj7lZAkV6GHrvWYlX8v7qQzYlW3/U0xUWLHlOlW2ClMkSKJJEfRfh1WANL/QtJc+pbCWcTIVAkR5Mg+GWxXcdJldyb05iJJnmyfMfe25PbImcE5HE8hXtoDJ/OqJUY6q4CeHsuT3JaZNkCECgJoEqzkSa8LYBE9hFGI9R036KT4RAZRnEW0uCqN3dXRv8FJ9LEGX+nshgMDi6cqdyWd1EUH/cruT5abpLDoUbX5nyKiO9BwT8rW1GAKFCYj2WPOHvGBQEUZI/fAQaq5i0BggEAxcKIKOQiImSx3+9cxi7ZWOK6jqDR6DmIp/tIBB58lNh4ut9kixtEk2JukJfEe+gbIkGzq9OaWUmuqqiMVODiaZUFzKyjDdOKgQgMFUCwTaggjPxzAmKq2vpfNd7aXMPxSvHl24QGPlJlI211MmtlUWlgfEfTOWHgF7on8rOvjteZYfUjSHAypRAvh683yKQAlohqfcRV5V+TSt1zkZxf2ZTxdNOB+DsT/MlMQkXUWWDa/tsVr4K73fZMpxMmEC+HpKGgtBap44y8ZMSNozReyDZ7MRjKt2i/+qdI86RNCaNp/GbXuakbWKqZID5gMCECJQ6k2Hya9jei7WjOJMqu4gkD8vKhEZ15GoqyKCozoXdmselJeXhT62NXU3cOr1fsSGTyiT3F9N7wJHbjfGqSO0DAe1ovBjJu90b/OpnTpfF/XmVhL8zqgvavYunwJxKSW6EwERchB7ocJQjvsXspEPxNNJ1Gs0nII4ic+Oj6sQ39ar8Ukkaz+h3AjM1GwcSPjjS3kltjCprLGlc8suOynkelSYaE/mEAASmSkDP3Myfhq7qTHKKx0wONrexLKS1lUDtIGp3TUVR8lLfGHFUXghotixyC87/YeJ1vauO3xpsK23sKiGQp4f0v4fyxaC+2W2N7KqL79fKzibcB4eJPHAoGaWZXs6TxIRcRCReSu7XpJFVcqcwVdpMAdCYRyBPD0km2bhknUA4xyV3NFFdUR5AewknjEn+dE3oPUz+/CAq/n/CRIWnIjL1p2hFe2JeusApwaeaTLrLBwQgMDaBImeSvw2I+o0wMb941NpoYBbNSeLECRTJoEJjCzs7O7u7uzV+rp2QIOr2uPXEjJQFxm6ObQ4d2ZuFRFSb/tKUzcVJ/wjkjbXvenJk4+IQ12bicH3Bv3Wd3D2KbZXcejhvmEDOWI/sIvzR153yRZJEa8btNNxvmi8kEG5lbGZ/TCU5NvTqgpKWCcPUueMugq+mdl91OtWxJNZQxB5VTkolgZM6dxbB4Ktpm08IQGDSBIq3AZHJ68/x4uIxY/2dTCwHaW0lUPtJlLzOt3j2zhiPoXZ3d+MhoGjULGMuOVFq+kZf8NXNyXknCcT1YP97qGyfAqkEX7P5s3eFxd9ZseHLIswaTYpLInegA58QfI30xNnsJldFA+YJQGx/HKmFpFkRiOshab1guCXqdiNhf+Jb890wRgdUaRClikRvr2TblRQTApVozLbtxW8SUJkaVGzHk6gUFGcQmACBPGdStg0ocSZlxbOWS4XOZM/mIGV6BPJkULFF9SRqlGP1xGDxzE1T4uYZ9Ycljp65bRLG+MwYqhek6FqV/Q+jRHzezUJ9KzFePNMWCV0gIDvmnFdZtADMltf8UUf3Dm5yf9fun7z9t7fXSd6lwZe1XRSTdRG6NiMhkUe6bw6+tp3MnNuX2dy4PIomvsknkVU6+snfRk+0ofZG1jkEwvCD7UzUVKgx07hXf/Af32UMM4X4hAAEJksg2BXEKi9yJuXFr562z7rNG7zxuzOxpklrGYExgijvt1IWV+oEUDuREFCvRnatCnhFr4qgHbPMfigoy9fWE4joIdnHuC/VeN2Quz7BVb1lSRVhHzQlJV3B2OBKXUti8rSkPfOyeQbwZaoEIpKIOgFrRPSqO+JqTAMX4QrGu/8iu2ErAvfEy2Yb52TaBCJ6sE3K0IeT3V4N/rJwZEbHYzDtYdTYO6uS/8BKt+F6j0BgdqukJRQRTybukjq1mKWQG9q5feIcAhAYj0COM3Ensuvz/V9KdNcUz5mUF09diq7ecSzjdYRSdQjkyKBqlQvb29s7Ozvb5pj9eVVLyQcBCEAAAhBonoBE3d7OqXmbsAACEIAABGZMIHkSpUMp/TLeLM9rhoAzhkVz0yaAHqZNuHP1I4nODdlUDW6HHtTNZh4NTXWgqRwC0ybQDmcy7V5SfwmBmjJQT6KaPUr6x2UIQAACEIBAewiot+wir+S1x0AsgQAEIACBGRBoOIiqGQLOABBNzJIAepgl7U60hSQ6MUwzMxI9zAw1DUGg3wRwJv0e34q9qymDha2mj4r9JBsEIAABCEAAAhCAAAQgAIE2EFBB1Pb2dlM/a4aAbSCIDRMkgB4mCLMfVSGJfozjpHqBHiZFknogMOcEcCZzLgDd/ZoySJ5EbW5u2idSMz5nFCEAAQhAAAIQgAAEIAABCHSIQMOv89UMATsEGlOrEEAPVSjNVR4kMVfDXdpZ9FCKiAwQgEAVAjiTKpR6n6emDBY2mz56P0J0EAIQgAAEIAABCEAAAhDoEwEVRG1tbQU/dWA1g/SaIWCfRoK+DIdD9IAMAgJIIgAy51/Rw5wLgO5DYFIEcCaTItnpemrKYGFjY2Nzc7PBn52mj/EQgAAEIAABCEAAAhCAwLwRaPh1vpoh4LyNVu/7ix56P8SjdhBJjEqs3/nRQ7/Hl95BYGYEcCYzQ93mhmrKQD2JavZoM1xsgwAEIAABCEAAAhCAAAQgEBBoOIiqGQIGneFr1wmgh66P4MTtRxITR9rpCtFDp4cP4yHQHgI4k/aMRYOW1JTBwsOHDzc2Nh6a4/9v726T3LbNAADvnfZYSXyRJt3xOZp0nGvE7nh8hXaaTGbyK3bsbRt7OwC/QBKkyKXED+nRj12KBEHwwUsIL6m111/e0M6hCRAgQIAAAQIECBAgMFegfBJVpFLF9/rWXF6YAs49W+V3LiAedt5B6zdPSKxvvucjioc99462ETiQgMHkQJ11uaYuDIPwJGrb1+Vo1EyAAAECBAgQIECAAIGzC9wVSdiGP9/EV/1/BG3YEm3Yg4AAINARMETs4cLcTxs64bGfhmkJAQLHEjCYECgEnp1c3X358uXp6Wmrnwtb/+zTtuM+BcTDPvtlw1YJiQ3xd3ho8bDDTtEkAkcUMJgcsdfO3uaFYXB39gbNqnBh62cdS+H9C4iH/ffRyi0UEiuD7/xw4mHnHaR5BI4iYDA5Sk9dtJ0LwyA8idr2dVEdlRMgQIAAAQIECBAgQOC8AhsnUQtTwPNaqG1zAfGweRfsrQFCYm89sm17xMO2/o5O4GoEDCZX05VLTmRhGNx9/vz5y5cvG/5ccvL2JUCAAAECBAgQIECAwMoCnkStDO5wYwILbwmMVW3bMQWExDH77VKtFg+XklUvgRsTMJjcWIfnT3dhGIQnUdu+8qdlLQECBAgQIECAAAECBHYpsHEStTAF3CWpRj1fQDw83+5K9xQSV9qxzzwt8fBMOLsRINAWMJi0PW703cIwuPtz69eN9pvTJkCAAAECBAgQIEDgmAIhifr8+fNWPxemgMc01+pBAfEwSHOrG4TErfZ8/rzFQ97FWgIEZgoYTGaCXWfxhWHgSdR1hoWzIkCAAAECBAgQIEDgQgIbJ1ELU8ALoah2KwHxsJX8bo8rJHbbNZs0TDxswu6gBK5PwGByfX36jDNaGAZ3/9v69YxztgsBAgQIECBAgAABAgS2EghJ1J9//rnVz4Up4FZqjnshAfFwIdjjViskjtt3l2i5eLiEqjoJ3KCAweQGO71/ygvDwJOoPqk1BAgQIECAAAECBAgQGBTYOIlamAIOnpYNxxQQD8fstwu2WkhcEPeAVYuHA3aaJhPYo4DBZI+9snqbFobB3X+f+frHd/fV6+sffnlmJWG3E2JvH+JhHt6Nlfvt1TdVY8LvF69+HStt25EFyr5+8eNvY2dRhk0VFS/b4fPrqxfVlvv7Xmi1toqlMeZdbDvHEPHuZRMQ/dBKt953YmkXBDffiM713nTmfau/Wpd258JPPkS+edUZXGIAdMpnzd8VH1fh+PlKypZ1Yyxp/8Pbds2xzd3y7SLeESBwXoHffkzmCPf33avy6elpbDB5OrV7MlBUg5Vr/Lw9uFptz0qiXocE6pu/V6nT6++a5ZnZ1MkUsJ6+ZII4IhUF2vH37kEetVoEnfVAJ+OhGbl6c5SyIeXQ1prxhBGtnvu2JiXFzCkp/OurF0nNRXQNxd5ZT11leYGTIbF8iIg1VDEQp7PpePLuZfIJWkRXEiH5Rlt7MYGT8VAfOc5jkpsgoxd+iIGyW+OYkHZxCImknvoAnYVO5Lx96ERRc7+mUzI2rBxk4qZkwImNqceuzhG9JUBggcDgYBIuw+oT4anKiNLLcHQweTq5+1NMotIKF5yFXRcKDIbBtHrnJ1H//uGb+/vvXs/MloaLj7azCLWHcHsvF3Bx9jPh4230GDYeSKCYGD28fJGf1hRz3FyoVOfYmyGN7zK+tarU7+0EFg8R3Wnr0/ioMr51OwdH7giEwEjSmNELP1zmyedICIn6baeezlGqt3GgSJKfan3xezTGQkQ1Q1Yra4rDXTOZa1fqHQEClxH49bfcs+h6TBgdTMJDqvHdy6dYyeh0mbNQ6yoCs5Oofzzc3y/7/l6aT51IAeNnz4sf38Vv69URXMGUWzvRXm31+4ACJ+LhKQ5e9w/vYtcnM4/iVKutIyce5zrtwWt8r2KO3v424Ej9Np1b4ERILB4iYlLUnqeODizd5xvnPl/1jQuciIdq5263jl/4nSQqeTsxjQmHSx9eVc0ofncb8/QU71WXOV7Y2iRRMYcv307L39rH8o4AgYkCEweTp/JhVDUFHR9McsfufmpkasjtZt0qAtPDINucu//Me735NuZQ83YaLZ1tVlxZzG5D4MYQTG8rhu2ZT6bhumy5BoEmd4q5TfLAPZzdhIGpO5ZFlBhI1fjYYZpQZ2cPb1cUWD5E5JLk2OnpvDY9I8NOqrHT5d5le+LCD+WTESCMMzGvjvUMPl9qTn482zkRY15zQ2gAAAxFSURBVO0kKoR0cZcnrB9OzJqDWyJA4MIC6QCSLteHHZtFdHKwaXOVumYLOxeYmUT99O39/f23P/3nzV+rv4ZbllONpYCtqUz8HGp9ovTX7Jxa804LjMVDmTaXc504kCV/rFJ9cXl8xpMd6fpVVQ0VY5XEdr/HQmL5ENGqoT7JwX4fDpV6XwuXFRiLh+rI/VnOqQs/ZuPl8596uV6o6h36HW/uPLwt7uv1/umIkzEWdq9SuHq5Xhg6qPUECCwTmDKYxCPEoaC6aXtqMOm3qbV72FyNGP2i1qwvMDkM8k0rk6jHx8f6cdHYckyi7kPi9HNR/pcfvo5vfyneju1bHaBTJt+u3py4G7j5T6ahyqy/AoH21LYXAN0IyZ1xLNP+7lYv0ooBrpgKjadkuSNYt55AJ6XpBkAvQjIti2XaX+8MD7nDH2E2t2yKj8AYEc3KTGVW7UMgdl/yBbmhry204yfp5bhv3NodK/InGKdE4Z+Frf7J0KLm8u2UGKtqqLKpcAp1bfmDWkuAwCoC8ZOluR4nzSKShnV2D1ua672YaFT3UJK9LB5FYN6TqCJluv/q+zJnCnnRL99/FZ5OvalypFm/h1PAfO7efMdmygzpKJ2gnZXAcDy0/oogFi8ipBl9unPoqs7098zhr5xXSaVSw5WXh0PiHEPElAluesLFh59UKjVZd3k4Hsp2tFOjcuXMC79MpIs0ppgDxclOPqcqjphk3eFvKOLf8TbfCexlRJ1EvYXY5G/Fx1w8dq+G1i7eECAwV+DkYFJdyOk9tfwfkmSHnezuvUaaZvRI1l0xIQzGGnT3OOf1c/nc6ed0p2Lltz+l62Ys51tXTFZadxPjp071RLW8W9wqkK/J2qsQKAaaJmWq/tazuT8UR7FWgf6JZxOt0R2TyVC/Oms2FDjLEJG/F5N5lNGcaDyuGW0Dsq+leMH2sty5F34oHytp8pni68S9mvsDUeHRTKrmxlgsH2/cJM+jmpX74tYaAlcrUFy5vX8aeupgMrB7jqszuc0VsW6vAvOSqMf4db6vfzhbEjWUAsYwLR50dn9WjwXMbvcaUwvaNRQPzX8P1Q2H5BbRhNltNl/KrqxPYnxrXczChQSGQuJMQ0Q2X8qurM9vfGtdzMJFBIbioTxYnLj0U9zsVZxdGeoJI0lxOyb0dVNbqDx3myY38sTKiz/azAZMdmX1CCv3fcIQ8G4aXiSmVHqjAmODSbyo73P/zW523OiuHN49a51NzLIlrTy7wFgYTDjY3adPnx4fH6f+/Nf34U+g/vomLf/vsO7rv/1zTj3JEXONjB8w/Xt+RWZffZAkn1K5Oqy7IoGhvm4PPQNhkzrEoa3Kw4sN+VvX9U7dwbHeYGFLgYG+nj1E5Ho/EyTpqQ5Nf9MylrcRGLxaM32a6/rQ6tC/VeIUlpPhovO2Osd21BVrk5bkDpRpT9gv7lV+aTAsJx+CnbfVsf0mQODcAsUVnb1jUv1FUzIsVPc+6qt1fPdcY9szmVwJ6/YqMPNJ1OPP5V9ANd/Xi2u++r71cKrZemIpnwLGD5jqYyyVi59GzTf6Om/TkpYPKZCPh/QPDDqn1QmVzttO4fC2NwOO410u2IqdxVgGcc1V+ZAY7OhOf3XeZhqeTHbLrfHzLP/XL6HE4KEzlVt1doF8PJSHGenuqRd+msYUw0UzWwpjRe5JVGaAii2pJlWTYyw0sh6LOllTCMvqBuLZVVVI4AYFhgaTUynNicHk1O596VhhNVz0N1tzUYGhMJh40PAkat7rn38LD6O+e13sVT+GmldJUrrX0OKDMPtZ1f8Po2LwtW4WFhPl/O69Y1lxBIE4bR2YQBQB0Ex543wl+Y5fPL+wsp5/tCbBrblO8WegzZyp/EfV01vRR+C6/jaed4goaqtCKIZHEwNvH9KnAeXXSn3a7TTGepObtJ1jF35VLt5SaXq//b8RhrlR3fWdOCnuPVeDTC9rGo2x6uCt+jv/mUyvYdVOfhMgcF6BzqwgV/nYYHJ693cvm3sl1T8+Ycqacz7CuvlJVMh/Xv+l+dOUv5TpVJIXTV/MpIDFp1H9WdVBzG6NAd20qHlU1dnZ270LZOLhVCYT7/p08pxiytJERH1ztzz/NGCqeU9F0953KA6r0n5fWiATEtlBoG5Hdmva4yEuqpSp3Cvt9N6HWXvfdIZdH9PCagKZeKiPHbu+e7HXW6uniOW40L3wc4+p477FCBP2SkaDmCZ1oqi8oxfr72yqvvBTHrsXY+UX+Xrri2AuanybnollAgSWCgwMJumFXF6x5a900Eg/F9L1xbdd2vt1dm+GlGJDMrAsPSX7zxcYCIOpFd19/Pjx06dPH6vX+stTW6ocAQIECBDYXiBm3a2Z0/Zt0gICBAgQWFmgfBJVpFLFE6Q1lxemgCtjOdylBcTDpYUPV7+QOFyXXbTB+4iHcK/aM8mLdrTKCVxaYB+DyaXPUv0nBBaGQXgSte3rxPnZTIAAAQIE9iMQvmXX++rdfpqnJQQIECCwisDGSdTCFHAVIgdZT0A8rGd9kCMJiYN01ErNFA8rQTsMgWsXMJhcew9POr+FYXD3x9avSWepEAECBAgQIECAAAECBPYhEJKojx8/bvVzYQq4D0OtOJuAeDgb5bVUJCSupSfPcx7i4TyOaiFw8wIGk5sPgQCwMAzKJ1EfPnyon0itvKwXCRAgQIAAAQIECBAgcCCBjb/OtzAFPBC0pk4REA9TlG6qjJC4qe4+ebLi4SSRAgQITBEwmExRuvoyC8Pg7sPWr6vvISdIgAABAgQIECBAgMA1CYQk6o8//uj8LBKrFdYvTAGvqSecy/IvpzK8PgFDxPX16ZIzEg9L9OxLgEAtYDCpKW55YWEY3L1///7Dhw8b/rzlznPuBAgQIECAAAECBAgcTmDjr/MtTAEPx63B4wLiYdznBrcKiRvs9JFTFg8jODYRIDBdwGAy3eqKSy4Mg/AkatvXFfeNUyNAgAABAgQIECBA4PoENk6iFqaA19cfN35G4uHGA6B/+kKib3LLa8TDLfe+cydwRgGDyRkxj1vVwjC4+/3339+/f/979Vp/+bj0Wk6AAAECBAgQIECAwA0KlE+iilSq+F7fmssLU8Ab7LDrPmXxcN39+4yzExLPQLviXcTDFXeuUyOwpoDBZE3t3R5rYRiEJ1HbvnYrq2EECBAgQIAAAQIECBDoC9wVSdiGP9/EV/1/BG3YEm3Yg4AAINARMETs4cLcTxs64bGfhmkJAQLHEjCYECgE+tnRxDV3E8spRoAAAQIECBAgQIAAAQJPT0+SKGFAgAABAgQIECBAgACBGQKSqBlYihIgQIAAAQIECBAgQEASJQYIECBAgAABAgQIECAwQ0ASNQNLUQIECBAgQIAAAQIECEiixAABAgQIECBAgAABAgRmCEiiZmApSoAAAQIECBAgQIAAAUmUGCBAgAABAgQIECBAgMAMAUnUDCxFCRAgQIAAAQIECBAgIIkSAwQIECBAgAABAgQIEJghIImagaUoAQIECBAgQIAAAQIEJFFigAABAgQIECBAgAABAjMEJFEzsBQlQIAAAQIECBAgQICAJEoMECBAgAABAgQIECBAYIaAJGoGlqIECBAgQIAAAQIECBCQRIkBAgQIECBAgAABAgQIzBCQRM3AUpQAAQIECBAgQIAAAQKSKDFAgAABAgQIECBAgACBGQKSqBlYihIgQIAAAQIECBAgQEASJQYIECBAgAABAgQIECAwQ0ASNQNLUQIECBAgQIAAAQIECEiixAABAgQIECBAgAABAgRmCEiiZmApSoAAAQIECBAgQIAAAUmUGCBAgAABAgQIECBAgMAMAUnUDCxFCRAgQIAAAQIECBAgIIkSAwQIECBAgAABAgQIEJghIImagaUoAQIECBAgQIAAAQIEJFFigAABAgQIECBAgAABAjMEJFEzsBQlQIAAAQIECBAgQICAJEoMECBAgAABAgQIECBAYIaAJGoGlqIECBAgQIAAAQIECBCQRIkBAgQIECBAgAABAgQIzBCQRM3AUpQAAQIECBAgQIAAAQKSKDFAgAABAgQIECBAgACBGQKSqBlYihIgQIAAAQIECBAgQEASJQYIECBAgAABAgQIECAwQ0ASNQNLUQIECBAgQIAAAQIECEiixAABAgQIECBAgAABAgRmCEiiZmApSoAAAQIECBAgQIAAgf8D9J70B2Ke6tUAAAAASUVORK5CYII=;" vertex="1" parent="1">
          <mxGeometry x="540" y="108.03" width="482" height="183.94" as="geometry" />
        </mxCell>
        <mxCell id="urtE2N_7HO7W4vvlgQMw-12" value="" style="edgeStyle=orthogonalEdgeStyle;rounded=0;orthogonalLoop=1;jettySize=auto;html=1;" edge="1" parent="1" source="urtE2N_7HO7W4vvlgQMw-5" target="urtE2N_7HO7W4vvlgQMw-11">
          <mxGeometry relative="1" as="geometry" />
        </mxCell>
        <mxCell id="urtE2N_7HO7W4vvlgQMw-5" value="单位" style="shape=umlActor;verticalLabelPosition=bottom;verticalAlign=top;html=1;outlineConnect=0;" vertex="1" parent="1">
          <mxGeometry x="180" y="430" width="30" height="60" as="geometry" />
        </mxCell>
        <mxCell id="urtE2N_7HO7W4vvlgQMw-7" value="&lt;h1 style=&quot;margin-top: 0px;&quot;&gt;注意&lt;/h1&gt;&lt;p&gt;&lt;/p&gt;&lt;ol&gt;&lt;li&gt;&lt;span style=&quot;text-align: center;&quot;&gt;经费科目：来自于系统管理-系统配置-xmbm_2025&lt;/span&gt;&lt;br&gt;&lt;/li&gt;&lt;li&gt;&lt;span style=&quot;text-align: center;&quot;&gt;计领比例：来自于数据字典配置（jlbl）&lt;/span&gt;&lt;/li&gt;&lt;li&gt;数据存于bzgl_rate_config表，dwid = null&lt;/li&gt;&lt;/ol&gt;&lt;p&gt;&lt;/p&gt;" style="text;html=1;whiteSpace=wrap;overflow=hidden;rounded=0;" vertex="1" parent="1">
          <mxGeometry x="540" y="291.97" width="380" height="120" as="geometry" />
        </mxCell>
        <mxCell id="urtE2N_7HO7W4vvlgQMw-14" value="" style="edgeStyle=orthogonalEdgeStyle;rounded=0;orthogonalLoop=1;jettySize=auto;html=1;" edge="1" parent="1" source="urtE2N_7HO7W4vvlgQMw-11" target="urtE2N_7HO7W4vvlgQMw-13">
          <mxGeometry relative="1" as="geometry" />
        </mxCell>
        <mxCell id="urtE2N_7HO7W4vvlgQMw-11" value="&lt;div style=&quot;text-align: justify;&quot;&gt;&lt;span style=&quot;background-color: initial;&quot;&gt;计领比例配置&lt;/span&gt;&lt;/div&gt;" style="rounded=1;whiteSpace=wrap;html=1;verticalAlign=middle;align=center;" vertex="1" parent="1">
          <mxGeometry x="294" y="430" width="120" height="60" as="geometry" />
        </mxCell>
        <mxCell id="urtE2N_7HO7W4vvlgQMw-29" style="edgeStyle=orthogonalEdgeStyle;rounded=0;orthogonalLoop=1;jettySize=auto;html=1;exitX=1;exitY=0.5;exitDx=0;exitDy=0;entryX=0;entryY=0.5;entryDx=0;entryDy=0;" edge="1" parent="1" source="urtE2N_7HO7W4vvlgQMw-13" target="urtE2N_7HO7W4vvlgQMw-27">
          <mxGeometry relative="1" as="geometry" />
        </mxCell>
        <mxCell id="urtE2N_7HO7W4vvlgQMw-13" value="根据管理员设置的范围，选择其中一个" style="whiteSpace=wrap;html=1;rounded=1;" vertex="1" parent="1">
          <mxGeometry x="494" y="430" width="120" height="60" as="geometry" />
        </mxCell>
        <mxCell id="urtE2N_7HO7W4vvlgQMw-30" style="edgeStyle=orthogonalEdgeStyle;rounded=0;orthogonalLoop=1;jettySize=auto;html=1;exitX=0.25;exitY=0;exitDx=0;exitDy=0;" edge="1" parent="1" source="urtE2N_7HO7W4vvlgQMw-17" target="urtE2N_7HO7W4vvlgQMw-27">
          <mxGeometry relative="1" as="geometry" />
        </mxCell>
        <mxCell id="urtE2N_7HO7W4vvlgQMw-17" value="&lt;h1 style=&quot;margin-top: 0px;&quot;&gt;1、计领比例配置&lt;/h1&gt;&lt;p&gt;&lt;/p&gt;&lt;ol&gt;&lt;li&gt;&lt;span style=&quot;text-align: center;&quot;&gt;经费科目：&lt;/span&gt;&lt;span style=&quot;text-align: center;&quot;&gt;来自于系统管理-系统配置-xmbm_2025&lt;/span&gt;&lt;br&gt;&lt;/li&gt;&lt;li&gt;&lt;span style=&quot;text-align: center;&quot;&gt;计领比例：来自于&lt;/span&gt;管理员设置。不是上级单位的设置。&lt;/li&gt;&lt;li&gt;数据存于bzgl_rate_config表，dwid = 当前单位id&lt;/li&gt;&lt;/ol&gt;&lt;p&gt;&lt;/p&gt;" style="text;html=1;whiteSpace=wrap;overflow=hidden;rounded=0;" vertex="1" parent="1">
          <mxGeometry x="710" y="750" width="390" height="120" as="geometry" />
        </mxCell>
        <mxCell id="urtE2N_7HO7W4vvlgQMw-21" value="&lt;h1 style=&quot;margin-top: 0px;&quot;&gt;2、计领比例生效&lt;/h1&gt;&lt;p&gt;&lt;/p&gt;&lt;ol&gt;&lt;li&gt;是对经费科目下的所有项目设置比例&lt;/li&gt;&lt;li&gt;数据存放于bzgl_bzxm_rate_config表&lt;/li&gt;&lt;/ol&gt;&lt;p&gt;&lt;/p&gt;" style="text;html=1;whiteSpace=wrap;overflow=hidden;rounded=0;labelBorderColor=none;labelBackgroundColor=default;" vertex="1" parent="1">
          <mxGeometry x="1100" y="750" width="340" height="120" as="geometry" />
        </mxCell>
        <mxCell id="urtE2N_7HO7W4vvlgQMw-25" value="计领比例设置" style="rounded=1;whiteSpace=wrap;html=1;" vertex="1" parent="1">
          <mxGeometry x="294" y="650" width="120" height="60" as="geometry" />
        </mxCell>
        <mxCell id="urtE2N_7HO7W4vvlgQMw-26" style="edgeStyle=orthogonalEdgeStyle;rounded=0;orthogonalLoop=1;jettySize=auto;html=1;exitX=0.5;exitY=0.5;exitDx=0;exitDy=0;exitPerimeter=0;entryX=-0.117;entryY=0.5;entryDx=0;entryDy=0;entryPerimeter=0;" edge="1" parent="1" source="urtE2N_7HO7W4vvlgQMw-5" target="urtE2N_7HO7W4vvlgQMw-25">
          <mxGeometry relative="1" as="geometry">
            <Array as="points">
              <mxPoint x="195" y="680" />
            </Array>
          </mxGeometry>
        </mxCell>
        <mxCell id="urtE2N_7HO7W4vvlgQMw-31" style="edgeStyle=orthogonalEdgeStyle;rounded=0;orthogonalLoop=1;jettySize=auto;html=1;exitX=0.5;exitY=0;exitDx=0;exitDy=0;entryX=0.53;entryY=1.007;entryDx=0;entryDy=0;entryPerimeter=0;" edge="1" parent="1" source="urtE2N_7HO7W4vvlgQMw-21" target="urtE2N_7HO7W4vvlgQMw-27">
          <mxGeometry relative="1" as="geometry" />
        </mxCell>
        <mxCell id="urtE2N_7HO7W4vvlgQMw-32" value="&lt;h1 style=&quot;margin-top: 0px;&quot;&gt;1、计领比例设置&lt;/h1&gt;&lt;ol&gt;&lt;li style=&quot;text-align: center;&quot;&gt;重新对已经设置过计领比例的项目设置。&lt;/li&gt;&lt;li style=&quot;&quot;&gt;是对计领比例生效的修改&lt;/li&gt;&lt;/ol&gt;&lt;p&gt;&lt;/p&gt;" style="text;html=1;whiteSpace=wrap;overflow=hidden;rounded=0;" vertex="1" parent="1">
          <mxGeometry x="294" y="780" width="390" height="120" as="geometry" />
        </mxCell>
      </root>
    </mxGraphModel>
  </diagram>
</mxfile>
